<svg id="Group_78" data-name="Group 78" xmlns="http://www.w3.org/2000/svg" width="83.753" height="74.108" viewBox="0 0 83.753 74.108">
  <g id="Group_1" data-name="Group 1" transform="translate(11.491 46.128)">
    <path id="Path_1" data-name="Path 1" d="M430.688-203.12l.011,0h0" transform="translate(-430.688 203.124)" fill="#f4444f"/>
  </g>
  <g id="Group_2" data-name="Group 2" transform="translate(11.491 46.128)">
    <path id="Path_2" data-name="Path 2" d="M430.688-203.12l.011,0h0" transform="translate(-430.688 203.124)" fill="#f4444f"/>
  </g>
  <g id="Group_3" data-name="Group 3" transform="translate(11.706 57.557)">
    <path id="Path_3" data-name="Path 3" d="M436.54-171.814a.441.441,0,0,1-.073.015l-5.19.672,0-.007Z" transform="translate(-431.277 171.814)" fill="#f4444f"/>
  </g>
  <g id="Group_4" data-name="Group 4" transform="translate(10.509 72.767)">
    <path id="Path_4" data-name="Path 4" d="M430.493-130.144l-2.347.307c-.051.007-.1.011-.149.015Z" transform="translate(-427.997 130.144)" fill="#f4444f"/>
  </g>
  <g id="Group_5" data-name="Group 5" transform="translate(11.286 57.557)">
    <path id="Path_5" data-name="Path 5" d="M435.81-171.814a.438.438,0,0,1-.073.015l-5.191.672-.263.033a1.2,1.2,0,0,1-.157.015l.423-.055Z" transform="translate(-430.126 171.814)" fill="#f4444f"/>
  </g>
  <g id="Group_6" data-name="Group 6" transform="translate(11.286 57.557)">
    <path id="Path_6" data-name="Path 6" d="M435.81-171.814a.438.438,0,0,1-.073.015l-5.191.672-.263.033a1.2,1.2,0,0,1-.157.015l.423-.055Z" transform="translate(-430.126 171.814)" fill="#f4444f"/>
  </g>
  <g id="Group_7" data-name="Group 7" transform="translate(0 40.708)">
    <path id="Path_7" data-name="Path 7" d="M472.153-214.882l-6.348,20.517a2.382,2.382,0,0,1-1.971,1.661L422.8-187.3a0,0,0,0,1-.007,0l-10.283,1.347-.3.04-2.5.321H409.7l-7.76,1a2.425,2.425,0,0,1-2.716-2.1,2.3,2.3,0,0,1-.022-.314,2.427,2.427,0,0,1,2.117-2.4l6.431-.829,0-.007,4.574-.588a2.427,2.427,0,0,0,2.117-2.4,2.255,2.255,0,0,0-.022-.314,2.425,2.425,0,0,0-2.715-2.1l-2.376.307v0l-1.566.2a2.431,2.431,0,0,1-2.719-2.1,2.216,2.216,0,0,1-.022-.314,2.434,2.434,0,0,1,2.121-2.405l3.343-.431a1.192,1.192,0,0,0,.157-.015l.263-.033,5.191-.672a.437.437,0,0,0,.073-.015,2.418,2.418,0,0,0,2.047-2.387,2.36,2.36,0,0,0-.022-.314,2.427,2.427,0,0,0-2.719-2.1l-2.99.383h0l-.621.08a2.428,2.428,0,0,1-2.719-2.1,2.16,2.16,0,0,1-.019-.31,2.428,2.428,0,0,1,2.117-2.409l3.613-.467a2.211,2.211,0,0,1,.311-.018h0a2.192,2.192,0,0,1,.412-.095l53.973-7.1A2.389,2.389,0,0,1,472.153-214.882Z" transform="translate(-399.207 217.972)" fill="#fff"/>
  </g>
  <g id="Group_8" data-name="Group 8" transform="translate(13.301 71.38)">
    <path id="Path_8" data-name="Path 8" d="M445.929-133.944a2.125,2.125,0,0,1-.3.062l-9.98,1.285Z" transform="translate(-435.646 133.944)" fill="#f4444f"/>
  </g>
  <g id="Group_9" data-name="Group 9" transform="translate(21.553 45.084)">
    <path id="Path_9" data-name="Path 9" d="M464.034-193.213l3.238-.429-4.731,13.812,5.2-.69-1.011,2.978-8.482,1.125Z" transform="translate(-458.253 198.148)" fill="#ed3c60"/>
    <path id="Path_10" data-name="Path 10" d="M492.7-198.253l8.53-1.132-1.031,2.969-5.269.7-1.288,3.711,5-.663-1.062,3.01L492.6-189l-1.435,4.134,5.106-.677-1.035,2.982-8.386,1.112Z" transform="translate(-476.41 201.794)" fill="#ed3c60"/>
    <path id="Path_11" data-name="Path 11" d="M524.734-202l9.658-1.281-1.033,2.969-3.217.427-4.75,13.827-3.213.426,4.725-13.823-3.167.42Z" transform="translate(-498.846 204.268)" fill="#ed3c60"/>
    <path id="Path_12" data-name="Path 12" d="M557.475-204.553l-2.256,2.631a9.874,9.874,0,0,0-1.282-.807,1.878,1.878,0,0,0-1.11-.182,2.865,2.865,0,0,0-1.585.741,2.693,2.693,0,0,0-.861,1.463,1.209,1.209,0,0,0,.347,1.211,5.6,5.6,0,0,0,1.858.951,7.975,7.975,0,0,1,1.389.994,2.6,2.6,0,0,1,.57,1.145,3.767,3.767,0,0,1,.005,1.775,7.208,7.208,0,0,1-2.294,3.839,7.278,7.278,0,0,1-4.017,1.992,5.388,5.388,0,0,1-4.566-1.47l2.349-2.631q.529.37,1.218.809a2.149,2.149,0,0,0,1.481.334,2.906,2.906,0,0,0,1.6-.792,2.85,2.85,0,0,0,.914-1.519,1.314,1.314,0,0,0-.324-1.263,3.966,3.966,0,0,0-1.585-.864,5.413,5.413,0,0,1-1.527-.7,2.721,2.721,0,0,1-.752-1.14,3.643,3.643,0,0,1-.054-2.1,7.048,7.048,0,0,1,2.294-3.845,7.627,7.627,0,0,1,4.173-1.957A4.506,4.506,0,0,1,557.475-204.553Z" transform="translate(-512.493 205.986)" fill="#ed3c60"/>
  </g>
  <g id="Group_13" data-name="Group 13" transform="translate(5.283 0.964)" opacity="0.62" style="mix-blend-mode: overlay;isolation: isolate">
    <g id="Group_10" data-name="Group 10" transform="translate(61.343 14.615)">
      <path id="Path_13" data-name="Path 13" d="M582.126-278.956a19.333,19.333,0,0,0,.175-2.617,19.486,19.486,0,0,0-.566-4.668l1.427-.069.186-.011,8.691-.438.449-.022.756-.036a4.666,4.666,0,0,0-.069.818,4.775,4.775,0,0,0,.62,2.369Z" transform="translate(-581.735 286.818)" fill="#f4444f"/>
    </g>
    <g id="Group_11" data-name="Group 11" transform="translate(73.952 11.786)">
      <path id="Path_14" data-name="Path 14" d="M620.8-290.87a2.4,2.4,0,0,1-.117.741,2.419,2.419,0,0,1-.876,1.219,2.4,2.4,0,0,0-.913-.533,2.4,2.4,0,0,0-1.953.212,1.7,1.7,0,0,0-.219.139c-.007.007-.015.011-.018.015l-.044.033a1.394,1.394,0,0,1-.066-.172,4.741,4.741,0,0,1-.274-1.091,4.764,4.764,0,0,1-.04-.6,5.127,5.127,0,0,1,.077-.883,4.566,4.566,0,0,1,.168-.657,4.829,4.829,0,0,1,1.179-1.913c.069-.069.142-.139.219-.2a2.4,2.4,0,0,1,.358,1.27,2.418,2.418,0,0,1-.35,1.256,2.349,2.349,0,0,1,1.186-.38.712.712,0,0,1,.124-.007,2.378,2.378,0,0,1,1.227.336A2.421,2.421,0,0,1,620.8-290.87Z" transform="translate(-616.279 294.568)" fill="#f4444f"/>
    </g>
    <g id="Group_12" data-name="Group 12">
      <path id="Path_15" data-name="Path 15" d="M471.511-316.889a19.52,19.52,0,0,0-3.081-4.121l0,0a19.393,19.393,0,0,0-13.892-5.844h0a19.361,19.361,0,0,0-13.743,5.694,19.379,19.379,0,0,0-5.523,11.155.033.033,0,0,1,0,.018c-.015.131-.033.266-.047.4.007-.073.015-.146.022-.215s.011-.146.015-.219h-.011c-.135-.007-.266-.011-.4-.011a7.263,7.263,0,0,0-3.15.715,7.278,7.278,0,0,0-2,1.42,7.277,7.277,0,0,0-.865,1.048s0,.011,0,.018a5.639,5.639,0,0,0,.219.58,6.972,6.972,0,0,0,.73,1.307,7.147,7.147,0,0,0,.81.964,7.271,7.271,0,0,0,1.876,1.358.019.019,0,0,0,.026-.011,1.773,1.773,0,0,1,.106-.223,2.528,2.528,0,0,1,.423-.573,1.9,1.9,0,0,1,.226-.2,2.281,2.281,0,0,1,.4-.252l.011-.018s0-.007-.007-.011c-.08-.084-.153-.168-.226-.255a.273.273,0,0,1-.044-.051,6.257,6.257,0,0,1-.405-.537,6.865,6.865,0,0,1-.518-.872.478.478,0,0,1,.073,0c.117-.007.237-.011.354-.011a6.873,6.873,0,0,1,.949.066c.234.029.467.073.7.124a.021.021,0,0,1,.015.026c-.044.175-.084.35-.132.526h.066a5.171,5.171,0,0,1,1.905.365l.066.036c.04.033.077.069.113.106l0,0,.011.015a2.658,2.658,0,0,1,.781,1.894,2.8,2.8,0,0,1-.044.489l-.011.062a2.71,2.71,0,0,1-.737,1.358,2.685,2.685,0,0,1-1.909.792,1.74,1.74,0,0,1-.241-.015,2.644,2.644,0,0,1-1.256-.442l-.044-.033a.542.542,0,0,1-.081-.1,1.637,1.637,0,0,1-.094-.139,31.184,31.184,0,0,1-3.72,6.545c-.007.011-.015.018-.022.029-.3.405-.61.8-.927,1.19-.011.015-.022.026-.033.04q-.986,1.2-2.081,2.3c-.182.186-.365.365-.551.54-.358.339-.719.672-1.091.993-.036.029-.069.062-.106.088-.179.153-.358.3-.537.453a.648.648,0,0,0-.08.062.37.37,0,0,0-.04.036,31.343,31.343,0,0,1-7.37,4.471q-1.248.542-2.551.975a.2.2,0,0,0,.095.391l16.721-2.27,26.288-3.453.358-.047a19.361,19.361,0,0,0,11-5.5,19.438,19.438,0,0,0,3.665-5.092l.058-.12a19.349,19.349,0,0,0,1.971-8.534A19.365,19.365,0,0,0,471.511-316.889Zm-9.687,9.472a7.25,7.25,0,0,1-2.135,5.154,7.251,7.251,0,0,1-5.154,2.135,7.266,7.266,0,0,1-5.158-2.135,7.315,7.315,0,0,1-1.544-2.274,7.278,7.278,0,0,1-.555-3.636,7.309,7.309,0,0,1,6.526-6.5,7.267,7.267,0,0,1,5.884,2.1,7.361,7.361,0,0,1,1.04,1.31A7.223,7.223,0,0,1,461.824-307.417Zm-25.7,5.074a.078.078,0,0,0-.029,0,1.042,1.042,0,0,1,.066.365,1.069,1.069,0,0,1-1.069,1.069,1.064,1.064,0,0,1-.968-.624l-.051-.109.047-.113a1.94,1.94,0,0,1,.412-.6,1.949,1.949,0,0,1,.986-.522c.044-.007.084-.015.124-.018a1.828,1.828,0,0,1,.58.018,1.939,1.939,0,0,1,.42.131c.047.022.095.044.142.069a2.1,2.1,0,0,0-.621-1.318l0,0-.037-.037a4.618,4.618,0,0,0-1.66-.31c-.073,0-.146,0-.212,0-.055.212-.117.423-.179.631a.086.086,0,0,0-.007.029q-.389,1.309-.891,2.562a4.249,4.249,0,0,0,.3.438l.015.022a2.112,2.112,0,0,0,.968.328,1.686,1.686,0,0,0,.19.011,2.152,2.152,0,0,0,1.522-.631,2.149,2.149,0,0,0,.588-1.073v-.007a1.247,1.247,0,0,0-.336-.215A1.086,1.086,0,0,0,436.123-302.344Zm-.7.055a.841.841,0,0,0-.186.08c-.03.015-.058.033-.088.051s-.084.055-.125.084-.076.066-.113.1a1.116,1.116,0,0,0-.109.124.411.411,0,0,0-.044.062c-.029.04-.054.08-.08.124a.524.524,0,0,0,.409.2.522.522,0,0,0,.522-.522.506.506,0,0,0-.121-.329v0A.493.493,0,0,0,435.426-302.289Z" transform="translate(-413.679 326.858)" fill="#f4444f"/>
    </g>
  </g>
  <g id="Group_33" data-name="Group 33" transform="translate(4.779 0)">
    <g id="Group_15" data-name="Group 15" transform="translate(21.917 17.253)">
      <g id="Group_14" data-name="Group 14">
        <path id="Path_16" data-name="Path 16" d="M472.37-282.231c-.011.073-.018.146-.026.219,0-.073.011-.146.015-.219Z" transform="translate(-472.344 282.231)" fill="#fff"/>
      </g>
    </g>
    <g id="Group_17" data-name="Group 17" transform="translate(21.917 17.253)">
      <g id="Group_16" data-name="Group 16">
        <path id="Path_17" data-name="Path 17" d="M472.37-282.231c-.011.073-.018.146-.026.219,0-.073.011-.146.015-.219Z" transform="translate(-472.344 282.231)" fill="#fff"/>
      </g>
    </g>
    <g id="Group_19" data-name="Group 19" transform="translate(21.917 17.253)">
      <g id="Group_18" data-name="Group 18">
        <path id="Path_18" data-name="Path 18" d="M472.37-282.231c-.011.073-.018.146-.026.219,0-.073.011-.146.015-.219Z" transform="translate(-472.344 282.231)" fill="#fff"/>
      </g>
    </g>
    <g id="Group_21" data-name="Group 21" transform="translate(55.111 6.003)">
      <g id="Group_20" data-name="Group 20">
        <path id="Path_19" data-name="Path 19" d="M563.751-313.051c-.157.08-.314.172-.467.263" transform="translate(-563.284 313.051)" fill="#fff"/>
      </g>
    </g>
    <g id="Group_23" data-name="Group 23" transform="translate(61.342 14.614)">
      <g id="Group_22" data-name="Group 22">
        <path id="Path_20" data-name="Path 20" d="M580.743-281.6a19.333,19.333,0,0,0,.175-2.617,19.49,19.49,0,0,0-.566-4.669l1.427-.069.186-.011,8.691-.438.449-.022.756-.037a4.667,4.667,0,0,0-.069.818,4.776,4.776,0,0,0,.62,2.369Z" transform="translate(-580.353 289.461)" fill="#fff"/>
      </g>
    </g>
    <g id="Group_25" data-name="Group 25" transform="translate(73.95 11.785)">
      <g id="Group_24" data-name="Group 24">
        <path id="Path_21" data-name="Path 21" d="M619.415-293.513a2.384,2.384,0,0,1-.117.741,2.418,2.418,0,0,1-.876,1.219,2.4,2.4,0,0,0-.912-.533,2.4,2.4,0,0,0-1.953.212,1.7,1.7,0,0,0-.219.139c-.007.007-.015.011-.018.015l-.044.033a1.381,1.381,0,0,1-.066-.172,4.732,4.732,0,0,1-.274-1.091,4.765,4.765,0,0,1-.04-.6,5.169,5.169,0,0,1,.077-.883,4.614,4.614,0,0,1,.168-.657,4.834,4.834,0,0,1,1.179-1.913c.069-.069.142-.139.219-.2a2.4,2.4,0,0,1,.358,1.27,2.421,2.421,0,0,1-.35,1.256,2.347,2.347,0,0,1,1.186-.38.7.7,0,0,1,.124-.007,2.378,2.378,0,0,1,1.227.336A2.42,2.42,0,0,1,619.415-293.513Z" transform="translate(-614.896 297.211)" fill="#fff"/>
      </g>
    </g>
    <g id="Group_27" data-name="Group 27" transform="translate(21.917 17.253)">
      <g id="Group_26" data-name="Group 26">
        <path id="Path_22" data-name="Path 22" d="M472.37-282.231c-.011.073-.018.146-.026.219,0-.073.011-.146.015-.219Z" transform="translate(-472.344 282.231)" fill="#fff"/>
      </g>
    </g>
    <g id="Group_29" data-name="Group 29" transform="translate(21.931 17.253)">
      <g id="Group_28" data-name="Group 28">
        <path id="Path_23" data-name="Path 23" d="M472.4-282.231h-.011" transform="translate(-472.384 282.231)" fill="#fff"/>
      </g>
    </g>
    <g id="Group_32" data-name="Group 32">
      <g id="Group_30" data-name="Group 30">
        <path id="Path_24" data-name="Path 24" d="M434.616-303.987v0a.5.5,0,0,0-.065.026.846.846,0,0,0-.186.08c-.03.015-.058.033-.088.051s-.084.055-.124.084-.076.066-.113.1a1.114,1.114,0,0,0-.109.124.4.4,0,0,0-.044.062c-.029.04-.054.08-.08.124a.524.524,0,0,0,.409.2.522.522,0,0,0,.522-.522A.506.506,0,0,0,434.616-303.987Zm.143-.595-.117.022c.044-.007.084-.015.124-.018Zm35.877-13.984a19.392,19.392,0,0,0-3.2-4.679c-.128-.139-.255-.274-.387-.405l0,0a19.394,19.394,0,0,0-13.892-5.844h0a19.361,19.361,0,0,0-13.743,5.694,19.383,19.383,0,0,0-5.523,11.155.036.036,0,0,1,0,.018c-.015.131-.033.266-.047.4.007-.073.015-.146.022-.215s.011-.146.014-.219h-.011c-.135-.007-.266-.011-.4-.011a7.264,7.264,0,0,0-3.15.715,7.287,7.287,0,0,0-2,1.42,6.922,6.922,0,0,0-.865,1.048.016.016,0,0,0,0,.018,6.99,6.99,0,0,0,.723,1.544c.073.117.146.23.226.343a7.171,7.171,0,0,0,.81.964,7.17,7.17,0,0,0,1.876,1.354.016.016,0,0,0,.026-.007,2.392,2.392,0,0,1,.529-.8,2.375,2.375,0,0,1,.456-.358c.054-.033.113-.062.168-.091.011-.007.015-.022,0-.029a7.067,7.067,0,0,1-.617-.756,6.932,6.932,0,0,1-.577-.96c.142-.011.285-.015.427-.015a7.3,7.3,0,0,1,1.643.19c.011,0,.018.015.018.026-.065.274-.135.544-.208.814q-.1.378-.208.745h.007c.062-.011.142-.026.226-.033l.106-.011c.139-.015.285-.022.449-.026h.066a5.171,5.171,0,0,1,1.905.365l.066.037c.04.033.077.069.113.106l0,0,.011.015a2.658,2.658,0,0,1,.781,1.894,2.8,2.8,0,0,1-.044.489l-.011.062a2.711,2.711,0,0,1-.737,1.358,2.685,2.685,0,0,1-1.909.792,1.744,1.744,0,0,1-.241-.015,2.643,2.643,0,0,1-1.256-.442l-.044-.033a.536.536,0,0,1-.081-.1,1.623,1.623,0,0,1-.094-.139,4.41,4.41,0,0,1-.518-.931,31.317,31.317,0,0,1-3.7,6.512c-.007.011-.015.018-.022.029-.3.405-.61.8-.927,1.19-.011.015-.022.026-.033.04q-.985,1.2-2.08,2.3c-.182.186-.365.365-.552.54-.357.339-.719.672-1.091.993-.036.029-.069.062-.106.088-.179.153-.358.3-.537.453a.7.7,0,0,0-.08.062.334.334,0,0,0-.04.036,31.368,31.368,0,0,1-9.921,5.442.2.2,0,0,0,.095.394l2.961-.4,13.761-1.869,26.288-3.453.358-.047a19.362,19.362,0,0,0,11-5.5,19.433,19.433,0,0,0,3.664-5.092l.059-.12a19.344,19.344,0,0,0,1.971-8.534A19.373,19.373,0,0,0,470.635-318.566ZM458.309-304.9a7.251,7.251,0,0,1-5.154,2.135A7.266,7.266,0,0,1,448-304.9a7.239,7.239,0,0,1-1.04-1.31,7.258,7.258,0,0,1-1.058-4.6,7.309,7.309,0,0,1,6.526-6.5,7.267,7.267,0,0,1,5.884,2.1,7.274,7.274,0,0,1,1.544,2.274,7.281,7.281,0,0,1,.591,2.88A7.251,7.251,0,0,1,458.309-304.9Z" transform="translate(-412.3 329.498)" fill="#fff"/>
      </g>
      <g id="Group_31" data-name="Group 31" transform="translate(19.388 23.47)">
        <path id="Path_25" data-name="Path 25" d="M469.268-263.1a1.245,1.245,0,0,1,.336.215v.007a2.148,2.148,0,0,1-.588,1.073,2.152,2.152,0,0,1-1.522.631,1.692,1.692,0,0,1-.19-.011,2.113,2.113,0,0,1-.968-.328l-.015-.022a4.24,4.24,0,0,1-.3-.438,4.478,4.478,0,0,1-.3-.61l-.058-.146c-.015-.036-.026-.073-.04-.109s-.022-.08-.037-.12-.018-.062-.025-.091c-.015-.055-.029-.113-.044-.172l-.008-.033c0-.011,0-.018-.007-.018-.011-.055-.022-.106-.033-.175l-.015-.073a1.118,1.118,0,0,1-.015-.113,1.967,1.967,0,0,1-.03-.252,2.062,2.062,0,0,1,.555-.964,1.989,1.989,0,0,1,.256-.223l.055-.011a.672.672,0,0,1,.091-.018c.051-.011.106-.026.182-.036l.124-.022c.014,0,.033,0,.044,0l.135-.015c.077-.007.157-.015.245-.018.066,0,.138,0,.212,0a4.618,4.618,0,0,1,1.66.31l.037.037,0,0a2.1,2.1,0,0,1,.621,1.318c-.047-.026-.095-.047-.142-.069a1.94,1.94,0,0,0-.42-.131,1.827,1.827,0,0,0-.58-.018l-.007,0-.117.022a1.949,1.949,0,0,0-.986.522,1.942,1.942,0,0,0-.412.6l-.047.113.051.11a1.064,1.064,0,0,0,.968.624,1.069,1.069,0,0,0,1.069-1.07,1.04,1.04,0,0,0-.066-.365.078.078,0,0,1,.029,0A1.088,1.088,0,0,1,469.268-263.1Z" transform="translate(-465.417 265.198)" fill="#fff"/>
      </g>
    </g>
  </g>
</svg>
