<svg xmlns="http://www.w3.org/2000/svg" width="49.519" height="90.593" viewBox="0 0 49.519 90.593">
  <g id="Vector_Smart_Object" data-name="Vector Smart Object" transform="translate(-150.953 -170.512)">
    <g id="Group_92" data-name="Group 92">
      <g id="Group_61" data-name="Group 61">
        <g id="Group_60" data-name="Group 60">
          <path id="Path_525" data-name="Path 525" d="M158.418,243.639l-2.3,2.579-1.062,1.191a1.193,1.193,0,0,0,.028,1.621l4,4.207c.019.02.039.039.06.057a.864.864,0,0,0,1.1.02.815.815,0,0,0,.225-1.005l-1.461-2.915a.941.941,0,0,1-.1-.427.691.691,0,0,1,.173-.463c.032-.054.1-.075.144-.122l2-2.2Z" fill="#f9a183"/>
        </g>
      </g>
      <g id="Group_63" data-name="Group 63">
        <g id="Group_62" data-name="Group 62">
          <path id="Path_526" data-name="Path 526" d="M156.1,246.2l-1.054,1.2a1.2,1.2,0,0,0,.032,1.624l4,4.209c.019.02.04.04.061.058a.865.865,0,0,0,1.1.02.815.815,0,0,0,.225-1l-1.461-2.915a.939.939,0,0,1-.1-.427,13.534,13.534,0,0,0-2.225-2.345A4.437,4.437,0,0,0,156.1,246.2Z" fill="#013955"/>
        </g>
      </g>
      <g id="Group_64" data-name="Group 64">
        <path id="Path_527" data-name="Path 527" d="M179.565,228.829c-4.525,7.349-11.1,12.085-17.815,17.336a1.528,1.528,0,0,1-1.772.08,16.261,16.261,0,0,1-1.629-1.224,1.444,1.444,0,0,1-.228-1.961c2.256-3.074,5.367-4.927,7.777-7.886a29.611,29.611,0,0,0,5.256-9.746,27.815,27.815,0,0,0,1.333-8.539c-.011-1.5-1.321-5.759.365-6.691,1.124-.621,4.634.36,5.925.487.916.09,3.46-.111,4.171.41.894.653.614,2.331.569,3.43A30.956,30.956,0,0,1,179.565,228.829Z" fill="#41657c"/>
      </g>
      <g id="Group_66" data-name="Group 66">
        <g id="Group_65" data-name="Group 65">
          <path id="Path_528" data-name="Path 528" d="M170.568,220.2c-.348-1.665-2.231-1.918-4.059-2.232-.958-.165-1.933-.281-2.908-.4l-6.63-1.688a2.042,2.042,0,0,0-1.334-.363c-.018,0-.035.012-.053.017a1.749,1.749,0,0,0-1.721.7,2.625,2.625,0,0,0-1.18,1.677,35.585,35.585,0,0,0-1.114,3.56,12.813,12.813,0,0,0-.407,3.376c.01.318.013.667.29.861.015.048.029.1.046.142-.02.121-.04.242-.06.363a1.427,1.427,0,0,0,.068.965,1.384,1.384,0,0,0,.583.461,33.28,33.28,0,0,0,13.874,3.757c.12.006.238.011.357.014,1.085.039,1.906-1.268,2.163-2.231.685-2.553,1.765-5.244,2.106-7.861A3.356,3.356,0,0,0,170.568,220.2Zm-19,4.171-.073.274c0-.261.033-.525.043-.7.01-.143.022-.284.035-.426,0,.015,0,.028,0,.042a.164.164,0,0,0,.014.074,6.329,6.329,0,0,0-.036.658A.149.149,0,0,0,151.57,224.375Zm1.708-6.93a.135.135,0,0,0-.032-.038c.036-.075.073-.148.115-.218C153.333,217.274,153.307,217.359,153.279,217.445Z" fill="#b97b6e"/>
        </g>
      </g>
      <g id="Group_68" data-name="Group 68">
        <g id="Group_67" data-name="Group 67">
          <path id="Path_529" data-name="Path 529" d="M158.063,217.429c.952-1.734,1.984-3.56,3.377-4.473a2.537,2.537,0,0,1,3.547.388,5.023,5.023,0,0,1,.195,4.817l-.754.028a3.585,3.585,0,0,0-.235-3.494,1.9,1.9,0,0,0-2.623-.189,5.687,5.687,0,0,0-2.02,3.1l-1.555-.524Z" fill="#b97b6e"/>
        </g>
      </g>
      <g id="Group_70" data-name="Group 70">
        <g id="Group_69" data-name="Group 69">
          <path id="Path_530" data-name="Path 530" d="M150.953,224.572a2.727,2.727,0,0,0,1.645,1.348,45.367,45.367,0,0,0,12.82,3.413c0,.274-.365.362-.639.357a27.811,27.811,0,0,1-10.994-2.525,7.746,7.746,0,0,1-2.526-1.655c-.143-.154-.131-.53.058-.438Z" fill="#9e5f4b"/>
        </g>
      </g>
      <g id="Group_71" data-name="Group 71">
        <path id="Path_531" data-name="Path 531" d="M200.417,216.538c-.006.035-.013.069-.02.1-2.824.615-5.239-2.279-6.537-4.274-.943-1.449-2.155-2-3.363-3.292-3.327-3.548-3.121-7.663-5.365-11.587a38.7,38.7,0,0,1-3.514-8.228,3.872,3.872,0,0,1-.059-2.847c.684-1.322,2.683-1.512,3.982-.744a7.234,7.234,0,0,1,2.636,3.531c1.639,3.724,1.9,7.544,3.045,11.307.525,1.722,1.842,3.5,2.611,5.162q.266.577.544,1.133c.426.851.895,1.765,1.421,2.636a15.12,15.12,0,0,0,1.339,1.915c.309.368,1.336.922,2.231,1.683a6.882,6.882,0,0,1,.994,1.977A3.7,3.7,0,0,1,200.417,216.538Z" fill="#f9a183"/>
      </g>
      <g id="Group_73" data-name="Group 73">
        <g id="Group_72" data-name="Group 72">
          <path id="Path_532" data-name="Path 532" d="M189.051,250.546l.687,3.48-.088,1.607a1.093,1.093,0,0,0,1.05,1.171l5.839.331c.028,0,.056,0,.084,0a.967.967,0,0,0,.885-.744.753.753,0,0,0-.458-.893l-3.007-1.134a.857.857,0,0,1-.352-.244.8.8,0,0,1-.063-.085.815.815,0,0,1-.094-.373c-.009-.062.033-.125.037-.189l-.682-3Z" fill="#f9a183"/>
        </g>
      </g>
      <g id="Group_75" data-name="Group 75">
        <g id="Group_74" data-name="Group 74">
          <path id="Path_533" data-name="Path 533" d="M189.465,254.691l.171,1.572a1.094,1.094,0,0,0,1.241.969l5.92-.611c.028,0,.058-.008.085-.013a.976.976,0,0,0,.774-.864.736.736,0,0,0-.6-.794l-3.2-.621a.869.869,0,0,1-.391-.181,14.264,14.264,0,0,0-3.3.337A4.822,4.822,0,0,0,189.465,254.691Z" fill="#41657c"/>
        </g>
      </g>
      <g id="Group_76" data-name="Group 76">
        <path id="Path_534" data-name="Path 534" d="M181.834,178.732a2.7,2.7,0,0,1,.867,1.022,1.383,1.383,0,0,1-.057,1.288,1.009,1.009,0,0,1-1.192.4,1.776,1.776,0,0,1,.051-.895l.441-1.9c.01-.042-.055.021-.022.049Z" fill="#865843"/>
      </g>
      <g id="Group_78" data-name="Group 78">
        <g id="Group_77" data-name="Group 77">
          <path id="Path_535" data-name="Path 535" d="M193.645,261.105l-.006-.006.025-.01Z" fill="#41657c"/>
        </g>
      </g>
      <g id="Group_79" data-name="Group 79">
        <path id="Path_536" data-name="Path 536" d="M188.06,250.182q.176.8.317,1.619c.266,1.545,5.015.453,4.961-1.207-.1-3.054-.233-6.985-.654-9.976-.907-6.453-2.741-12.767-6.2-18.062-1.472-2.255-3.421-4.078-4.993-6.245a11.238,11.238,0,0,1-2.246-6.138c-1.274-1.38-3.65-1.873-5.751-1.983a5.72,5.72,0,0,0-3.224.513c-.038.02-.076.043-.115.067a2.291,2.291,0,0,0-1.049,2.457c-.024.064-.046.127-.066.191-2.188,6.879,3.864,13.519,8,17.784A42.744,42.744,0,0,1,188.06,250.182Z" fill="#41657c"/>
      </g>
      <g id="Group_80" data-name="Group 80">
        <path id="Path_537" data-name="Path 537" d="M185.506,196.725q-.356,1.1-.712,2.205a2.1,2.1,0,0,0,.186,2.045c1.5,3.093,3.427,5.141,5.562,7.752a20.029,20.029,0,0,0,2.236,2.991c1.721,1.46,2.2.234,4.063-.627,0-1.381-1.068-1.8-1.068-2.93-.186-.371-1.763-2.106-1.94-2.491-.769-1.662-4.017-12.745-5.656-16.469-.132-.3-.271-.6-.421-.9-.173-3.04-2.61-5.52-5.236-7.174-1.712-1.079-3.657-.184-5.441.147a13.7,13.7,0,0,0-5.98,2.692,5.953,5.953,0,0,0-1.867,2.207,7.158,7.158,0,0,0-.456,2.093,89.278,89.278,0,0,0-.549,14.952c.093,1.53.493,3.145.452,4.668-.033,1.226-.567,2.306.18,3.494.816,1.3,3.01,2.039,4.409,2.4,2.758.714,5.725,1.421,8.407.472,1.835-.649,2.391-1.137,2.694-2.819a26.058,26.058,0,0,0,.508-5.117c0-.057-.007-.115-.009-.173a52.012,52.012,0,0,1,.564-8.1c1.931,3.754,1.894,7.65,5.066,11.031.129.138.251.273.367.405Z" fill="#dfecfe"/>
      </g>
      <g id="Group_81" data-name="Group 81">
        <path id="Path_538" data-name="Path 538" d="M163.662,207.734c.041-1.018.172-2.051.313-3.075-1.412.109-2.872.5-4.29.728a19.619,19.619,0,0,0,.4,2.318,9.307,9.307,0,0,1,.276,3.633c-.038.184-.44,1.242-.777,2.334l.006.015c.038.073.08.142.119.214.012.023.061.089.082.118.062.063.149.145.187.182s.133.087.134.088c.058.034.118.063.177.093-.222-.112.191.059.284.081.068.017.136.029.2.043l.02,0h.027a6.145,6.145,0,0,0,1-.017l.025,0,.054-.01c.1-.017.193-.034.288-.053q.261-.053.518-.122c.139-.037.277-.078.413-.122,1.124-1.879.8-2.511.591-4.518A13.257,13.257,0,0,1,163.662,207.734Z" fill="#f9a183"/>
      </g>
      <g id="Group_82" data-name="Group 82">
        <path id="Path_539" data-name="Path 539" d="M183.18,175.467a20.643,20.643,0,0,0-3.467,3.643c-1.263,1.484-1.288,2.175.615,3.4,1.067.689,2.7,1.817,3.84.988.711-.517,1.255-2.738,1.546-3.542.415-1.148,1.926-5.118-.442-5.28A3.374,3.374,0,0,0,183.18,175.467Z" fill="#f9a183"/>
      </g>
      <g id="Group_83" data-name="Group 83">
        <path id="Path_540" data-name="Path 540" d="M189.772,172.266a2.149,2.149,0,0,0-.342-.833,2.027,2.027,0,0,0-.722-.612c-1.49-.771-3.31.164-4.987-.013a4.8,4.8,0,0,0-1.961-.107,2.3,2.3,0,0,0-.96.7c-.065.072-.129.147-.19.223a3.519,3.519,0,0,0-1.217,3.018,5.887,5.887,0,0,0,.65,2.341,13.849,13.849,0,0,1,.769,1.642c.074.023.149.046.224.065.035.008.274.053.282.06.145.016.292.023.438.026a7.6,7.6,0,0,0,.893-.046,8.146,8.146,0,0,0,1.195-.257c.052-.029.1-.058.156-.088q.332-.359.678-.7a11.387,11.387,0,0,1,2.047-1.548c.288-.18.591-.349.891-.522h0l.2-.116C189.028,174.782,190.112,173.986,189.772,172.266Z" fill="#865843"/>
      </g>
      <g id="Group_84" data-name="Group 84">
        <path id="Path_541" data-name="Path 541" d="M186.78,181.829c.274-.495.544-.993.829-1.481a5.406,5.406,0,0,0,.719-2.942,36.331,36.331,0,0,0-.352-3.654.551.551,0,0,0-.86-.359,4.71,4.71,0,0,1-1.744.984,8.915,8.915,0,0,1-2.146.008.3.3,0,0,0-.337.294l.052,2.421a.3.3,0,0,1-.075.2.214.214,0,0,1-.338-.026l-.151-.224a1.15,1.15,0,0,0-.613-.455l-.216-.067a.5.5,0,0,0-.666.39.919.919,0,0,0,.388,1l.486.15v.816a.819.819,0,0,0,.117.42A5.159,5.159,0,0,0,186.78,181.829Z" fill="#f9a183"/>
      </g>
      <g id="Group_85" data-name="Group 85">
        <path id="Path_542" data-name="Path 542" d="M177.248,187.077a15.913,15.913,0,0,1-3.321,3.29c-2.2,1.742-5.038,3.108-6.941,5.093a11.1,11.1,0,0,0-2.681,6.7c-.2,1.81-.568,3.717-.643,5.573-.01.261-2.42.207-2.67.144-1.094-.281-1.1-.3-1.677-1.191a9.386,9.386,0,0,1-.94-4.669c-.009-4.177,2.54-8.559,4.976-11.87a22.1,22.1,0,0,1,7.094-6.219c1.585-.874,5.5-3.1,7.321-1.795C179.4,183.308,178.118,185.816,177.248,187.077Z" fill="#dfecfe"/>
      </g>
      <g id="Group_86" data-name="Group 86">
        <path id="Path_543" data-name="Path 543" d="M166.02,207.689l.136-.135c-.023.047-.046.094-.066.141l-.037,0Z" fill="#013955"/>
      </g>
      <g id="Group_87" data-name="Group 87">
        <path id="Path_544" data-name="Path 544" d="M185.534,185.294l.008-.023a4.343,4.343,0,0,0-1.626-.609c-.995-.023-1.012.943-1.761,1.3-1.043.493-2.092-.453-2.819-1.069a25.341,25.341,0,0,1-2.266-2.185c-.145-.157-.382.075-.238.232a25.3,25.3,0,0,0,2.422,2.317,3.792,3.792,0,0,0,2.3,1.16,1.692,1.692,0,0,0,.942-.266c.36-.241.47-.66.782-.935.576-.508,1.341-.027,1.895.253.1.052.2.1.306.143A1.518,1.518,0,0,1,185.534,185.294Z" fill="#c9dcf2"/>
      </g>
      <g id="Group_88" data-name="Group 88">
        <path id="Path_545" data-name="Path 545" d="M186.922,191.123c-.257,1.695-.459,3.409-.782,5.093a7.156,7.156,0,0,1-.863,2.1,3.015,3.015,0,0,0-.473,1.735c.019.208.355.211.336,0a3.722,3.722,0,0,1,.725-2.1,5.771,5.771,0,0,0,.632-1.828c.283-1.63.5-3.273.749-4.908C187.278,191,186.954,190.915,186.922,191.123Z" fill="#c9dcf2"/>
      </g>
      <g id="Group_89" data-name="Group 89">
        <path id="Path_546" data-name="Path 546" d="M182.529,198.6c.008-.295.006-.59,0-.885a15.144,15.144,0,0,1-.644,1.447c-.637,1.555-.127,3.261-.534,4.856-.36,1.412-1.31,2.6-1.72,3.992a4.541,4.541,0,0,0-.068,2.2c.19.975.588,2.006.126,2.964-.091.19.2.356.29.165.661-1.371-.2-2.742-.2-4.147,0-1.532,1.016-2.841,1.587-4.208.629-1.5.359-3.016.546-4.585a5.852,5.852,0,0,1,.606-1.769Z" fill="#c9dcf2"/>
      </g>
      <g id="Group_90" data-name="Group 90">
        <path id="Path_547" data-name="Path 547" d="M184.81,186.167a13.942,13.942,0,0,1-.88-1.174,6.693,6.693,0,0,0-.79,1.338,1.678,1.678,0,0,0,.405.705.117.117,0,0,0,.049.026,2.35,2.35,0,0,0,.262.289,8.853,8.853,0,0,1-1.9,4.7q-.246.33-.5.65a13.433,13.433,0,0,1-1.292,1.629c-.213.232-.436.461-.664.689-.486.559-.972,1.117-1.443,1.692a7.213,7.213,0,0,0-1.928,4.2c.262.653.5,1.318.723,1.991a8.807,8.807,0,0,1,1.838-2.789q.1-.11.2-.212c.541-.56,1.1-1.063,1.615-1.512.313-.276.63-.543.949-.808a10.42,10.42,0,0,0,1.274-1.936,16.252,16.252,0,0,0,1.6-7.869A4.009,4.009,0,0,0,184.81,186.167Zm-.594.106-.01-.091c.017-.073.038-.145.062-.216C184.254,186.069,184.238,186.172,184.215,186.273Z" fill="#87acbf"/>
      </g>
      <g id="Group_91" data-name="Group 91">
        <path id="Path_548" data-name="Path 548" d="M174.857,190.842l-3.953,1.946c-.626.308-1.253.614-1.878.925a1.66,1.66,0,0,0-.961.874c-.076.2.249.291.324.09.212-.564,1.108-.821,1.6-1.062l1.68-.828,3.36-1.655C175.221,191.037,175.051,190.747,174.857,190.842Z" fill="#c9dcf2"/>
      </g>
    </g>
  </g>
</svg>
