<svg xmlns="http://www.w3.org/2000/svg" width="98.979" height="81.716" viewBox="0 0 98.979 81.716">
  <g id="Vector_Smart_Object" data-name="Vector Smart Object" transform="translate(-217.011 -173.143)">
    <g id="Group_59" data-name="Group 59">
      <path id="Path_499" data-name="Path 499" d="M259.505,244.342l-4.432,5.873s-1.053,1.274-1.884,1.385a3.959,3.959,0,0,1-2.308-.368c-.562-.321-.54-1.727.361-1.686,0,0,1.318.247,1.731-.461s3.067-6.232,3.067-6.232Z" fill="#63352f"/>
      <path id="Path_500" data-name="Path 500" d="M240.9,250.456c.189.067,7.493,2.4,7.79.735.121-.68-.58-1.232-1.729-1.3-1.031.036-3.574-.755-4.1-1.8.469-1.033.434-2.593-1.121-5.8a10.015,10.015,0,0,0-3.164-4.017c-1.783,1.272-6.5,4.891-5.247,7.7,1.919,1.157,6.814.838,7.276,3.491C240.512,250.121,240.27,250.232,240.9,250.456Z" fill="#63352f"/>
      <path id="Path_501" data-name="Path 501" d="M267.725,228.06a2.919,2.919,0,0,0-2.495-2.275c-1.782-.137-2.824-.3-3.757.96s-7.038,6.793-17.136,5.63-13.465,1.911-14.337,3.075c-2.66.956-6.15,1.122-7.023-1.081-.79-1.662,1-2.369,2.369-1.538,0,0,1.164-2.95-2.95-2.493a1.05,1.05,0,0,0,0-1.662,3.328,3.328,0,0,1-1.5,1.379c-.447.141-3.225,1.083-3.107,3.249a.615.615,0,0,1-.518-.636s-1.687,4.652,3.59,6.605,6.192.374,6.192.374.291,7.355-3.657,8.311c-.623.208-.831.042-.748.706s.706,3.033.79,3.74,0,1.663.748,2.078a1.869,1.869,0,0,0,2.244,0c.831-.582-.083-1.33-.79-1.579-.752-.539-.992-3.265-.294-4.2,1.134-.043,3.536.629,6.154-.285s3.615-3.657,3.989-5.07,1-1.7,1.621-1.579,11.885,3.948,18.908,1.579c1.953,1.663,4.239,2.12,4.945,2.743s5.194,5.693,6.025,6.358a4.954,4.954,0,0,0,2.327,1.372c.748.042,1.953-.665,1.039-1.33s-4.488-3.723-4.987-5.04a48.458,48.458,0,0,1-3.574-7.172c.873-.712,2.659-5.574,2.659-6.156,1.205-.582,2.036-1.039,2.036-1.039s3.781,2,4.655-2.3c.166-1.061-.208-1.435-1.164-1.435A2.221,2.221,0,0,1,267.725,228.06Z" fill="#824941"/>
      <path id="Path_502" data-name="Path 502" d="M257.508,229.861c1.269,3.979,3.577,6.075,6.283,6.4" fill="none" stroke="#2e2c3e" stroke-miterlimit="10" stroke-width="1.3"/>
      <path id="Path_503" data-name="Path 503" d="M263.3,236.231c12.935,4.9,9.441-6.372,15.035-12.382,3.288-3.532,6,1.843,6,1.843,1.914,3.146,2.321,8.855-.095,8.855-2.725,0-2.265-5.908.095-8.855" fill="none" stroke="#2e2c3e" stroke-miterlimit="10" stroke-width="0.65"/>
      <path id="Path_504" data-name="Path 504" d="M283.24,220.327c.041,1.52.037,3.214-.973,3.957s-2.952-.289-3.117-.619a10.964,10.964,0,0,1,1.239-4.131C280.927,218.832,283.24,220.327,283.24,220.327Z" fill="#ffa48e"/>
      <path id="Path_505" data-name="Path 505" d="M279.3,244.5l6.389,8.4a2.262,2.262,0,0,0,.741-.053c.47-.112.955-.451.708-1.386-.441-1.677-2.564-5.714-1.992-6.955s-1.4-3.039-2.307-2.375l-2.821,1.89Z" fill="#63352f"/>
      <path id="Path_506" data-name="Path 506" d="M299.263,250.5l1.262,3.262.276.713,8.012-3.975a2.345,2.345,0,0,0,.108-.517c.047-.525-.085-1.254-1.2-1.214-1.731.065-4.55.831-5.638,0S298.815,249.48,299.263,250.5Z" fill="#63352f"/>
      <path id="Path_507" data-name="Path 507" d="M303.214,216.124c-.895,4.14-1.008,12.363-6.493,17.369-5.405,6.674-11.007,13.228-11.007,13.228l-3.3-4.409,13.1-21.646Z" fill="#2e2c3e"/>
      <path id="Path_508" data-name="Path 508" d="M298.625,219.311c-.044,2.078-.425,2.988-1.9,2.86l6.493,26.218-4.47,2.979s-11.679-26.078-12.156-27.34a8.965,8.965,0,0,1,.611-8.779C289.806,211.087,298.75,213.413,298.625,219.311Z" fill="#434057"/>
      <path id="Path_509" data-name="Path 509" d="M312.857,216.96c-.324-.487-.81-1.352-.81-1.352l-2.322,1.366s1.693,2.643,1.93,3.219c1.528,3.713,4.082,3.754,4.311,2.056a5.514,5.514,0,0,0-.484-2.646C315.1,218.737,313.63,218.119,312.857,216.96Z" fill="#ffa48e"/>
      <path id="Path_510" data-name="Path 510" d="M313.182,216.306c-.825.05-9.967-14.96-11.907-21.664-1.347-4.656-5.4-1.055-4.4,2.036s11.721,20.4,13.446,21.251C311.636,218.16,313.156,217.351,313.182,216.306Z" fill="#19556c"/>
      <path id="Path_511" data-name="Path 511" d="M285.409,211.39a5.54,5.54,0,0,0,.929,2.939c.136.155.272.306.411.454,5.575,5.972,13.077,6.217,15.424,4.456,6.8-4.97,3.633-12.041,1.436-16.049-.11-.2-.218-.394-.321-.578-.055-.1-.108-.193-.161-.284a14.515,14.515,0,0,1-.954-1.83c-.281-.843-.514-1.893-.833-3.082a22.339,22.339,0,0,0-2.473-6.037,7.925,7.925,0,0,0-8.551.59C286.973,194.548,284.8,205.71,285.409,211.39Z" fill="#1e617b"/>
      <path id="Path_512" data-name="Path 512" d="M298.528,177.866c1.017,3.393,1.682,4.566,1.73,7.066s-6.922,3.124-8.652.721c-.721-3.316-.865-4.566-.721-5.623a3.821,3.821,0,0,1,3.8-2.98A5.687,5.687,0,0,1,298.528,177.866Z" fill="#ffa48e"/>
      <path id="Path_513" data-name="Path 513" d="M300.259,183.974c-.144.166-.121.482-1.215-.4a1.67,1.67,0,0,0-2.059.16,3.867,3.867,0,0,1-3.09,1.068,5.17,5.17,0,0,1-2.971-1.967,39.113,39.113,0,0,0-.608,6.115c0,1.887,1.018,4.115,3.137,4.552s6.674.395,8.655-1.538C303.03,190.94,301.3,189.118,300.259,183.974Z" fill="#9d9aae"/>
      <path id="Path_514" data-name="Path 514" d="M299.7,175.247c.21,1.367.105,3.331-1.963,3.226s-3.73-.626-3.568.382c.282,1.761-.031,3.967-2.291,3.239-.984-.317-.574,1.487-.617,1.484a7.12,7.12,0,0,1-.888-4.021c.316-1.926.6-2.873,1.509-3.224s1.718-.14,2.84-1.087,1.508-2.1,3.016-2.1S299.7,175.247,299.7,175.247Z" fill="#9d9aae"/>
      <path id="Path_515" data-name="Path 515" d="M297.437,204.436l2.594-4.531-3.386-4.081-2.39,4.738Z" fill="#00abc4"/>
      <path id="Path_516" data-name="Path 516" d="M291.662,205.093l2.594-4.53-3.386-4.081-2.39,4.738Z" fill="#00abc4"/>
      <path id="Path_517" data-name="Path 517" d="M300.031,200.009l3.182,3.873.4-.691a28.568,28.568,0,0,1-1.436-2.693c-.281-.843-.514-1.893-.833-3.082Z" fill="#00abc4"/>
      <rect id="Rectangle_1" data-name="Rectangle 1" width="0.138" height="10.031" transform="matrix(-0.997, 0.081, -0.081, -0.997, 297.547, 205.263)"/>
      <rect id="Rectangle_2" data-name="Rectangle 2" width="0.138" height="10.031" transform="matrix(-0.997, 0.081, -0.081, -0.997, 291.791, 205.642)"/>
      <path id="Path_518" data-name="Path 518" d="M303.126,202.328l.18,2.212.138-.012-.156-1.916C303.233,202.514,303.179,202.419,303.126,202.328Z"/>
      <rect id="Rectangle_3" data-name="Rectangle 3" width="0.138" height="10.031" transform="matrix(0.081, 0.997, -0.997, 0.081, 302.068, 199.796)"/>
      <path id="Path_519" data-name="Path 519" d="M285.409,211.39a5.54,5.54,0,0,0,.929,2.939c.136.155,1.093,1.132,1.231,1.28-.985-1.6,1.292-14.277,1.316-15.761a36.545,36.545,0,0,0-2.024,5.247Z" fill="#19556c"/>
      <rect id="Rectangle_4" data-name="Rectangle 4" width="0.138" height="10.031" transform="matrix(0.081, 0.997, -0.997, 0.081, 297.246, 200.176)"/>
      <path id="Path_520" data-name="Path 520" d="M288.48,202.077s-2.935,15.2-4.74,18.117c-1.2.779-2.071.579-3.474-.49.267-2.606,3.62-19.547,5.393-23.222a8.4,8.4,0,0,1,4.657-4.513Z" fill="#1e617b"/>
      <line id="Line_1" data-name="Line 1" x2="8.702" y2="1.36" transform="translate(227 241.347)" fill="none"/>
      <path id="Path_521" data-name="Path 521" d="M263.414,228.56s2.771,3.154.475,5.212-3.8-.633-3.8-.633l1.346-4.579S262.477,227.1,263.414,228.56Z" fill="#63352f"/>
      <path id="Path_522" data-name="Path 522" d="M300.525,253.766l.276.713,8.012-3.975a2.345,2.345,0,0,0,.108-.517Z" fill="#ffd9d7"/>
      <path id="Path_523" data-name="Path 523" d="M279.3,244.5l6.389,8.4a2.262,2.262,0,0,0,.741-.053l-6.413-8.826Z" fill="#ffd9d7"/>
      <path id="Path_524" data-name="Path 524" d="M314.64,218.737a3.557,3.557,0,0,1,.331,2.062c-.28.738-.79,0-.79,0s-.127-1.018-.306-1.12-1.146-.433-1.273-.942-.042-.944.578-1.044S314.489,218.357,314.64,218.737Z" fill="#e47761"/>
    </g>
  </g>
</svg>
