<svg xmlns="http://www.w3.org/2000/svg" width="40.099" height="84.332" viewBox="0 0 40.099 84.332">
  <g id="Vector_Smart_Object" data-name="Vector Smart Object" transform="translate(-368.744 -190.634)">
    <g id="Group_58" data-name="Group 58">
      <path id="Path_480" data-name="Path 480" d="M387.343,206.273c-2.8,1.771-11.34,8.5-12.069,17.537s2.6,13.012,2.6,13.012l3.378-2.2a9.784,9.784,0,0,1,0-9.523,20.051,20.051,0,0,1,6.086-7.325Z" fill="#82bcc5"/>
      <path id="Path_481" data-name="Path 481" d="M387.343,206.273c2.889-2.226,8.115-3.815,10.662-2.264a28.826,28.826,0,0,1,6.707,5.4c3.623,3.87-1.921,25.893-.8,31.28-2.641,1.527-18.81.965-18.81.965S379.1,212.625,387.343,206.273Z" fill="#5ba2a5"/>
      <path id="Path_482" data-name="Path 482" d="M396.018,194.822a3.085,3.085,0,0,1,4.7,2.177c.684,2.732-.336,4.54-2.52,4.6S393.3,196.576,396.018,194.822Z" fill="#bcafa2"/>
      <path id="Path_483" data-name="Path 483" d="M396.763,263.231l.768,5.822c-1.18,1.4-4.444,3.238-4.965,4.549s2.118,1.34,3.923,0,4.23-3.014,4.476-4.27a18.228,18.228,0,0,0-.6-6.694C399.753,261.17,397.244,261.8,396.763,263.231Z" fill="#ff9580"/>
      <path id="Path_484" data-name="Path 484" d="M384.593,267.23c-1.021,1.335-5.931,3.5-6.323,5.8.025,1.326,6.136-1.578,6.969-2.184s2.709-2.3,2.083-3.616S384.593,267.23,384.593,267.23Z" fill="#0e0034"/>
      <path id="Path_485" data-name="Path 485" d="M402.771,241.081c-.549,3.987-1.126,8.529-.742,11.62s1.443,9.276,1.443,9.276-14.234,3.575-22.889.869c-.481-6.473,1.635-21.765,1.635-21.765Z" fill="#0e0034"/>
      <path id="Path_486" data-name="Path 486" d="M391.3,207.711c.277,1.808.761,3.407,3.253,3.337s4.567-1.668,4.152-5.423c-.277-2.063-.969-1.971-4.152-2.063S391.3,207.711,391.3,207.711Z" fill="#ff9580"/>
      <path id="Path_487" data-name="Path 487" d="M387.514,204.4a8.57,8.57,0,0,0,6.918,4.231,3.848,3.848,0,0,0,3.809-4.25,18.712,18.712,0,0,0-2.223-6.354,5.755,5.755,0,0,0-8.168-1.015C383.92,199.89,387.514,204.4,387.514,204.4Z" fill="#ffb09e"/>
      <path id="Path_488" data-name="Path 488" d="M387.343,217.776c2.115.963,4.131,4.224,4.032,6.156s-2.07,3.285-2.014,3.865,0,2.834,0,2.834-3.214,1.932-5.394-.773c-.359-1.914-1.756-4.573-.974-7.858S385.847,217.095,387.343,217.776Z" fill="#ffb09e"/>
      <path id="Path_489" data-name="Path 489" d="M379.654,227.727c2.607.439,12.125,4.673,20.245,0l1.066,4.1s-7.539,3.868-8.973,3.907c.4,1.608,2.449,9.462-2.655,15.532-1.979,1.256-8.487-.523-11.066-2.616,1.17-2.825,3.343-12.243,2.986-14.023C379.336,234,378.722,230.562,379.654,227.727Z" fill="#ffe7e4"/>
      <path id="Path_490" data-name="Path 490" d="M377.878,236.822c.379,1.472,3.1,7.482,6.182,5.965,1.761-.834-1.418-3.89-1.43-4.292,3.871.756-.371-2.774-2.119-4.3Z" fill="#ff9580"/>
      <path id="Path_491" data-name="Path 491" d="M392.565,237.868a22.6,22.6,0,0,1-4.143,2.4c-.84.362-1,1.086,0,1.126s2.121-.04,2,0a7.372,7.372,0,0,0-3.356,1.64c-.807.732-1.267,2.139.444,2.461s6.194-1.883,7.234-3.736C394.706,240.747,394.267,238.287,392.565,237.868Z" fill="#ff9580"/>
      <path id="Path_492" data-name="Path 492" d="M370.668,267.23c-.489.976-.969,1.157-1.629,1.82s-.42,4.041,2.942,5.307c.961.3,2.835-.087,2.942-.755.239-1.49-3.945,0-3.013-3.527.412-1.558.912-1.327.912-1.327Z" fill="#0e0034"/>
      <path id="Path_493" data-name="Path 493" d="M386.8,273.527c.022,1.155.721,2.188,2.943.7s4.074-2.687,3.5-3.927-1.857-.165-3.13.661S386.8,273.527,386.8,273.527Z" fill="#0e0034"/>
      <path id="Path_494" data-name="Path 494" d="M387.626,205.3c-1.388-1.314-4.408-6.994-1.614-10.83s8.015-5.02,11.272-2.538c1.651,1.241,1.345,5.641.571,6.939a12.167,12.167,0,0,1-9.413,1.41A9.289,9.289,0,0,1,387.626,205.3Z" fill="#bcafa2"/>
      <path id="Path_495" data-name="Path 495" d="M379.042,249.193c-.758,2.185-5.081,15.333-9.583,16.9a16.946,16.946,0,0,0,3.362,2.654c2.341-1.568,10.266-8.866,9.605-14.656a4.222,4.222,0,0,0,2.165.06s0,16.646,0,18.034c1.557,1.206,3.358,2.774,5.519-.724-.24-1.809-.9-19.782-.9-19.782Z" fill="#434057"/>
      <path id="Path_496" data-name="Path 496" d="M404.712,209.409c8.94,12.987,2.375,23.609-10.167,33.378a45.48,45.48,0,0,0-1.979-4.918s10.417-10.779,9.687-19.15S404.712,209.409,404.712,209.409Z" fill="#82bcc5"/>
      <path id="Path_497" data-name="Path 497" d="M381.989,216.288c2.342-1.542,2.224-3.976,4.681-2.059,1.184,1.136,1.382,3.742-1.148,5.892a3.308,3.308,0,0,1-.772,4.118c.772,1.633,1.408,3.266-2.2,3.975s-4.805-4.532-4.805-6.667S379.94,217.637,381.989,216.288Z" fill="#5a1910"/>
      <path id="Path_498" data-name="Path 498" d="M401.024,268.878a4.062,4.062,0,0,1-.06.454c-.246,1.256-2.67,2.93-4.475,4.27s-4.445,1.312-3.924,0c.492-1.237,3.424-2.947,4.746-4.308A4.931,4.931,0,0,0,401.024,268.878Z" fill="#0e0034"/>
    </g>
  </g>
</svg>
