<svg xmlns="http://www.w3.org/2000/svg" width="72.132" height="83.291" viewBox="0 0 72.132 83.291">
  <g id="Vector_Smart_Object" data-name="Vector Smart Object" transform="translate(-427.343 -181.983)">
    <g id="Group_57" data-name="Group 57">
      <g id="Group_14" data-name="Group 14">
        <g id="Group_9" data-name="Group 9">
          <path id="Path_442" data-name="Path 442" d="M491.116,240.078c.652,5.081,2.353,17.482,2.268,19.133a1.837,1.837,0,0,1-.135.709,1.048,1.048,0,0,1-.122.19l-.034.04c-.123.143-.5.263-.652.377a8.328,8.328,0,0,1-1.341.938c-.411.229-.9.593-.769,1.036s.75.494,1.223.455c1.312-.11,2.063-.219,3.376-.329a1.016,1.016,0,0,0,.559-.157.9.9,0,0,0,.271-.513,12.213,12.213,0,0,0,.267-1.847c.021-.223.043-.445.07-.667.024-.2.052-.4.087-.6a24.552,24.552,0,0,0,.251-3.117,64,64,0,0,0,.113-8.511C493.883,235.429,492.545,239.934,491.116,240.078Z" fill="#f7b690"/>
          <path id="Path_443" data-name="Path 443" d="M496.026,259.051a10.73,10.73,0,0,1-.267,2.376c-.048.19-.113.654-.271.778a1.188,1.188,0,0,1-.559.29c-1.313.11-2.065.286-3.376.395-.473.039-1.09.022-1.223-.421s.358-.79.769-1.02a8.305,8.305,0,0,0,1.341-.93,9.706,9.706,0,0,0,.652-.9c.011-.013.023.3.034-.566Z" fill="#856c58"/>
        </g>
        <g id="Group_10" data-name="Group 10">
          <path id="Path_444" data-name="Path 444" d="M479.008,240.31c-.464,1.428.038,19.5-.013,19.606a1.049,1.049,0,0,1-.122.19l-.034.04c-.124.143-.5.263-.653.377a8.308,8.308,0,0,1-1.341.938c-.411.229-.9.593-.769,1.036s.75.494,1.223.455c1.312-.11,2.063-.219,3.376-.329a1.017,1.017,0,0,0,.559-.157.9.9,0,0,0,.271-.513,12.205,12.205,0,0,0,.267-1.847c.012-.123,2.441-18.463,2.925-19.8C483.754,240.236,479.952,240.357,479.008,240.31Z" fill="#f7b690"/>
          <path id="Path_445" data-name="Path 445" d="M481.772,259.913a18.4,18.4,0,0,1-.267,1.943.769.769,0,0,1-.829.742c-1.313.11-2.065.232-3.376.341-.474.04-1.09,0-1.223-.448s.358-.8.769-1.033a8.322,8.322,0,0,0,1.341-.937,5.1,5.1,0,0,0,.653-.472c.011-.013.023-.136.034-.136Z" fill="#856c58"/>
        </g>
        <path id="Path_446" data-name="Path 446" d="M477.416,225.867q.671,12.151,1.341,24.3a52.611,52.611,0,0,0,14.929.277c.547-.068,2.461.242,2.954,0,1.293-.632.434-2.541.768-3.911a73,73,0,0,0,1.985-20.714c-.015-.314-.092-.7-.4-.787a.827.827,0,0,0-.523.1c-6.612,2.884-14.275.7-21.513,1.039Z" fill="#87acbf"/>
        <path id="Path_447" data-name="Path 447" d="M478.426,198.243c-3.346,3.432-4.547,8.316-5.194,13s-.9,9.526-2.833,13.865a8.132,8.132,0,0,0-.875,2.536,2.19,2.19,0,0,0,1.157,2.249c1,.41,2.105-.221,2.934-.9a21.971,21.971,0,0,0,7.245-12.557,42.5,42.5,0,0,0,.125-14.6c-.24-1.752-1.07-3.961-2.886-3.912l-.747,1.681Z" fill="#ffe7e4"/>
        <path id="Path_448" data-name="Path 448" d="M486.387,193.394a5.168,5.168,0,0,0,3.185-5.031,1.812,1.812,0,0,1-.334-.373c-.492-.751-.193-1.759-.478-2.6a2.077,2.077,0,0,0-1.588-1.342,2.124,2.124,0,0,0-1.967.726,3.246,3.246,0,0,0-3.137-2.315c-2.423.01-3.639,1.926-4.246,3.933-.461,1.527-1.174,5.954,1.211,6.595l-.346.02a.829.829,0,0,1-.012.089,40.645,40.645,0,0,1,5.331.469c.621.1,1.242.207,1.866.281A1,1,0,0,1,486.387,193.394Z" fill="#e3e0d9"/>
        <path id="Path_449" data-name="Path 449" d="M476.332,227.691c1.368-3.278-.082-7.526-.507-11.04s-1.112-7.042-.761-10.563,1.94-7.142,5.05-8.975a12.155,12.155,0,0,1,4.956-1.465,12.612,12.612,0,0,1,6.344.787A11.4,11.4,0,0,1,497,202.4a26.882,26.882,0,0,1,1.831,8.03,99.079,99.079,0,0,1,.542,13.064,5.414,5.414,0,0,1-.334,2.083,4.734,4.734,0,0,1-1.887,1.93,17.828,17.828,0,0,1-10.969,2.308,41.581,41.581,0,0,1-9.849-2.127Z" fill="#f7a09b"/>
        <path id="Path_450" data-name="Path 450" d="M485.865,193.853a3.369,3.369,0,0,0,.169-.865,2.058,2.058,0,0,0,2.3-2.507,4.77,4.77,0,0,1-2.59-.36,3.719,3.719,0,0,1-1.57-2.686,4.311,4.311,0,0,1-5.243.653q-.23,1.264-.459,2.527c-.492,2.712.445,6.238,4,5.942a4.034,4.034,0,0,0,3.3-2.454A1.023,1.023,0,0,1,485.865,193.853Z" fill="#f6be8f"/>
        <path id="Path_451" data-name="Path 451" d="M496.051,200.3a4.215,4.215,0,0,0-2.69-2.126,5.5,5.5,0,0,0-.5.345,44.41,44.41,0,0,0-2.054,17.219,11.151,11.151,0,0,0-5.18,1.815c-1.435,1.146-2.149,3.361-1.022,4.8a3.737,3.737,0,0,0,3.005,1.233,11.155,11.155,0,0,0,3.287-.722c1.911-.628,3.942-1.338,5.148-2.911a9.429,9.429,0,0,0,1.485-4.472C498.291,210.345,498.786,204.754,496.051,200.3Z" fill="#ffe7e4"/>
        <path id="Path_452" data-name="Path 452" d="M488.479,195.519c-1.073-1.183-2.582-2.329-2.413-3.538-.358,2.566-1.74,3.312-4.427,3.39a1.265,1.265,0,0,0-.662.14,1.187,1.187,0,0,0-.384.548l-.972,2.189.238-.343a1.172,1.172,0,0,0,0,.292,2.321,2.321,0,0,0,.7,1.213,5.817,5.817,0,0,0,4.453,1.752,5.175,5.175,0,0,0,4.075-2.4,2.456,2.456,0,0,0,.408-1.394A3.324,3.324,0,0,0,488.479,195.519Z" fill="#f7b690"/>
        <g id="Group_11" data-name="Group 11">
          <path id="Path_453" data-name="Path 453" d="M483.378,262.994c-1.41-11.785-2.308-23.772-2.669-35.63a4.623,4.623,0,0,1,.463-2.588,2.96,2.96,0,0,1,3.254-1.266,2.856,2.856,0,0,1,2.063,2.757l-1.579-.048a1.311,1.311,0,0,0-.921-1.232,1.36,1.36,0,0,0-1.454.565,3.293,3.293,0,0,0-.247,1.767c.36,11.813,1.254,23.756,2.659,35.5Z" fill="#9e5d4e"/>
        </g>
        <path id="Path_454" data-name="Path 454" d="M484.53,220.627a4.837,4.837,0,0,0-2.033.554,2.805,2.805,0,0,0-1.67,2.55,1.649,1.649,0,0,0,2.38,1.269,2.506,2.506,0,0,0,.531-.59l.7-.965a2.859,2.859,0,0,0,.722-1.66c-.017-.612-.649-1.23-1.234-1Z" fill="#f7b690"/>
        <path id="Path_455" data-name="Path 455" d="M469.065,233.408c.26-.09.525-.176.791-.261a1.7,1.7,0,0,0,1.127-1.14c.028-.095.056-.189.086-.282.41-1.238,1.412-2.552.762-3.689-.263-.46-.957-.752-1.345-.384l.177-.419c-.656.81-1.5,1.465-2.129,2.3a3.029,3.029,0,0,0-.633,2.894A1.816,1.816,0,0,0,469.065,233.408Z" fill="#f7b690"/>
        <path id="Path_456" data-name="Path 456" d="M484.546,185.13a2.986,2.986,0,0,1,1.961-2.949,3.629,3.629,0,0,1,3.6.75,4.051,4.051,0,0,1,1.234,3.433,2.112,2.112,0,0,1-.887,1.627,2.873,2.873,0,0,1-1.08.3,4.854,4.854,0,0,1-2.455-.084c-1.565-.624-1.956-2.566-2.126-4.2Z" fill="#e3e0d9"/>
        <g id="Group_12" data-name="Group 12">
          <path id="Path_457" data-name="Path 457" d="M479.931,193.634a1.729,1.729,0,1,1,1.777-1.728A1.755,1.755,0,0,1,479.931,193.634Zm0-3.072a1.345,1.345,0,1,0,1.382,1.344A1.365,1.365,0,0,0,479.931,190.562Z" fill="#b47c6f"/>
        </g>
        <g id="Group_13" data-name="Group 13">
          <path id="Path_458" data-name="Path 458" d="M483.649,194a1.729,1.729,0,1,1,1.777-1.728A1.755,1.755,0,0,1,483.649,194Zm0-3.072a1.345,1.345,0,1,0,1.382,1.344A1.365,1.365,0,0,0,483.649,190.923Z" fill="#b47c6f"/>
        </g>
      </g>
      <g id="Group_56" data-name="Group 56">
        <g id="Group_16" data-name="Group 16">
          <g id="Group_15" data-name="Group 15">
            <path id="Path_459" data-name="Path 459" d="M456.16,264.686a.623.623,0,0,1-.709.582.754.754,0,0,1-.075-.012l-5.25-1.133a1.416,1.416,0,0,1-1.065-1.26l-.1-1.474,0-.038-.211-3.278,3.419.473.155,2.818c0,.06-.027.114-.012.174a1,1,0,0,0,.125.368c.018.028.04.058.062.086l0,0a1.131,1.131,0,0,0,.34.28l2.809,1.5A.965.965,0,0,1,456.16,264.686Z" fill="#f6be8f"/>
          </g>
        </g>
        <g id="Group_18" data-name="Group 18">
          <g id="Group_17" data-name="Group 17">
            <path id="Path_460" data-name="Path 460" d="M455.947,264.686a.623.623,0,0,1-.709.582.752.752,0,0,1-.075-.012l-5.25-1.133a1.416,1.416,0,0,1-1.065-1.26l-.1-1.474a4.216,4.216,0,0,1,1.843.148c.563.148,1.131.342,1.691.454l0,0a1.135,1.135,0,0,0,.34.28l2.809,1.5A.965.965,0,0,1,455.947,264.686Z" fill="#41657b"/>
          </g>
        </g>
        <path id="Path_461" data-name="Path 461" d="M455.485,232.786c-.044-2.016-.223-4.211-1.685-5.7a5.168,5.168,0,0,0-6.277-.589c-.474.322-.915.821-.8,1.356l-.138-1.064q-.231,15.143.927,30.268a1.191,1.191,0,0,0,.036.466c.041.522.077,1.044.119,1.566a1.1,1.1,0,0,0,.212.673.718.718,0,0,0,.324.2,2.24,2.24,0,0,0,.539.149q1.379.234,2.778.347a1.305,1.305,0,0,0,.985-.188,1.05,1.05,0,0,0,.211-.9q-.016-.2-.033-.4C453.19,259.012,455.655,240.645,455.485,232.786Z" fill="#41657c"/>
        <g id="Group_20" data-name="Group 20">
          <g id="Group_19" data-name="Group 19">
            <path id="Path_462" data-name="Path 462" d="M432.856,264.686a.623.623,0,0,0,.709.582.753.753,0,0,0,.075-.012l5.25-1.133a1.416,1.416,0,0,0,1.065-1.26l.1-1.474,0-.038.211-3.278-3.419.473-.155,2.818c0,.06.027.114.012.174a.991.991,0,0,1-.124.368c-.019.028-.04.058-.062.086l0,0a1.131,1.131,0,0,1-.34.28l-2.809,1.5A.965.965,0,0,0,432.856,264.686Z" fill="#f6be8f"/>
          </g>
        </g>
        <g id="Group_22" data-name="Group 22">
          <g id="Group_21" data-name="Group 21">
            <path id="Path_463" data-name="Path 463" d="M433.069,264.686a.623.623,0,0,0,.709.582.751.751,0,0,0,.075-.012l5.25-1.133a1.416,1.416,0,0,0,1.065-1.26l.1-1.474a4.218,4.218,0,0,0-1.844.148c-.562.148-1.131.342-1.691.454l0,0a1.132,1.132,0,0,1-.34.28l-2.809,1.5A.966.966,0,0,0,433.069,264.686Z" fill="#41657b"/>
          </g>
        </g>
        <g id="Group_24" data-name="Group 24">
          <g id="Group_23" data-name="Group 23">
            <path id="Path_464" data-name="Path 464" d="M442.433,226.785q.246,16.161-1.082,32.3a1.1,1.1,0,0,1-.212.673,1.328,1.328,0,0,1-1.061.252c-1.043-.053-3.025.265-3.847-.333-.963-.7-.393-2.31-.611-3.428a110.183,110.183,0,0,1-2.089-23.462c.044-2.016.223-4.211,1.685-5.7a5.167,5.167,0,0,1,6.277-.589c.474.321.915.82.8,1.355Z" fill="#41657c"/>
          </g>
        </g>
        <g id="Group_33" data-name="Group 33">
          <g id="Group_26" data-name="Group 26">
            <g id="Group_25" data-name="Group 25">
              <path id="Path_465" data-name="Path 465" d="M451.442,197.712c.265,3.858,2.371,7.522,1.7,11.338-.386,2.173-1,4.317-1.3,6.5a46.239,46.239,0,0,0-.121,8.447c.061,1.287.121,2.568.178,3.855q.15,3.063.286,6.13c0,.068,0,.14,0,.208a1.2,1.2,0,0,1-.247.836,3.073,3.073,0,0,1-1.156.386,37.72,37.72,0,0,1-11.708.959v-.191c0-2.776.207-5.552.172-8.328-.065-4.865.014-9.729-.051-14.59-.03-2.1-.511-2.8-.762-4.882-.364-3.043,1.409-8.337,1.271-11.393-.07-1.562-2.705-2.976-1.665-4.241,1.513-1.838,4.942-3.082,7.518-3.149,2.089-.055,6.013.934,7.513,2.224C454.537,193.085,451.316,195.9,451.442,197.712Z" fill="#e6d5cd"/>
            </g>
          </g>
          <path id="Path_466" data-name="Path 466" d="M452.183,234.188a1.2,1.2,0,0,1-.247.836,3.073,3.073,0,0,1-1.156.386,37.72,37.72,0,0,1-11.708.959v-.191c0-2.776.487-6,.452-8.157h12.369c.1,1.293.2,4,.286,6.044A1.155,1.155,0,0,1,452.183,234.188Z" fill="#41657c"/>
          <g id="Group_28" data-name="Group 28">
            <g id="Group_27" data-name="Group 27">
              <path id="Path_467" data-name="Path 467" d="M440.4,236.351l.225.018,0-.19A.651.651,0,0,0,440.4,236.351Z" fill="#9e5f4b"/>
            </g>
          </g>
          <g id="Group_30" data-name="Group 30">
            <g id="Group_29" data-name="Group 29">
              <path id="Path_468" data-name="Path 468" d="M460.837,205.743a20.73,20.73,0,0,0-1.047-6.629c-1.424-3.646-4.749-6.275-7.936-8.726-3.631-2.793-6.711-3.084-10.931-.974-3.109,1.555-6.3,3.2-8.475,5.814-2.578,3.1-.893,7.481-1.039,11.079-.252,6.2-.959,12.533-.727,18.739a51.918,51.918,0,0,1-.4,7.383c-.165,1.574-.336,3.151-.433,4.744l0,0c1.142,1.755,3.486,2.435,5.419,2.855,2.722.59,4.544.654,4.884-1.6.362-2.4,1.138-4.827,1.27-7.228.278-5.056-.112-10.105-.1-15.161.017-5.821,1.317-11.57-.267-17.3-.372-1.348-2.363-4.717-1.593-5.994a7.326,7.326,0,0,1,5.5-3.15,7.568,7.568,0,0,1,4.822,1.608c1.508,1.508.613,3.076.11,4.968a35.315,35.315,0,0,0-1.584,11.935c.479,7.569,1.134,15.141,1.392,22.715.036,1.062.172,2.171.115,3.23a25.261,25.261,0,0,0,.514,4.988,1.11,1.11,0,0,0,1.324.935,23.426,23.426,0,0,0,8.518-3.512c.4-5.172.829-10.344,1.183-15.519C461.708,215.895,460.837,210.825,460.837,205.743Z" fill="#9e5f4b"/>
            </g>
          </g>
          <g id="Group_32" data-name="Group 32">
            <g id="Group_31" data-name="Group 31">
              <path id="Path_469" data-name="Path 469" d="M440.3,236.343l.061.063.27.278c0-.105,0-.21,0-.315l-.225-.018Z" fill="#9e5f4b"/>
            </g>
          </g>
        </g>
        <g id="Group_38" data-name="Group 38">
          <g id="Group_35" data-name="Group 35">
            <g id="Group_34" data-name="Group 34">
              <path id="Path_470" data-name="Path 470" d="M438.8,214.768q-.412-.223-.83-.433a1.429,1.429,0,0,1-.706-.571c-.413-.861.287-2.853.368-3.755q.252-2.81.5-5.62a22.6,22.6,0,0,0-1.175-10.813c-.846-3-3.814.556-4.91,1.854-2.073,2.454-2.637,5.8-3.124,8.973q-.738,4.812-1.477,9.624a3.945,3.945,0,0,0-.01,1.714,3.624,3.624,0,0,0,1.02,1.463,21.77,21.77,0,0,0,17.606,6.067l1.706-3.3C445.039,218.334,441.595,216.282,438.8,214.768Z" fill="#ad6953"/>
            </g>
          </g>
          <g id="Group_37" data-name="Group 37">
            <g id="Group_36" data-name="Group 36">
              <path id="Path_471" data-name="Path 471" d="M448.82,220.66c-.455-.168-.917-.306-1.387-.429a6.1,6.1,0,0,0-1.971,3.43,3.348,3.348,0,0,1,2.569.878c.452.424,1.044,1.026,1.566.692a1.019,1.019,0,0,0,.374-.616A4.092,4.092,0,0,0,448.82,220.66Z" fill="#f7b690"/>
            </g>
          </g>
        </g>
        <g id="Group_40" data-name="Group 40">
          <g id="Group_39" data-name="Group 39">
            <path id="Path_472" data-name="Path 472" d="M443.534,224.615l.13-.1a3.022,3.022,0,0,1,.563-.343c.1-.045.205-.083.309-.123s.212-.065.321-.084a2.62,2.62,0,0,1,.329-.048,2.186,2.186,0,0,1,.332-.011l.166,0,.164.022c.051.008.117.013.156.023l.174.04a1.175,1.175,0,0,1,.159.046c.05.017.1.031.149.049a3.23,3.23,0,0,1,.3.134l.143.076.136.087c.094.054.172.127.259.189a3.026,3.026,0,0,1,.438.456,2.789,2.789,0,0,1,.447.814l.05.146.038.148a3.007,3.007,0,0,1,.082.59c-.119,1.672-.228,3.344-.335,5.016l-.327,5.03-.327,5.03-.17,2.515-.177,2.514c-.062.838-.117,1.676-.171,2.515s-.1,1.677-.13,2.516-.062,1.679-.09,2.518l-.252,10.532h1.325l.344-10.473c.052-.838.112-1.676.151-2.515s.079-1.678.112-2.517.053-1.679.072-2.519l.064-2.519.072-2.519.157-5.037.157-5.037c.053-1.679.106-3.358.148-5.037v-.027a3.594,3.594,0,0,0-.128-.708l-.052-.173-.066-.169a3.545,3.545,0,0,0-.153-.329,3.459,3.459,0,0,0-.413-.6,3.36,3.36,0,0,0-1.182-.9,3.731,3.731,0,0,0-.353-.143c-.062-.02-.127-.037-.19-.055a1.7,1.7,0,0,0-.185-.045l-.175-.033-.022,0-.021,0h-.012l-.048,0-.1-.009-.191-.018h-.192a2.651,2.651,0,0,0-.382.027,3.06,3.06,0,0,0-.375.069c-.123.027-.241.074-.362.11s-.232.1-.343.152a3.342,3.342,0,0,0-.614.407l-.139.118c-.043.042-.084.086-.126.129a2.429,2.429,0,0,0-.234.272,3.229,3.229,0,0,0-.366.6c-.052.1-.086.216-.13.323s-.064.226-.095.338-.037.219-.056.329l-.038.335-.147,1.322.141.017.213-1.315.053-.323c.024-.108.046-.219.072-.325s.063-.2.1-.3.083-.2.135-.294a3.033,3.033,0,0,1,.363-.538,2.206,2.206,0,0,1,.223-.239Z" fill="#7089a1"/>
          </g>
        </g>
        <g id="Group_45" data-name="Group 45">
          <g id="Group_42" data-name="Group 42">
            <g id="Group_41" data-name="Group 41">
              <path id="Path_473" data-name="Path 473" d="M451.635,214.758q.412-.222.83-.433a1.422,1.422,0,0,0,.706-.57,1.381,1.381,0,0,0,.082-.656c-.231-6.107-1.141-11.9-.543-18.064.157-1.617.441-3.139,2.137-2.483a10.445,10.445,0,0,1,3.539,2.868c3.229,3.823,4.642,10.578,4.623,15.43-.02,5.376-1.833,7.936-6.561,10.274-1.4.693-11.025,4.169-12.078,2.138l-1.2-2.325a1.493,1.493,0,0,1,.593-1.985C446.28,217.529,449.245,216.05,451.635,214.758Z" fill="#ad6953"/>
            </g>
          </g>
          <g id="Group_44" data-name="Group 44">
            <g id="Group_43" data-name="Group 43">
              <path id="Path_474" data-name="Path 474" d="M441.612,220.65c.357-.132,1.317-.678,1.682-.559a1.341,1.341,0,0,1,.505.369,5.726,5.726,0,0,1,1.044,1.272,2.482,2.482,0,0,1,.252,1.413.448.448,0,0,1-.422.421,2.9,2.9,0,0,0-1.806,1.249c-.289.588-.547,2.67-1.565,1.934C439.7,225.588,439.561,221.409,441.612,220.65Z" fill="#f7b690"/>
            </g>
          </g>
        </g>
        <g id="Group_55" data-name="Group 55">
          <g id="Group_47" data-name="Group 47">
            <g id="Group_46" data-name="Group 46">
              <path id="Path_475" data-name="Path 475" d="M449.041,189.595c1.38-.6.427-2.081,1.123-.878a6.119,6.119,0,0,0,.757,1.244c1.448,1.509,1.818-1.249,1.506-2.17a8.377,8.377,0,0,0-4.248-4.747,3.038,3.038,0,0,0-1.54-.29,3.912,3.912,0,0,0-1.162.405c-1.789.845-3.731,1.847-4.46,3.683a6.573,6.573,0,0,0-.371,1.693,1.735,1.735,0,0,0,.156,1.171c.917,1.36,1.627.28,1.868-.734a6.84,6.84,0,0,1,.629-1.534C443.792,186.484,448.055,190.022,449.041,189.595Z" fill="#ffe7e4"/>
            </g>
          </g>
          <g id="Group_49" data-name="Group 49">
            <g id="Group_48" data-name="Group 48">
              <path id="Path_476" data-name="Path 476" d="M441.394,190.877c.017-.038.036-.075.052-.113a7.583,7.583,0,0,0,.2-2.486,3.889,3.889,0,0,1,.193-.953,7.781,7.781,0,0,1,.832-.812.564.564,0,0,0,.747.009c.592-.44,1.348-.148,1.97.093.84.326,1.632.767,2.466,1.11a3.989,3.989,0,0,0,2.378.394,1.927,1.927,0,0,0,.89-.48,7.239,7.239,0,0,1,.515,1.087,8.428,8.428,0,0,1,.446,1.808,11.135,11.135,0,0,1-.162,3.713,4.854,4.854,0,0,1-.422,1.3,5.579,5.579,0,0,1-2.386,2.055,4.728,4.728,0,0,1-1.635.643,3.537,3.537,0,0,1-2.413-.722c-1.9-1.323-2.847-3.591-3.673-5.746a1.2,1.2,0,0,1-.114-.535A1.164,1.164,0,0,1,441.394,190.877Z" fill="#f7b690"/>
            </g>
          </g>
          <g id="Group_51" data-name="Group 51">
            <g id="Group_50" data-name="Group 50">
              <path id="Path_477" data-name="Path 477" d="M441.409,190.809c.379.07,1.548.586,1.7.068.076-.255-.011-1.846,0-2.113.029-1.218.242-2.29,1.435-2.893.247-.125.567-.309.5-.577-.061-.242-.386-.285-.634-.25-2.957.416-3.281,3.491-3,5.765Z" fill="#ffe7e4"/>
            </g>
          </g>
          <g id="Group_54" data-name="Group 54">
            <g id="Group_52" data-name="Group 52">
              <path id="Path_478" data-name="Path 478" d="M448.714,191.245a1.9,1.9,0,1,1,1.9,1.844A1.872,1.872,0,0,1,448.714,191.245Zm.421,0a1.475,1.475,0,1,0,1.474-1.434A1.456,1.456,0,0,0,449.135,191.245Z" fill="#b47c6f"/>
            </g>
            <g id="Group_53" data-name="Group 53">
              <path id="Path_479" data-name="Path 479" d="M444.747,191.631a1.9,1.9,0,1,1,1.9,1.844A1.872,1.872,0,0,1,444.747,191.631Zm.421,0a1.475,1.475,0,1,0,1.474-1.434A1.456,1.456,0,0,0,445.169,191.631Z" fill="#b47c6f"/>
            </g>
          </g>
        </g>
      </g>
    </g>
  </g>
</svg>
