<svg id="Layer_1" data-name="Layer 1" xmlns="http://www.w3.org/2000/svg" viewBox="0 0 582.74 69"><defs><style>.cls-1{fill:#457fb5;}.cls-2{fill:#2d2d2d;}.cls-3{fill:#f58b36;}.cls-4{fill:#ea7221;}.cls-5{fill:#f5734b;}.cls-6{fill:#fff;}</style></defs><path class="cls-1" d="M0,53.91V14.51c0-.55.24-.82.72-.82H11.88c.48,0,.72.27.72.82V27.64h9.29V14.51c0-.55.24-.82.72-.82H33.77c.48,0,.72.27.72.82v39.4c0,.55-.24.82-.72.82H22.61c-.48,0-.72-.27-.72-.82V39.13H12.6V53.91c0,.55-.24.82-.72.82H.72C.24,54.73,0,54.46,0,53.91Z"/><path class="cls-1" d="M71.42,54.73H43.78c-.48,0-.72-.27-.72-.82V14.51c0-.55.24-.82.72-.82H71.42c.48,0,.72.27.72.82v9.85c0,.55-.24.82-.72.82H55.66v4.11H66.82c.48,0,.72.27.72.82v8.2c0,.55-.24.82-.72.82H55.66v4.11H71.42c.48,0,.72.27.72.82v9.85C72.14,54.46,71.9,54.73,71.42,54.73Z"/><path class="cls-1" d="M105.19,14.43,118.08,54c.19.49,0,.74-.5.74H105.19a1,1,0,0,1-1-.74l-1.58-5c-.19-.54-.5-.82-.94-.82H92c-.44,0-.75.28-.94.82l-1.44,5a1,1,0,0,1-.94.74H76.32c-.48,0-.63-.25-.43-.74L88.13,14.43a1,1,0,0,1,1-.74h15A1,1,0,0,1,105.19,14.43Zm-5,23.8L96.84,26.9l-3.1,11.33Z"/><path class="cls-1" d="M154.51,43.07a24.49,24.49,0,0,1,1.19,4c.41,1.8.71,3.39.9,4.76l.36,2c.09.55-.12.82-.65.82H144.07c-.43,0-.7-.27-.79-.82a52.23,52.23,0,0,0-1.22-7.06,7.54,7.54,0,0,0-1.34-2.75,2.68,2.68,0,0,0-2.12-.86h-2.52V53.91c0,.55-.24.82-.72.82H124.2c-.48,0-.72-.27-.72-.82V14.51c0-.55.24-.82.72-.82h16.27a21.74,21.74,0,0,1,5.44.66,17.51,17.51,0,0,1,4.82,2,9.73,9.73,0,0,1,3.6,4.06,14.08,14.08,0,0,1,1.33,6.36,21.6,21.6,0,0,1-.54,5.09,11.18,11.18,0,0,1-1.29,3.37,9.28,9.28,0,0,1-1.62,1.88,4.41,4.41,0,0,1-1.41.91,3,3,0,0,1-.82.16.35.35,0,0,0-.33.21.43.43,0,0,0,0,.41.35.35,0,0,0,.33.2,4.58,4.58,0,0,1,2.26,1A6.41,6.41,0,0,1,154.51,43.07Zm-14.76-10.5a3.61,3.61,0,0,0,2.52-1,3.47,3.47,0,0,0,1.08-2.71,3.47,3.47,0,0,0-1.08-2.7,3.61,3.61,0,0,0-2.52-1h-3.6v7.39Z"/><path class="cls-1" d="M164.16,53.91V14.51c0-.55.24-.82.72-.82H176c.48,0,.72.27.72.82v39.4c0,.55-.24.82-.72.82H164.88C164.4,54.73,164.16,54.46,164.16,53.91Z"/><path class="cls-1" d="M196,54.73h-9.5c-.48,0-.72-.27-.72-.82V14.51c0-.55.24-.82.72-.82h12a1.31,1.31,0,0,1,1.15.66l10,15.67V14.51c0-.55.24-.82.72-.82H220c.48,0,.72.27.72.82v39.4c0,.55-.24.82-.72.82H209.23a1.32,1.32,0,0,1-1.15-.66L196.7,34.78V53.91C196.7,54.46,196.46,54.73,196,54.73Z"/><path class="cls-1" d="M251.42,33.14h12.17c.48,0,.72.28.72.82V52.84a1.18,1.18,0,0,1-.65,1.15l-4,1.72a.63.63,0,0,1-.86-.57L257.9,51a21.77,21.77,0,0,1-1.58,2.14A9.35,9.35,0,0,1,253,54.93a16.85,16.85,0,0,1-6.26,1A17.11,17.11,0,0,1,233,49.8q-5.22-6.15-5.22-15.59a21.26,21.26,0,0,1,5.8-15.27A19.13,19.13,0,0,1,248,12.87a18.14,18.14,0,0,1,5.83.9A13.71,13.71,0,0,1,258.15,16a22,22,0,0,1,2.77,2.62,10.77,10.77,0,0,1,1.59,2.22l.43.9a1,1,0,0,1-.29,1.15l-7.27,5.17q-.51.42-1.08-.24-1.8-2.62-6.26-2.63a7.1,7.1,0,0,0-5.8,2.59,9.78,9.78,0,0,0-2.12,6.44A11,11,0,0,0,242.28,41,6.82,6.82,0,0,0,248,43.89q4.76,0,6.55-2.46a4.7,4.7,0,0,0,.93-2.38h-4.1c-.48,0-.72-.27-.72-.82V34C250.7,33.42,250.94,33.14,251.42,33.14Z"/><path class="cls-2" d="M383.45,54.73H355.8c-.48,0-.72-.27-.72-.82V14.51c0-.55.24-.82.72-.82h27.65c.48,0,.72.27.72.82v9.85c0,.55-.24.82-.72.82H367.68v4.11h11.16c.48,0,.72.27.72.82v8.2c0,.55-.24.82-.72.82H367.68v4.11h15.77c.48,0,.72.27.72.82v9.85C384.17,54.46,383.93,54.73,383.45,54.73Z"/><path class="cls-2" d="M403.76,54.73h-13c-.48,0-.6-.25-.36-.74l9.64-19.86a1.45,1.45,0,0,0,0-1.4l-10.15-18.3q-.44-.66.36-.66H403.4a1,1,0,0,1,1,.74L408.72,24l3.75-9.52a1,1,0,0,1,1-.74h12.81c.43,0,.53.25.29.74l-9.79,18.3a1.23,1.23,0,0,0,0,1.4l10.94,19.94c.29.44.19.66-.29.66H413.91a1.12,1.12,0,0,1-1-.74l-4.32-9.36L404.76,54A1,1,0,0,1,403.76,54.73Z"/><path class="cls-2" d="M434.21,13.69h16.27a16.16,16.16,0,0,1,10.77,4q4.71,4,4.71,11.16a15.23,15.23,0,0,1-.93,5.42,12.75,12.75,0,0,1-2.45,4.11,14,14,0,0,1-3.53,2.75,16.32,16.32,0,0,1-4.17,1.6,20.32,20.32,0,0,1-4.4.49h-4.32V53.91c0,.55-.24.82-.72.82H434.21c-.48,0-.72-.27-.72-.82V14.51C433.49,14,433.73,13.69,434.21,13.69Zm15.55,18.88a3.61,3.61,0,0,0,2.52-1,3.47,3.47,0,0,0,1.08-2.71,3.47,3.47,0,0,0-1.08-2.7,3.61,3.61,0,0,0-2.52-1h-3.6v7.39Z"/><path class="cls-2" d="M500.45,54.73H472.8c-.48,0-.72-.27-.72-.82V14.51c0-.55.24-.82.72-.82h27.65c.48,0,.72.27.72.82v9.85c0,.55-.24.82-.72.82H484.68v4.11h11.16c.48,0,.72.27.72.82v8.2c0,.55-.24.82-.72.82H484.68v4.11h15.77c.48,0,.72.27.72.82v9.85C501.17,54.46,500.93,54.73,500.45,54.73Z"/><path class="cls-2" d="M539.69,43.07a24.49,24.49,0,0,1,1.19,4c.41,1.8.7,3.39.9,4.76l.36,2c.09.55-.12.82-.65.82H529.25c-.43,0-.7-.27-.79-.82a50.36,50.36,0,0,0-1.23-7.06,7.39,7.39,0,0,0-1.33-2.75,2.68,2.68,0,0,0-2.12-.86h-2.52V53.91c0,.55-.24.82-.72.82H509.38c-.48,0-.72-.27-.72-.82V14.51c0-.55.24-.82.72-.82h16.27a21.74,21.74,0,0,1,5.44.66,17.51,17.51,0,0,1,4.82,2,9.73,9.73,0,0,1,3.6,4.06,14.08,14.08,0,0,1,1.33,6.36,21.6,21.6,0,0,1-.54,5.09A11.18,11.18,0,0,1,539,35.28a9.28,9.28,0,0,1-1.62,1.88,4.41,4.41,0,0,1-1.41.91,3.07,3.07,0,0,1-.83.16.34.34,0,0,0-.32.21.43.43,0,0,0,0,.41.35.35,0,0,0,.32.2,4.57,4.57,0,0,1,2.27,1A6.41,6.41,0,0,1,539.69,43.07Zm-14.76-10.5a3.61,3.61,0,0,0,2.52-1,3.47,3.47,0,0,0,1.08-2.71,3.47,3.47,0,0,0-1.08-2.7,3.61,3.61,0,0,0-2.52-1h-3.6v7.39Z"/><path class="cls-2" d="M570.5,54.73H559.34c-.48,0-.72-.27-.72-.82V25.18H547.18c-.48,0-.72-.27-.72-.82V14.51c0-.55.24-.82.72-.82H582c.48,0,.72.27.72.82v9.85c0,.55-.24.82-.72.82h-10.8V53.91C571.22,54.46,571,54.73,570.5,54.73Z"/><path class="cls-3" d="M292.44,29.35a12.91,12.91,0,0,1,15.21-3.49,35.11,35.11,0,0,1,4.63,2.83,25,25,0,0,0,2.38,1.58,2,2,0,0,0,1,.29,1.41,1.41,0,0,0,1.26-.59,4.87,4.87,0,0,0,.78-2.65l.11-1.88h4.64a14.9,14.9,0,0,0,1.61-10c-.82-5-3.53-10.16-8.09-15.48H282V43.13c2.15-.52,4.42-2,6.83-3.38C289.11,35.44,290.32,32,292.44,29.35Z"/><path class="cls-4" d="M316,0c4.56,5.32,7.27,10.48,8.09,15.48a14.9,14.9,0,0,1-1.61,10h7.69l0,2c-.05,5.15-1.3,9.25-3.69,12.19a12.81,12.81,0,0,1-15.14,3.49,35.77,35.77,0,0,1-4.63-2.83,27.2,27.2,0,0,0-2.37-1.58,2.11,2.11,0,0,0-1-.29,1.67,1.67,0,0,0-1.39.62,4.11,4.11,0,0,0-.72,2.48l-.05,1.94H288.73l0-2c0-.54,0-1.07.07-1.59A29,29,0,0,1,282,43.13V69h54.89V0Z"/><path class="cls-5" d="M305.63,34.94l.11.06c2.24-.43,4.16-.89,5.76-1.31C309.87,34.12,307.91,34.53,305.63,34.94Z"/><path class="cls-5" d="M297.64,36.16c.57,0,1.12-.11,1.67-.18l.07,0Z"/><path class="cls-3" d="M321.43,29.44a7.66,7.66,0,0,1-1.33,3,5.39,5.39,0,0,1-4.44,2.16,6,6,0,0,1-3-.8l-.49-.28c-.64-.39-1.4-.9-2.27-1.54a31.32,31.32,0,0,0-4.06-2.49,8.28,8.28,0,0,0-3.62-.73,8.2,8.2,0,0,0-6.73,3.15,12.32,12.32,0,0,0-2.4,5.56l0,.16c-.11.6-.2,1.23-.26,1.89h4.56a6.88,6.88,0,0,1,1.42-3,5.79,5.79,0,0,1,.48-.51c-.55.07-1.1.13-1.67.18l1.74-.23a5.61,5.61,0,0,1,3.9-1.49,6,6,0,0,1,2.35.5c2.28-.41,4.24-.82,5.87-1.25-1.6.42-3.52.88-5.76,1.31.17.08.33.15.49.24A26.89,26.89,0,0,1,309,37.06a30.7,30.7,0,0,0,4.06,2.48,8,8,0,0,0,3.55.74,8.21,8.21,0,0,0,6.73-3.16A13.78,13.78,0,0,0,326,29.44Z"/><path class="cls-6" d="M291,38.52c-.73.4-1.43.81-2.13,1.23v.12c.69-.4,1.39-.8,2.11-1.19C290.94,38.63,290.94,38.57,291,38.52Z"/><path class="cls-6" d="M299.38,35.93l-.07,0c2.38-.27,4.53-.61,6.43-1l-.11-.06C303.76,35.28,301.67,35.61,299.38,35.93Z"/><path class="cls-6" d="M293.11,37.59l0-.16c-.75.33-1.48.7-2.19,1.09,0,0,0,.11,0,.16C291.65,38.29,292.37,37.92,293.11,37.59Z"/></svg>
