<svg xmlns="http://www.w3.org/2000/svg" width="24.061" height="20.001" viewBox="0 0 24.061 20.001">
  <path id="Icon_awesome-store" data-name="Icon awesome-store" d="M23.518,4.633,20.983.586A1.251,1.251,0,0,0,19.924,0H4.143A1.251,1.251,0,0,0,3.084.586L.549,4.633a3.485,3.485,0,0,0,2.3,5.328A4.06,4.06,0,0,0,3.381,10,3.857,3.857,0,0,0,6.264,8.7a3.86,3.86,0,0,0,5.766,0,3.86,3.86,0,0,0,5.766,0A3.87,3.87,0,0,0,20.678,10a4.016,4.016,0,0,0,.535-.035A3.481,3.481,0,0,0,23.518,4.633ZM20.686,11.25a4.956,4.956,0,0,1-1.152-.148V15h-15V11.1a5.175,5.175,0,0,1-1.152.148,5.271,5.271,0,0,1-.7-.047,4.913,4.913,0,0,1-.641-.141v7.688A1.249,1.249,0,0,0,3.287,20h17.5a1.249,1.249,0,0,0,1.25-1.25V11.063a3.988,3.988,0,0,1-.641.141A5.433,5.433,0,0,1,20.686,11.25Z" transform="translate(-0.004)" fill="#fff"/>
</svg>
