<svg xmlns="http://www.w3.org/2000/svg" width="147.8" height="147.797" viewBox="0 0 147.8 147.797">
  <g id="Group_3300" data-name="Group 3300" transform="translate(-320 -1457)">
    <g id="Rectangle_3040" data-name="Rectangle 3040" transform="translate(320 1457)" fill="rgba(75,164,255,0.2)" stroke="#4ba4ff" stroke-linecap="round" stroke-width="3" stroke-dasharray="4 6">
      <rect width="147.8" height="147.797" rx="10" stroke="none"/>
      <rect x="1.5" y="1.5" width="144.8" height="144.797" rx="8.5" fill="none"/>
    </g>
    <g id="Group_2873" data-name="Group 2873" transform="translate(341.26 1496.996)">
      <text id="Upload_File" data-name="Upload File" transform="translate(53 71.145)" fill="#4ba4ff" font-size="18" font-family="SFProText-Regular, SF Pro Text"><tspan x="-47.575" y="0">Upload File</tspan></text>
      <g id="Icon_feather-upload-cloud" data-name="Icon feather-upload-cloud" transform="translate(30.048)">
        <path id="Path_3837" data-name="Path 3837" d="M28.573,26.287,20.287,18,12,26.287" transform="translate(2.513 0.64)" fill="none" stroke="#4ba4ff" stroke-linecap="round" stroke-linejoin="round" stroke-width="3"/>
        <path id="Path_3838" data-name="Path 3838" d="M18,18V36.645" transform="translate(4.799 0.64)" fill="none" stroke="#4ba4ff" stroke-linecap="round" stroke-linejoin="round" stroke-width="3"/>
        <path id="Path_3839" data-name="Path 3839" d="M41.672,36.381a10.358,10.358,0,0,0-4.951-19.453h-2.61A16.573,16.573,0,1,0,5.646,32.052" transform="translate(-1.492 -4.503)" fill="none" stroke="#4ba4ff" stroke-linecap="round" stroke-linejoin="round" stroke-width="3"/>
        <path id="Path_3840" data-name="Path 3840" d="M28.573,26.287,20.287,18,12,26.287" transform="translate(2.513 0.64)" fill="none" stroke="#4ba4ff" stroke-linecap="round" stroke-linejoin="round" stroke-width="3"/>
      </g>
    </g>
  </g>
</svg>
