<svg id="Group_78" data-name="Group 78" xmlns="http://www.w3.org/2000/svg" width="121.265" height="107.951" viewBox="0 0 121.265 107.951">
  <g id="Group_1" data-name="Group 1" transform="translate(16.738 67.194)">
    <path id="Path_1" data-name="Path 1" d="M430.688-203.118l.016-.005h.005" transform="translate(-430.688 203.124)" fill="#f4444f"/>
  </g>
  <g id="Group_2" data-name="Group 2" transform="translate(16.738 67.194)">
    <path id="Path_2" data-name="Path 2" d="M430.688-203.118l.016-.005h.005" transform="translate(-430.688 203.124)" fill="#f4444f"/>
  </g>
  <g id="Group_3" data-name="Group 3" transform="translate(17.052 83.841)">
    <path id="Path_3" data-name="Path 3" d="M438.944-171.814a.638.638,0,0,1-.106.021l-7.561.978,0-.011Z" transform="translate(-431.277 171.814)" fill="#f4444f"/>
  </g>
  <g id="Group_4" data-name="Group 4" transform="translate(15.308 105.997)">
    <path id="Path_4" data-name="Path 4" d="M431.633-130.144l-3.419.447c-.074.011-.149.016-.217.021Z" transform="translate(-427.997 130.144)" fill="#f4444f"/>
  </g>
  <g id="Group_5" data-name="Group 5" transform="translate(16.44 83.841)">
    <path id="Path_5" data-name="Path 5" d="M438.405-171.814a.638.638,0,0,1-.106.021l-7.561.978-.383.048a1.736,1.736,0,0,1-.229.021l.617-.08Z" transform="translate(-430.126 171.814)" fill="#f4444f"/>
  </g>
  <g id="Group_6" data-name="Group 6" transform="translate(16.44 83.841)">
    <path id="Path_6" data-name="Path 6" d="M438.405-171.814a.638.638,0,0,1-.106.021l-7.561.978-.383.048a1.736,1.736,0,0,1-.229.021l.617-.08Z" transform="translate(-430.126 171.814)" fill="#f4444f"/>
  </g>
  <g id="Group_7" data-name="Group 7" transform="translate(0 59.299)">
    <path id="Path_7" data-name="Path 7" d="M505.465-213.471l-9.246,29.887a3.47,3.47,0,0,1-2.871,2.419l-59.777,7.87a.007.007,0,0,1-.01,0l-14.979,1.962-.431.058-3.636.468H414.5l-11.3,1.457a3.533,3.533,0,0,1-3.956-3.057,3.363,3.363,0,0,1-.032-.457,3.535,3.535,0,0,1,3.084-3.5l9.368-1.207.005-.011,6.662-.856a3.535,3.535,0,0,0,3.084-3.5,3.283,3.283,0,0,0-.032-.457,3.532,3.532,0,0,0-3.955-3.057l-3.461.447v-.005l-2.282.292a3.541,3.541,0,0,1-3.961-3.057,3.222,3.222,0,0,1-.032-.457,3.545,3.545,0,0,1,3.09-3.5l4.87-.627a1.733,1.733,0,0,0,.229-.021l.383-.048,7.561-.978a.638.638,0,0,0,.106-.021,3.522,3.522,0,0,0,2.982-3.477,3.446,3.446,0,0,0-.031-.457,3.535,3.535,0,0,0-3.961-3.057l-4.355.558h-.005l-.9.117a3.537,3.537,0,0,1-3.961-3.052,3.146,3.146,0,0,1-.027-.452,3.537,3.537,0,0,1,3.084-3.509l5.263-.681a3.225,3.225,0,0,1,.453-.027h.005a3.191,3.191,0,0,1,.6-.138l78.621-10.337A3.48,3.48,0,0,1,505.465-213.471Z" transform="translate(-399.207 217.972)" fill="#ed3c60"/>
  </g>
  <g id="Group_8" data-name="Group 8" transform="translate(19.375 103.976)">
    <path id="Path_8" data-name="Path 8" d="M450.625-133.944a3.094,3.094,0,0,1-.441.09l-14.537,1.872Z" transform="translate(-435.646 133.944)" fill="#f4444f"/>
  </g>
  <g id="Group_9" data-name="Group 9" transform="translate(31.395 65.672)">
    <path id="Path_9" data-name="Path 9" d="M466.674-193.017l4.717-.625-6.892,20.12,7.582-1.005-1.472,4.338-12.356,1.639Z" transform="translate(-458.253 200.205)" fill="#fff"/>
    <path id="Path_10" data-name="Path 10" d="M495.375-197.737l12.425-1.648-1.5,4.325-7.675,1.018-1.877,5.406,7.282-.966-1.547,4.384-7.256.962-2.09,6.022,7.437-.987-1.508,4.343-12.216,1.62Z" transform="translate(-471.644 202.895)" fill="#fff"/>
    <path id="Path_11" data-name="Path 11" d="M525.9-201.415l14.068-1.866-1.5,4.325-4.686.622-6.919,20.141-4.68.621,6.883-20.136-4.613.612Z" transform="translate(-488.19 204.719)" fill="#fff"/>
    <path id="Path_12" data-name="Path 12" d="M563.778-203.9l-3.286,3.832a14.373,14.373,0,0,0-1.868-1.175,2.736,2.736,0,0,0-1.617-.265,4.174,4.174,0,0,0-2.308,1.079,3.922,3.922,0,0,0-1.255,2.131,1.762,1.762,0,0,0,.505,1.764,8.158,8.158,0,0,0,2.707,1.385,11.619,11.619,0,0,1,2.023,1.448,3.789,3.789,0,0,1,.83,1.668,5.489,5.489,0,0,1,.008,2.586,10.5,10.5,0,0,1-3.341,5.592,10.6,10.6,0,0,1-5.851,2.9,7.848,7.848,0,0,1-6.652-2.141l3.422-3.833q.77.538,1.774,1.179a3.13,3.13,0,0,0,2.157.487,4.233,4.233,0,0,0,2.332-1.154,4.151,4.151,0,0,0,1.332-2.213,1.914,1.914,0,0,0-.472-1.84,5.777,5.777,0,0,0-2.309-1.259,7.886,7.886,0,0,1-2.224-1.021,3.965,3.965,0,0,1-1.1-1.66,5.306,5.306,0,0,1-.079-3.057,10.266,10.266,0,0,1,3.342-5.6,11.109,11.109,0,0,1,6.079-2.851A6.564,6.564,0,0,1,563.778-203.9Z" transform="translate(-498.255 205.986)" fill="#fff"/>
  </g>
  <g id="Group_33" data-name="Group 33" transform="translate(6.961 0)">
    <g id="Group_15" data-name="Group 15" transform="translate(31.926 25.132)">
      <g id="Group_14" data-name="Group 14">
        <path id="Path_16" data-name="Path 16" d="M472.381-282.231c-.016.106-.027.213-.037.319.005-.106.016-.213.021-.319Z" transform="translate(-472.344 282.231)" fill="#ed3c60"/>
      </g>
    </g>
    <g id="Group_17" data-name="Group 17" transform="translate(31.926 25.132)">
      <g id="Group_16" data-name="Group 16">
        <path id="Path_17" data-name="Path 17" d="M472.381-282.231c-.016.106-.027.213-.037.319.005-.106.016-.213.021-.319Z" transform="translate(-472.344 282.231)" fill="#ed3c60"/>
      </g>
    </g>
    <g id="Group_19" data-name="Group 19" transform="translate(31.926 25.132)">
      <g id="Group_18" data-name="Group 18">
        <path id="Path_18" data-name="Path 18" d="M472.381-282.231c-.016.106-.027.213-.037.319.005-.106.016-.213.021-.319Z" transform="translate(-472.344 282.231)" fill="#ed3c60"/>
      </g>
    </g>
    <g id="Group_21" data-name="Group 21" transform="translate(80.279 8.745)">
      <g id="Group_20" data-name="Group 20">
        <path id="Path_19" data-name="Path 19" d="M563.965-313.051c-.229.117-.457.25-.681.383" transform="translate(-563.284 313.051)" fill="#ed3c60"/>
      </g>
    </g>
    <g id="Group_23" data-name="Group 23" transform="translate(89.354 21.288)">
      <g id="Group_22" data-name="Group 22">
        <path id="Path_20" data-name="Path 20" d="M580.922-278.008a28.162,28.162,0,0,0,.255-3.812,28.39,28.39,0,0,0-.824-6.8l2.079-.1.271-.016,12.66-.638.654-.032,1.1-.053a6.792,6.792,0,0,0-.1,1.191,6.956,6.956,0,0,0,.9,3.451Z" transform="translate(-580.353 289.461)" fill="#ed3c60"/>
      </g>
    </g>
    <g id="Group_25" data-name="Group 25" transform="translate(107.721 17.167)">
      <g id="Group_24" data-name="Group 24">
        <path id="Path_21" data-name="Path 21" d="M621.478-291.825a3.475,3.475,0,0,1-.17,1.079,3.524,3.524,0,0,1-1.276,1.776,3.5,3.5,0,0,0-1.329-.776,3.5,3.5,0,0,0-2.845.308,2.483,2.483,0,0,0-.319.2c-.011.011-.021.016-.027.021l-.064.048a2.018,2.018,0,0,1-.1-.25,6.9,6.9,0,0,1-.4-1.59,6.944,6.944,0,0,1-.059-.877,7.518,7.518,0,0,1,.112-1.287,6.728,6.728,0,0,1,.245-.957,7.041,7.041,0,0,1,1.717-2.786c.1-.1.207-.2.319-.3a3.494,3.494,0,0,1,.521,1.85,3.525,3.525,0,0,1-.51,1.829,3.418,3.418,0,0,1,1.728-.553,1.022,1.022,0,0,1,.18-.011,3.464,3.464,0,0,1,1.787.489A3.525,3.525,0,0,1,621.478-291.825Z" transform="translate(-614.896 297.211)" fill="#ed3c60"/>
      </g>
    </g>
    <g id="Group_27" data-name="Group 27" transform="translate(31.926 25.132)">
      <g id="Group_26" data-name="Group 26">
        <path id="Path_22" data-name="Path 22" d="M472.381-282.231c-.016.106-.027.213-.037.319.005-.106.016-.213.021-.319Z" transform="translate(-472.344 282.231)" fill="#ed3c60"/>
      </g>
    </g>
    <g id="Group_29" data-name="Group 29" transform="translate(31.947 25.132)">
      <g id="Group_28" data-name="Group 28">
        <path id="Path_23" data-name="Path 23" d="M472.4-282.231h-.016" transform="translate(-472.384 282.231)" fill="#ed3c60"/>
      </g>
    </g>
    <g id="Group_32" data-name="Group 32">
      <g id="Group_30" data-name="Group 30">
        <path id="Path_24" data-name="Path 24" d="M444.807-292.337v-.005a.731.731,0,0,0-.1.037,1.228,1.228,0,0,0-.271.117c-.043.021-.085.048-.128.074-.064.037-.122.08-.181.122s-.111.1-.164.149a1.629,1.629,0,0,0-.16.181.585.585,0,0,0-.064.09c-.042.058-.079.117-.116.181a.763.763,0,0,0,.6.292.76.76,0,0,0,.76-.76A.737.737,0,0,0,444.807-292.337Zm.208-.867-.17.032c.064-.011.122-.021.181-.027Zm52.261-20.369a28.248,28.248,0,0,0-4.658-6.816c-.186-.2-.372-.4-.564-.59l-.005-.005a28.251,28.251,0,0,0-20.237-8.513h-.005a28.2,28.2,0,0,0-20.019,8.295,28.235,28.235,0,0,0-8.045,16.249.053.053,0,0,1,0,.027c-.021.191-.048.388-.069.585.011-.106.021-.213.032-.314s.016-.213.021-.319h-.015c-.2-.011-.388-.016-.585-.016a10.582,10.582,0,0,0-4.589,1.042,10.615,10.615,0,0,0-2.92,2.068,10.085,10.085,0,0,0-1.26,1.526.023.023,0,0,0-.005.027,10.179,10.179,0,0,0,1.053,2.249c.106.17.212.335.33.5a10.455,10.455,0,0,0,1.18,1.4,10.443,10.443,0,0,0,2.733,1.973.023.023,0,0,0,.037-.011,3.483,3.483,0,0,1,.771-1.159,3.459,3.459,0,0,1,.665-.521c.079-.048.165-.09.245-.133.016-.011.021-.032.005-.043a10.29,10.29,0,0,1-.9-1.1,10.1,10.1,0,0,1-.84-1.4c.207-.016.415-.021.622-.021a10.625,10.625,0,0,1,2.393.276c.015,0,.026.021.026.037-.1.4-.2.792-.3,1.186q-.144.55-.3,1.085h.011c.09-.016.207-.037.329-.048l.155-.016c.2-.021.415-.032.653-.037h.1a7.533,7.533,0,0,1,2.776.532l.1.053c.058.048.112.1.165.154l.005.005.016.021a3.872,3.872,0,0,1,1.138,2.76,4.084,4.084,0,0,1-.064.712l-.016.09a3.95,3.95,0,0,1-1.074,1.978,3.911,3.911,0,0,1-2.781,1.154,2.538,2.538,0,0,1-.351-.021,3.851,3.851,0,0,1-1.829-.643l-.064-.048a.784.784,0,0,1-.117-.149,2.393,2.393,0,0,1-.138-.2,6.423,6.423,0,0,1-.755-1.356,45.624,45.624,0,0,1-5.4,9.486c-.011.016-.021.027-.032.043-.436.59-.888,1.164-1.351,1.733-.016.021-.032.037-.048.058q-1.435,1.747-3.03,3.344c-.266.271-.532.532-.8.787-.521.494-1.047.978-1.589,1.446-.053.043-.1.09-.154.128-.261.223-.521.441-.782.659a1.017,1.017,0,0,0-.116.09.489.489,0,0,0-.058.053,45.69,45.69,0,0,1-14.452,7.928.3.3,0,0,0,.138.574l4.313-.585L437-268.044l38.293-5.03.521-.069a28.205,28.205,0,0,0,16.02-8.013,28.311,28.311,0,0,0,5.338-7.417l.086-.175a28.178,28.178,0,0,0,2.871-12.431A28.221,28.221,0,0,0,497.275-313.574Zm-17.956,19.9a10.562,10.562,0,0,1-7.508,3.11,10.584,10.584,0,0,1-7.513-3.11,10.542,10.542,0,0,1-1.515-1.909,10.573,10.573,0,0,1-1.542-6.7,10.646,10.646,0,0,1,9.507-9.464,10.585,10.585,0,0,1,8.571,3.057,10.6,10.6,0,0,1,2.249,3.313,10.607,10.607,0,0,1,.861,4.2A10.562,10.562,0,0,1,479.32-293.672Z" transform="translate(-412.3 329.498)" fill="#ed3c60"/>
      </g>
      <g id="Group_31" data-name="Group 31" transform="translate(28.242 34.188)">
        <path id="Path_25" data-name="Path 25" d="M471.027-262.141a1.817,1.817,0,0,1,.489.314v.011a3.13,3.13,0,0,1-.856,1.563,3.135,3.135,0,0,1-2.217.92,2.47,2.47,0,0,1-.277-.016,3.077,3.077,0,0,1-1.41-.479l-.021-.032a6.181,6.181,0,0,1-.43-.638,6.538,6.538,0,0,1-.436-.888l-.085-.213c-.021-.053-.037-.106-.059-.159s-.032-.117-.054-.176c-.01-.043-.026-.09-.037-.133-.021-.08-.043-.165-.064-.25l-.011-.048c0-.016,0-.027-.011-.027-.015-.08-.031-.154-.047-.255l-.021-.106a1.63,1.63,0,0,1-.021-.165,2.865,2.865,0,0,1-.043-.367,3,3,0,0,1,.808-1.4,2.892,2.892,0,0,1,.373-.324l.08-.016a.977.977,0,0,1,.133-.027c.074-.016.154-.037.266-.053.064-.011.128-.021.181-.032.021,0,.048-.005.064-.005l.2-.021c.112-.011.229-.021.356-.027.1-.005.2-.005.308-.005a6.727,6.727,0,0,1,2.419.452l.054.053.005.005a3.055,3.055,0,0,1,.9,1.919c-.069-.037-.138-.069-.207-.1a2.824,2.824,0,0,0-.612-.191,2.662,2.662,0,0,0-.845-.027l-.011-.005-.17.032a2.839,2.839,0,0,0-1.436.76,2.829,2.829,0,0,0-.6.877l-.069.165.074.159a1.55,1.55,0,0,0,1.41.909,1.557,1.557,0,0,0,1.558-1.558,1.516,1.516,0,0,0-.1-.532.113.113,0,0,1,.042.005A1.586,1.586,0,0,1,471.027-262.141Z" transform="translate(-465.417 265.198)" fill="#ed3c60"/>
      </g>
    </g>
  </g>
</svg>
