<svg data-v-051b5016="" data-v-1d20a21b="" version="1.1" viewBox="0 0 50 50" fill="#797e82"><path pid="0" d="M47.75 3.87a1.32 1.32 0 0 0-1-.59h-.4a21.84 21.84 0 0 0-2.3-.22c-2.52 0-5-.06-7.06-.06H37 26.31c-.63 0-1.28.08-1.91.13-.63.05-1.52.13-2.28.16a35 35 0 0 0-3.74.46c-1.38.21-2.64.44-3.85.7-.87.19-1.74.42-2.58.65l-1.12.29c-.23.06-.62.16-.6.64 0 0 0 .07-.12.13l-.64.48c-.62.47-1.25 1-1.89 1.4L7 8.49a14.62 14.62 0 0 0-2.34 1.83 1 1 0 0 1-.3.19.52.52 0 0 0-.32.62v.1a2.209 2.209 0 0 0 0 .25c.18.72.29 1.47.41 2.19.07.45.14.92.23 1.38.41 2.1.76 4.05 1.09 6 .24 1.4.55 3.24.81 5.09.17 1.28.28 2.58.38 3.83.14 1.75.31 3.73.41 5.69.08 1.39.12 2.81.16 4.18v3.56c0 .35 0 .35-.36.42l-.55.09c-.49.08-1 .16-1.48.27l-.48.1a8.88 8.88 0 0 0-2.11.6h-.1c-.27.111-.522.26-.75.44a1.64 1.64 0 0 0-.62 1.63c.12.64.65.83 1.11 1 .81.295 1.668.44 2.53.43h3.15c.89 0 1.83 0 2.76-.11.51 0 1-.12 1.51-.2l.93-.13.55-.07c.75-.1 1.52-.2 2.28-.25.76-.05 1.76-.09 2.61-.12h1.62v.06h.64l1.13-.08 1.06-.1c.4 0 .8-.09 1.21-.12l1.13-.08c.43 0 .85-.05 1.27-.09l1.34-.14 1.09-.2 3.29-.31h.31c.52 0 1-.1 1.58-.11a5.331 5.331 0 0 0 1.82-.38 1.32 1.32 0 0 1 .3-.08h.07c.7-.16.92-.43.94-1.16v-.28c0-.56 0-1.14.08-1.71.14-1.36.32-3 .56-4.62.24-1.62.54-3.46.76-4.77l.1-.56c.3-1.76.62-3.58 1-5.35.33-1.59.72-3.15 1.2-5 .35-1.34.7-2.54 1.09-3.69.39-1.15.8-2.27 1.36-3.65s1-2.51 1.54-3.73c.35-.84.7-1.68 1-2.53.3-.85.7-1.71 1-2.57.25-.61.5-1.23.74-1.84a.51.51 0 0 0 .01-.54zM8.37 46.11a3.2 3.2 0 0 0 .09-.49l.06-.53c.06-.6.13-1.23.14-1.86v-4.21c0-2.44-.1-4.43-.19-6.26-.05-1.33-.18-2.64-.31-4-.01-.2-.01-.4 0-.6v-.1a4.529 4.529 0 0 0-.05-.53 2.36 2.36 0 0 1 0-.28v-.37-.43c0-.31-.07-.57-.12-.8-.05-.23-.11-.57-.17-.86-.06-.29-.09-.5-.14-.75a.76.76 0 0 1 0-.15 1.15 1.15 0 0 0 0-.19l-.15-.9c-.34-1.12-.53-2.25-.73-3.37-.16-.95-.34-1.89-.52-2.84l-.19-1a9.962 9.962 0 0 1-.15-.84l-.06-.28.47-.1 1.17-.23c2.32-.4 4.71-.63 7-.86h.28l5.6-.51 3.24-.28 2.1-.2c1.3-.13 2.66-.26 4-.35 1-.07 2-.09 3-.1h5.61a.75.75 0 0 1 0 .16c-.25.75-.51 1.5-.77 2.25-.55 1.61-1.12 3.27-1.67 4.92-.28.86-.65 2-.93 3.18-.38 1.55-.7 3.1-1 4.61-.3 1.51-.53 3.14-.77 5-.2 1.47-.36 3-.52 4.42v.46c-.2 1.85-.38 3.73-.56 5.54v.2c0 .42-.07.84-.1 1.26 0 .22 0 .43-.05.64v.32h-.14c-8.41.26-16 .71-23.36 1.37l-.11-.06zm2.92-33.42a1.78 1.78 0 0 1-.53.08 2.73 2.73 0 0 0-.49.06L10 10.75l1-.17.29 2.11zm-3.59.55a5.22 5.22 0 0 1-.18-1.06 6.281 6.281 0 0 0-.15-1l1.53-.25.33 2.06-1.53.25zm6.2-.84l-1.49.17-.33-2.12 1.43-.2.39 2.15zm25-1.93a.451.451 0 0 1-.07.14c-.08.01-.16.01-.24 0 .06-.39.16-.78.26-1.18.1-.4.13-.52.19-.78l.56.08-.17.44-.53 1.3zm-1.08-1.92l-.34 2h-.78l.24-2.07.88.07zm-2.2-.12l-.1 2.19-1.47.07a7.46 7.46 0 0 1 0-1.33v-1a5.65 5.65 0 0 1 .92 0l.65.07zM33 8.37l-.1 2.32h-.58a5.63 5.63 0 0 1-.92 0l.1-2.31a5.05 5.05 0 0 1 1.17-.05l.33.04zm-4.38.17l1.6-.08-.1 2.34-1.41.13a6.001 6.001 0 0 1-.11-1.28c.01-.37 0-.74-.03-1.11h.05zm-1.13 2.48l-.7.08.1-2.45h.43l.17 2.37zm-1.76.19l-1.57.17-.22-2.5 1.64-.13.15 2.46zm-2.7.29c-.295.044-.592.07-.89.08h-.32l-.3-2.45 1.19-.14.32 2.51zm-2.36.25l-1.47.15-.05-.25c0-.33-.11-.64-.16-.95-.05-.31-.08-.57-.13-.88l-.05-.31 1.42-.19.44 2.43zm-2.8.29l-.63.05-.32-2.34.6-.09.35 2.38zm-2-2.11a5.78 5.78 0 0 0 .38 2.24 3.829 3.829 0 0 1-1.07.13h-.23l-.36-2.18 1.28-.19zm29.9-5.31a42.139 42.139 0 0 0-4.84 2.78 1 1 0 0 1-.85.15 17.62 17.62 0 0 0-3.14-.28h-1.42c-1.1 0-2.24-.08-3.37-.09-.78 0-1.58 0-2.35.07h-1.9c-.9.06-1.9.1-2.9.16s-2.18.19-3.1.3c-1.69.2-3.45.43-5.21.67-.5.07-1 .16-1.48.24l-.9.13-2 .33-3.36.53-1.79.35-.91.19.07-.06.65-.47 1.12-.79 2.43-1.73c.18-.13.34-.29.5-.43.116-.118.24-.228.37-.33a1.45 1.45 0 0 1 .5-.3 52.999 52.999 0 0 1 6.43-1.26c1.64-.19 3.34-.34 5-.46 1.2-.08 2.51-.13 4.1-.15H41.79c.91 0 1.87.07 3 .16.336.029.67.079 1 .15h.22l-.24.14zm-12.92 40a5.487 5.487 0 0 1 0-.7c.16-1.48.34-3 .52-4.43.12-1 .24-2 .37-3l.27-2.14.12-1c.08-.61.15-1.22.23-1.83.11-.82.24-1.63.38-2.41l.14-.78c.2-1.15.41-2.34.66-3.49a66.665 66.665 0 0 1 2.08-7.46c.6-1.77 1.2-3.58 1.78-5.33a.821.821 0 0 1 .45-.54c1.08-.5 2.16-1 3.21-1.54l1.44-.7.23-.09c-.15.33-.29.65-.44 1-.4.88-.78 1.72-1.12 2.57-.75 1.85-1.47 3.73-2.15 5.57a59.581 59.581 0 0 0-2 7.06c-.49 2.21-.91 4.61-1.27 7.31-.07.53-.15 1.06-.22 1.59-.16 1.16-.33 2.35-.46 3.53-.1 1-.18 2-.25 2.94-.05.74-.11 1.51-.18 2.26-.049.423-.119.844-.21 1.26 0 .17-.07.33-.1.49a15.712 15.712 0 0 1-3.55.16c.037-.11.06-.224.07-.34v.04zM45.33 7.66a39.538 39.538 0 0 0-4.66 2.3l-.37.21c-.104.06-.21.113-.32.16l.08-.22c.12-.35.24-.71.38-1a.45.45 0 0 1 .22-.21l3.07-1.7 1.49-.82.86-.48.24-.15c-.23.53-.49 1.12-.77 1.69a.45.45 0 0 1-.22.22zm-39 3.71l.39 2.06-1 .27-.49-2.12 1.1-.21z" _fill="#282828"></path><path pid="1" d="M18.94 36.37c-.32 0-.33.32-.34.5 0 .33 0 .66-.05 1v.27l-2.3.31-.2-2.7 1.76-.23a3.23 3.23 0 0 0 .51-.09.42.42 0 0 0 .27-.37.48.48 0 0 0-.27-.36.76.76 0 0 0-.32.05h-2l-.5-2.7h.28l.7-.05h.89a.84.84 0 0 0 .76-.55v-.08a.71.71 0 0 0-.69-.56h-.14a7.61 7.61 0 0 0-.83 0l-3.09.24-1.25.1a3.024 3.024 0 0 0-.31 0 1 1 0 0 0-.87.78c0 .1 0 .2-.07.31-.07.32-.14.65-.18 1v.32a20.866 20.866 0 0 0-.17 2.19c0 .63.1 1.26.18 1.87l.09.68a1.89 1.89 0 0 0 1.55 1.73c.236.059.477.09.72.09.335-.01.669-.04 1-.09h.17l2.1-.29 1.66-.27h.52c.207-.01.415-.03.62-.06a.8.8 0 0 0 .63-.78c-.09-.64-.19-1.22-.29-1.78a.47.47 0 0 0-.54-.48zm-4.44-1.62l-2.79.29a17.914 17.914 0 0 1 .12-3l2.65.11.02 2.6zM12.7 39c-.5-.09-.7-.27-.74-.67 0-.17 0-.34-.06-.51-.06-.17-.05-.35-.06-.53-.01-.18 0-.48-.05-.74v-.2l2.85-.32.42 2.62-.41.08c-.53.11-1 .22-1.54.31-.136.023-.275.02-.41-.01V39zM22.77 27.83a1.656 1.656 0 0 0-.33-.12l-.92-.15h-.26L21 22.98l.18-.09c.19-.1.41-.2.42-.5a.42.42 0 0 0-.49-.19.32.32 0 0 1-.17 0l-.35-4.54.3 1 .92 3a.462.462 0 0 0 .23.29.32.32 0 0 0 .27 0 .62.62 0 0 0 .37-.37 1.828 1.828 0 0 0 0-.7v-.22a13.824 13.824 0 0 0-.7-2.8c-.25-.6-.58-1.166-.98-1.68a.84.84 0 0 0-.58-.37 1.001 1.001 0 0 0-.8.22c-.167.125-.318.27-.45.43a5.88 5.88 0 0 0-1.16 3.44c-.066 1.409-.01 2.82.17 4.22.13 1.21.28 2.43.43 3.58.1.72.44 1.05 1.13 1.05.68 0 1.36-.06 2-.11h.27a1.37 1.37 0 0 0 .53-.16 1 1 0 0 0 .23-.19l.15-.14.15-.13-.07-.1-.23-.09zm-3.22-5.41l-.44.1a9.88 9.88 0 0 1 .34-4.56l.1 4.46zm-.34.86l.16-.06a.44.44 0 0 1 .22 0s.05.1.06.22l.06.7c0 .3 0 .6.07.9.06.5.13 1 .2 1.5 0 .26.07.52.1.78a.533.533 0 0 1 0 .13h-.32c-.26-1.44-.45-2.81-.58-4.15l.03-.02zM31.82 27.25a.4.4 0 0 0-.07-.33.39.39 0 0 0-.56-.09 1.35 1.35 0 0 1-.8.18 22.372 22.372 0 0 0 0-3.57c0-.5-.06-1-.08-1.55l.16-.07c.176-.081.347-.175.51-.28a.4.4 0 0 0 .15-.29v-.1l.05-.12h-.21a.57.57 0 0 0-.27-.07 3.062 3.062 0 0 0-.4.07h-.07L30 16.17c.176.177.295.404.34.65.13.594.18 1.203.15 1.81-.013.195.004.39.05.58a.45.45 0 0 0 .33.31.47.47 0 0 0 .4-.2 1.18 1.18 0 0 0 .18-.47c0-.2 0-.41.05-.61a5 5 0 0 0-.5-2.49 1.59 1.59 0 0 0-1.46-.95 1.54 1.54 0 0 0-1.43.9c-.07.132-.13.269-.18.41v.07c-.34.993-.532 2.03-.57 3.08-.08 1.17-.13 2.37-.18 3.53v1.12c-.085.948-.041 1.904.13 2.84.15.62.38 1.21 1.09 1.36.365.076.737.117 1.11.12a3.43 3.43 0 0 0 1.13-.18 4.36 4.36 0 0 0 .94-.52.479.479 0 0 0 .24-.28zm-3.12-6v-.21a21 21 0 0 1 .41-4.09l.13 4.22-.54.08zm1.09 5.77c-1.07.09-1.08.05-1.23-.91a5.748 5.748 0 0 1 0-.83v-.25-2.82l.82-.09c.264 1.617.401 3.252.41 4.89v.01zM10.91 28.66a.93.93 0 0 0 .92.67h.31l.33-.11h.11c.09-.024.177-.058.26-.1a.732.732 0 0 1 .6-.1.31.31 0 0 0 .33-.13.93.93 0 0 1 .54-.4l.26-.12a.999.999 0 0 0 .23-.18l.1-.08.11-.1-.11-.09a.71.71 0 0 0-.8-.1 1.451 1.451 0 0 1-.26.07l-.5-3.48a1.58 1.58 0 0 1 .38-.15.91.91 0 0 0 .67-.5v-.11c-.26-.46-.62-.36-.9-.29a1.22 1.22 0 0 1-.3.06l-.95-5.75h.08c.215.128.413.283.59.46.316.394.554.846.7 1.33l.09.23c.13.35.35.37.52.31.17-.06.33-.15.26-.5a4.19 4.19 0 0 0-1.23-2.45 1.658 1.658 0 0 0-1.37-.4 1.369 1.369 0 0 0-1 .7l-.09.16c-.09.123-.154.262-.19.41 0 .14-.06.29-.1.43a9.829 9.829 0 0 0-.26 1.61v3.81c0 1 .12 2.07.26 3.36.08.524.217 1.037.41 1.53zm.64-9.17l.5 4.06-.44.11c-.14-1.386-.16-2.78-.06-4.17zm.69 5.2l.73 3.4h-.18l-.64.13h-.07c-.01 0-.05-.05-.06-.16-.06-.41-.11-.84-.16-1.29-.05-.45-.08-.93-.13-1.41v-.52l.51-.15zM27 38.62h-.1l-.34.05h-.72v-.43-1.17c0-.39 0-.8.05-1.2v-.46l.15-.06.63-.22a.57.57 0 0 0 .33-.28.33.33 0 0 0 0-.26.73.73 0 0 0-.41-.27h-.07a.36.36 0 0 0-.23 0h-.52l-.05-3.27a.94.94 0 0 1 0 .13.83.83 0 0 0 .45.62l.12.06.05-.13.07-.14a.58.58 0 0 0 .1-.36 2.49 2.49 0 0 0-.59-1.39 1 1 0 0 0-.66-.3 1.2 1.2 0 0 0-1 .7c-.123.28-.226.567-.31.86a21 21 0 0 0-.67 6.4c.022.404.076.805.16 1.2v.06a1 1 0 0 0 .75.77c.37.108.754.162 1.14.16a5 5 0 0 0 1.82-.37c.16-.07.45-.18.37-.52-.08-.34-.38-.2-.52-.18zm-2.75-3.87c.035-.755.139-1.504.31-2.24v2.17l-.31.07zm.66 4c-.51 0-.59-.07-.63-.56-.04-.49-.07-1.14-.1-1.74v-.69h.51l.22 2.99z" _fill="#282828"></path></svg>