<svg data-v-051b5016="" data-v-1d20a21b="" version="1.1" fill="#797e82" viewBox="0 0 50 50"><path pid="0" d="M42.422 4.463a.488.488 0 0 0-.431-.182l-1.542.115-.613.039H39.7c-.089.01-.179.01-.268 0-.077 0-.172-.048-.182-.087a.661.661 0 0 0-.651-.344h-4.091c-.872 0-1.772 0-2.663.067-1.227.057-2.5.124-3.756.115h-9.445c-.508 0-1.026 0-1.514.057h-1.275c-.507 0-1.025 0-1.532.077l-2.27.412-1.342.115-1.715.124a.556.556 0 0 0-.431.192.508.508 0 0 0 0 .45c.018.065.04.13.067.192l-.182.067c-.182.057-.354.105-.517.172a.46.46 0 0 0-.336.604c.018.105.047.207.087.306.086.24.172.489.268.728l.326.891c.098.284.147.582.143.882h-.086l-.278.076a.354.354 0 0 0-.287.374c.004.2.023.398.057.594.025.105.06.208.106.306v.087l-.201.153c-.163.124-.326.24-.48.374a.537.537 0 0 0-.124.804l.077.115a.42.42 0 0 1 .076.106c.143.231.304.452.48.66.175.197.332.408.469.633.373.651.718 1.341 1.044 2.002l.354.728c.23.49.422.996.575 1.514l.067.21c.166.465.291.942.374 1.428.155 1.14.245 2.289.268 3.44 0 .44 0 .88.058 1.302.057.422.047.738.057 1.102 0 1.207 0 2.433.058 3.621v8.718c-.087 1.399-.23 2.807-.364 4.168-.058.584-.115 1.197-.173 1.791v.498c0 .288.096.383.383.393h1.552c.712-.022 1.424.023 2.127.134v.058a1.533 1.533 0 0 0 0 .287c.005.06.005.121 0 .182.043.237.103.471.182.7.153.42.364.517.814.354.45-.163.633-.21 1.006-.316l1.59-.46c.24-.067.49-.115.738-.173h.096l.431-.086.565-.124 3.478-.795 1.514-.365 1.188-.287.555-.115h.182a4.12 4.12 0 0 0-.124.307l-.317.814a12.855 12.855 0 0 1-1.302 2.385.824.824 0 0 0-.115.958h.143a.961.961 0 0 0 .288 0l.958-.249.555-.153c.269-.067.537-.144.815-.192a.231.231 0 0 1 .191 0c.297.355.594.719.872 1.073l.067.087.24.316.163.22a.564.564 0 0 0 .45.23h.076c.25 0 .336-.25.393-.412a.965.965 0 0 0 0-.278.461.461 0 0 1 0-.115v-.421l.058-.661v-.336c0-.297.048-.603.057-.9.01-.297 0-.537 0-.795V44.44a2.25 2.25 0 0 1 0-.249 2.796 2.796 0 0 1 .125-.881l.737-.144.182.632c.183.633.374 1.284.546 1.916.057.185.096.374.115.566v2.366c.003.17.043.336.115.489a.412.412 0 0 0 .336.249.394.394 0 0 0 .354-.182c.101-.176.173-.367.211-.566 0-.124.057-.268.077-.392.019-.125 0-.297.086-.441.105-.383.22-.757.325-1.13l.163-.537.058-.24v-.076h.096l.747.182 1.37.325c.203.033.41.033.613 0a.498.498 0 0 0 .383-.268.613.613 0 0 0 0-.546 5.098 5.098 0 0 0-.785-1.073 7.668 7.668 0 0 1-.958-1.475h.095l.345-.105.297-.096c.269-.077.537-.163.815-.23l1.034-.201.326-.058.22-.048c.193-.043.388-.071.585-.086.258 0 .402-.067.479-.172.076-.106.086-.269 0-.508-.087-.24-.087-.326-.134-.498V40.8h.076l.269-.106a1.073 1.073 0 0 0 .66-.747.871.871 0 0 0 0-.498v-.153c0-.259-.086-.518-.124-.786-.115-.7-.24-1.427-.335-2.146a81.336 81.336 0 0 1-.412-3.382c-.096-.996-.154-1.753-.22-2.605 0-.431-.068-.863-.106-1.294v-.47c0-.152-.057-.545-.067-.823-.01-.278 0-.47 0-.709v-.709c-.047-1.28.004-2.56.153-3.832a73.95 73.95 0 0 1 .192-1.523c.067-.498.096-.719.134-1.073.086-.709.172-1.428.249-2.127 0-.45.105-.9.153-1.35l.096-.805c.115-.958.23-1.983.355-2.97.076-.566.153-1.179.277-1.782.173-.891.374-1.782.556-2.606l.067-.287c.224-1.063.508-2.112.853-3.143a.489.489 0 0 0 .22-.412zM9.352 5.766l1.13-.067c.958-.067 1.983-.134 2.98-.182 1.34-.067 2.663-.115 4.243-.163h5.068l1.859.048h6.007-.173l-1.092.182-3.286.575-1.408.268-.728.144-1.073.21-3.583.72-1.15.21-1.485.278-1.341.278-1.35.278-2.3.43-.9.173-.326.058h-.067l-1.035-3.43.01-.01zm5.173 37.18l-1.677-.114v-.173c0-.057 0-.364.048-.536.058-.44.115-.881.163-1.313.115-.9.23-1.839.316-2.759.086-.92.144-2.098.153-3.257v-3.008-.747c0-.604 0-1.217-.067-1.801v-.508a1.18 1.18 0 0 0 0-.192 1.722 1.722 0 0 1 0-.21.277.277 0 0 1 0-.087l.058.211c.067.25.144.508.191.766l.077.403c.144.776.297 1.58.412 2.366.177 1.302.26 2.614.25 3.928v6.275a2.156 2.156 0 0 0 0 .249v.201c.009.099.009.198 0 .297l.076.01zm15.912-1.685c-.019.056-.035.114-.047.172 0 .086-.048.163-.068.25-.067.239-.124.488-.182.727a18.794 18.794 0 0 0-.345 3.037c0 .575-.076 1.169-.124 1.734v.594l-.201-.191a7.655 7.655 0 0 1-.546-.585.862.862 0 0 0-.69-.393c-.111.002-.221.021-.326.058a8.771 8.771 0 0 1-.958.23l-.325.067a9.072 9.072 0 0 0 1.283-2.52c.413-1.056.734-2.146.958-3.257 0-.134.048-.268.067-.402a7.79 7.79 0 0 1 .096-.518.297.297 0 0 1 .134-.153h.086c.02 0 .068.048.096.096l.048.105.125.268c.172.393.402.796.958.7l-.039-.02zm1.083-1.639l-.537.288-.325.182c-.07.047-.144.089-.22.124h-.087c-.067-.076-.124-.163-.182-.24a1.916 1.916 0 0 0-.757-.689l-.852-.335-.345-.134v-.087c0-.143-.086-.297-.125-.45a.85.85 0 0 0 .058-.757 1.938 1.938 0 0 1-.048-.23.68.68 0 0 0-.508-.526l-.21-.03a1.284 1.284 0 0 0-.614-.124.423.423 0 0 1-.143 0v-.076-.278l.057-.364c0-.269.096-.546.125-.824a.565.565 0 0 0-.096-.393c-.134-.201-.288-.393-.431-.575L26.184 34c-.067-.086-.134-.153-.211-.24l-.067-.067h.048c.062-.05.13-.096.201-.134l.47-.22.747-.374a.518.518 0 0 0 .249-.555c0-.192-.067-.384-.096-.575l-.048-.383v-.269h.24l.68-.057a.556.556 0 0 0 .536-.44c.058-.25.144-.49.22-.729l.077-.23c0-.096.067-.191.106-.297v-.067a.777.777 0 0 1 .287.268c.046.065.097.126.153.182l.125.115c.171.178.357.342.555.489.278.192.393.115.585-.115.192-.23.402-.45.623-.68l.23-.25v.087c.057.115.105.201.162.297.058.096.068.115.106.163.11.195.232.384.364.565a.498.498 0 0 0 .776.067.528.528 0 0 1 .144-.077l1.188-.345v.297c0 .288.057.595.095.882.013.132.036.264.067.393a1.3 1.3 0 0 0 0 .163.892.892 0 0 0 .45.584c.237.162.487.304.748.421l.335.163.22.134h.058l-.192.326c-.172.307-.325.584-.47.891-.146.306-.258.627-.334.958a.891.891 0 0 0 .24.824c.115.125.223.256.325.393l.124.143-.287.22c-.278.221-.546.432-.824.623a.613.613 0 0 0-.278.49V39.114a1.859 1.859 0 0 1-.804-.154.393.393 0 0 0-.518.115c-.134.173-.249.364-.364.546l-.201.336a.722.722 0 0 0-.067.115 2.18 2.18 0 0 0-.383-.163 1.177 1.177 0 0 1-.537-.316c-.038-.058-.21-.154-.517.019v.01zm4.292 5.519h-.307l-.958-.154h-.335a.526.526 0 0 0-.632.422 6.002 6.002 0 0 1-.269.766v-.23c0-.067 0-.143-.047-.21a4.001 4.001 0 0 0-.355-1.17.632.632 0 0 1-.057-.239 1.501 1.501 0 0 0 0-.2c-.067-.24-.144-.48-.211-.72-.067-.239-.163-.555-.25-.833a.96.96 0 0 1 0-.24v-.143a.806.806 0 0 0 0-.163l-.488-.958-.105-.22.278-.211.182.115.479.316a.958.958 0 0 0 1.063.163c0 .086.067.172.105.258a12.664 12.664 0 0 0 1.907 3.641v.01zm5.46-39.652l-.172.584a47.35 47.35 0 0 0-1.063 4.704c-.23 1.284-.384 2.606-.527 3.89 0 .23 0 .46-.077.689-.134 1.169-.297 2.357-.45 3.497 0 .354-.096.7-.134 1.054a51.067 51.067 0 0 0-.498 5.843c0 .7 0 1.409.076 2.108v.278c.067 1.13.134 2.29.23 3.44.096 1.149.25 2.528.44 4.224.116.958.25 1.83.394 2.75.047.248.105.498.162.737l.087.326c0 .086 0 .182.067.278v.076l-5.04 1.14a5.064 5.064 0 0 1-.46-1.245v-.105h.125l.527.162.144.058.22.077a.604.604 0 0 0 .527-.087.612.612 0 0 0 .173-.536c0-.345-.068-.69-.106-1.035v-.393c.216-.179.447-.339.69-.479a4.12 4.12 0 0 0 1.14-.958l-.163-.172-.297-.335a1.92 1.92 0 0 1-.182-.269c-.124-.191-.24-.392-.373-.594l-.135-.22.297-.498c.25-.44.518-.891.786-1.341.268-.45.23-.498-.144-.767-.373-.268-.527-.364-.805-.546l-.325-.201c-.163-.105-.326-.201-.48-.316a.316.316 0 0 1-.105-.192c0-.325 0-.66-.057-.958v-.335a1.837 1.837 0 0 0 0-.23.71.71 0 0 0-.278-.517.662.662 0 0 0-.546-.058c-.53.127-1.042.32-1.523.575l-.288-.335-.507-.805a.594.594 0 0 0-.958-.125c-.25.22-.489.45-.748.7l-.297.268-.047-.057a1.628 1.628 0 0 0-.297-.345 2.394 2.394 0 0 0-.604-.46.574.574 0 0 0-.843.21 6.858 6.858 0 0 0-.412.844l-.077.048a3.842 3.842 0 0 0-.172.498l-.067.182h-.144l-.431-.106a4.654 4.654 0 0 0-.527-.076.68.68 0 0 0-.546.172.65.65 0 0 0-.125.518c0 .344.096.699.163 1.034 0 .134.048.278.067.412.02.134 0 .125 0 .182l-1.082.556-.106.057c-.526.307-.536.498-.287 1.025.198.367.465.693.786.958l.153.154-.105.345c-.106.344-.22.699-.326 1.053a.961.961 0 0 0-.048.316c0 .499.134.662.613.776.201.058.402.096.613.135h.23v1.552a.518.518 0 0 0 .393.498l.479.143.191.058a9.396 9.396 0 0 1-.249 1.025c-.067.23-.134.47-.182.709l-.977.278c-.824.163-1.6.316-2.395.508-.354.086-.718.153-1.063.23-.345.076-.613.114-.91.191-.297.077-.71.172-1.054.278l-.297.076-1.274.355-2.386.67-.594.125h-.23v-.163c-.057-.776-.067-1.57-.076-2.337v-1.265c0-.747-.077-1.504-.125-2.242v-.642c-.048-.804-.105-1.743-.182-2.663 0-.412-.096-.824-.143-1.226v-.086c0-.297-.087-.604-.135-.891-.086-.575-.182-1.16-.23-1.744a18.654 18.654 0 0 0-.68-3.219l-.115-.421a12.72 12.72 0 0 1-.153-.575c-.048-.192-.115-.489-.192-.738l-.086-.316c-.134-.47-.268-.958-.45-1.408a12.111 12.111 0 0 1-.431-1.61c-.067-.306-.134-.622-.21-.958-.078-.335-.135-.46-.193-.69-.057-.23-.172-.584-.249-.88a78.777 78.777 0 0 1-.46-1.917 20.433 20.433 0 0 0-1.187-3.506c-.412-.958-.882-1.916-1.447-3.066a9.06 9.06 0 0 0-.546-.958l-.374-.335-.057-.096h.335c.316 0 .604-.048.9-.096 1.505-.249 3-.517 4.264-.737 1.264-.22 2.366-.422 3.516-.633l.297-.057 1.312-.24 1.016-.249.852-.163 2.549-.469 1.255-.22c1.59-.278 3.238-.575 4.866-.834.91-.143 1.84-.249 2.73-.364.45-.057.959-.105 1.37-.172l.959-.134 1.724-.22c.44-.058.891-.087 1.322-.116H38.801l2.117-.373.374-.067-.02.163z" _fill="#282828"></path><path pid="1" d="M34.28 15.854c-.959.106-1.974.22-2.97.355-.805.115-1.62.258-2.405.402l-.834.144c-.9.163-1.82.325-2.73.508-.91.181-1.792.392-2.663.593l-.958.211-1.045.25-1.916.43c-.594.134-1.207.24-1.8.345l-.336.067H16.019c-.383.087-.479.22-.44.623v.402H16.326c.44-.035.878-.092 1.313-.172a132.56 132.56 0 0 0 3.41-.709l2.931-.661 2.443-.47.489-.105c1.207-.268 2.462-.555 3.698-.795a82.937 82.937 0 0 1 3.248-.575l.565-.096a.506.506 0 0 0 .421-.316v-.048c-.143-.383-.172-.421-.565-.383zM17.801 15.26c1.428-.316 2.874-.66 4.263-.958l.958-.23 1.294-.325 1.216-.317.46-.114 4.11-.959a59.4 59.4 0 0 1 1.792-.373l1.235-.307a.662.662 0 0 0 .556-.345c-.134-.316-.402-.268-.594-.24h-.067l-1.753.24-.881.163-1.093.211c-.354 0-.699.134-1.034.21-.336.077-.642.144-.958.192-.91.154-1.82.364-2.692.566l-.259.057-2.27.517c-1.236.288-2.51.585-3.775.853l-.958.23c-.898.252-1.82.412-2.75.479a.44.44 0 0 0-.335.144.457.457 0 0 0-.086.402 1.95 1.95 0 0 0 0 .21v.164h.517a20.278 20.278 0 0 0 3.066-.518l.038.048zM32.545 20.252l-.345.076-.757.172-1.8.384-2.54.536c-1.523.326-3.008.642-4.473.958-1.006.23-2.022.489-3.009.728l-.392.096-1.916.508c-.211.057-.623.172-.489.66a.298.298 0 0 1 0 .078V24.553a.584.584 0 0 0 .393.153.956.956 0 0 0 .22 0l.355-.096 1.331-.297 2.769-.641 1.916-.48 1.274-.325 3.526-.872 1.322-.316 1.494-.364c.431-.106.862-.22 1.284-.345h.067a.48.48 0 0 0 .259-.163.298.298 0 0 0 0-.268.395.395 0 0 0-.332-.299.392.392 0 0 0-.157.012zM34.154 36.95c-.143-.192-.249-.317-.373-.355a.49.49 0 0 0-.412.134c-.53.344-1.164.49-1.792.412-.213 0-.425-.043-.622-.124a10.343 10.343 0 0 1-1.226-.633 1.57 1.57 0 0 1-.776-1.38 3.966 3.966 0 0 1 .469-2.107 1.916 1.916 0 0 1 1.293-1.015 3.517 3.517 0 0 1 1.753.076c.853.259 1.265.68 1.332 1.39a.335.335 0 0 0 .105.239.163.163 0 0 0 .144 0c.125 0 .21-.163.259-.24a.355.355 0 0 0 0-.22v-.048a1.85 1.85 0 0 0-.67-1.236 3.295 3.295 0 0 0-1.265-.613 4.235 4.235 0 0 0-2.003-.134 2.741 2.741 0 0 0-1.983 1.466 4.79 4.79 0 0 0-.632 3.075c.075.593.348 1.144.776 1.562.402.377.888.653 1.418.804.5.149 1.02.226 1.542.23.254-.003.507-.025.757-.067a2.655 2.655 0 0 0 1.907-1.216z" _fill="#282828"></path><path pid="2" d="M33.925 34.43a1.876 1.876 0 0 0 0 .23c-.005.239-.061.474-.163.69a.26.26 0 0 0 .076.277.22.22 0 0 0 .134 0c.05.016.104.016.154 0a.737.737 0 0 0 .23-.287c.057-.163.105-.326.143-.47a1.188 1.188 0 0 0 0-.153.508.508 0 0 0 0-.124.5.5 0 0 0 0-.173c-.057-.191-.163-.287-.325-.268-.163.02-.23.173-.25.278z" _fill="#282828"></path></svg>