<svg data-v-051b5016="" data-v-1d20a21b="" version="1.1" viewBox="0 0 50 50" fill="#797e82"><path pid="0" d="M49.938 38.861a4.429 4.429 0 0 1-.172-.574v-.149c-.096-.425-.203-.872-.289-1.309a.546.546 0 0 0-.065-.25.5.5 0 0 0-.17-.186.46.46 0 0 0-.418.069h-.107c-.1.062-.209.108-.321.138a2.71 2.71 0 0 1-.6-.058c-.45-.092-.952-.183-1.434-.321a1.565 1.565 0 0 1-.567-.276 16.82 16.82 0 0 1-1.627-1.148 6.714 6.714 0 0 1-1.82-1.871 44.438 44.438 0 0 1-1.2-2.101 4.951 4.951 0 0 1-.47-1.125 25.52 25.52 0 0 0-.321-1.217l-.065-.218a.628.628 0 0 0-.107-.184l-.053-.069-.15-.206-.085.24c-.03.088-.066.172-.108.253a3.618 3.618 0 0 0-.182.54c0 .138-.085.195-.224.264-.996.482-2.056.964-3.212 1.47-.18.075-.373.114-.567.114l-1.2-.034H31.645a4.361 4.361 0 0 1-.547 0h-.118a1.247 1.247 0 0 1 0-.195v-.69-1.64c.065-1.23.15-2.47.236-3.663l.064-.815c0-.505.064-1.034.14-1.539.128-.895.267-1.79.406-2.686l.15-.93a1.215 1.215 0 0 0-.149-.685 1.098 1.098 0 0 0-.493-.463 4.929 4.929 0 0 0-1.745-.322h-.107l-2.858.058-4.282.08c-.771 0-1.552.07-2.313.104h-1.466a7.844 7.844 0 0 1-1.467 0 1.299 1.299 0 0 0-.47 0 24.84 24.84 0 0 0-2.902.872l-3.232 1.206-.996.39c-.439.184-.867.356-1.306.517l-.203.068a1.163 1.163 0 0 1-.739.161c-.439-.092-.674.23-.867.517a.414.414 0 0 0 0 .356l.096.206c.037.067.069.136.097.207 0 .172.107.344.15.505.042.16.117.39.182.586.064.195.15.447.235.677.086.23.236.643.332.964.171.574.385 1.32.546 2.078a23.94 23.94 0 0 1 .535 3.444c.06.983.06 1.968 0 2.95.004.05.004.1 0 .15-.118 0-.118 0-.128-.115a11.518 11.518 0 0 0-.322-1.837l-.064-.252c0-.207-.096-.413-.15-.632-.053-.218-.16-.688-.235-1.044a44.742 44.742 0 0 1-.321-1.745c0-.161 0-.322-.064-.471-.019-.2-.047-.4-.086-.597a2.939 2.939 0 0 0-.182-.62v-.126a.379.379 0 0 0-.145-.215.335.335 0 0 0-.24-.06H6.23c-.267 0-.535 0-.792.102a4.29 4.29 0 0 0-.77.253.622.622 0 0 0-.314.276.694.694 0 0 0-.083.424c.025.246.071.488.14.724.085.356.17.712.267 1.056.096.344.268 1.01.385 1.515.225.907.46 1.895.76 3.18.05.208.09.42.118.632v.15h-.417a3.125 3.125 0 0 0-.643-1.643c-.18-.246-.44-.41-.728-.459-.385-.069-.749-.115-1.07-.15a1.688 1.688 0 0 0-.589 0c-.363.097-.72.216-1.07.357-.2.063-.377.186-.512.355a1.19 1.19 0 0 0-.248.598c-.05.303-.075.61-.075.918.037.858.162 1.71.374 2.537v.15c.054.173.146.33.268.459.263.243.431.583.471.953v1.148c0 .321-.053.482-.075.723-.021.241-.064.574-.075.861 0 .746-.075 1.561-.085 2.56-.03.41-.03.82 0 1.229.085.688.353.792.888.86h.567v.138h-.246a4.178 4.178 0 0 0-1.606.264c-.22.082-.408.239-.537.446a1.21 1.21 0 0 0-.18.702.47.47 0 0 0 .107.207l.054.058c.187.223.434.379.706.447h.375c.28.06.562.101.846.127.743.051 1.481.175 2.205.367.508.161 1.033.25 1.563.264a2.94 2.94 0 0 0 2.034-.666c.517-.448.959-.987 1.306-1.596a.45.45 0 0 1 .213-.26.403.403 0 0 1 .322-.027 22.16 22.16 0 0 0 3.66.161 5.36 5.36 0 0 0 1.36-.23.618.618 0 0 0 .35-.194.697.697 0 0 0 .175-.38v-.069c-.246-.367-.3-.39-.696-.401H9.784a.603.603 0 0 0-.324.113.666.666 0 0 0-.222.277 4.694 4.694 0 0 1-1.402 1.688c-.27.223-.588.37-.925.426-.337.056-.682.02-1.002-.105h-.171a2.223 2.223 0 0 1-.386-.207 1.305 1.305 0 0 1-.428-.31 3.96 3.96 0 0 1-.642-1.377 11.432 11.432 0 0 1-.16-1.217v-.47a1.23 1.23 0 0 1 0-.276c.133-.781.326-1.55.577-2.296.161-.519.436-.988.803-1.367a1.84 1.84 0 0 1 .958-.646c.374-.103.77-.077 1.13.072.35.163.672.389.952.666.282.228.494.54.61.896.02.078.046.155.075.23l.065.229c.075.264.214.298.32.31a.638.638 0 0 0 .343-.184.66.66 0 0 0 .171-.277.7.7 0 0 0 .022-.331 3.639 3.639 0 0 0-.16-.551 3.768 3.768 0 0 0-1.67-1.883 3.306 3.306 0 0 0-1.167-.402 2.165 2.165 0 0 0-1.563.345 4.378 4.378 0 0 0-1.841 1.951c-.24.55-.44 1.118-.6 1.7 0 .16-.085.31-.139.459a4.902 4.902 0 0 0-.214 1.653c.01.16.01.321 0 .482v.103h-.321a1.844 1.844 0 0 1 0-.23v-.459-1.917c0-.631.064-1.148.107-1.756.043-.609.053-.896.085-1.344a3.416 3.416 0 0 0-.62-2.227 1.378 1.378 0 0 1-.214-.597c-.082-.447-.14-.9-.172-1.355a10.116 10.116 0 0 1 0-.987v-.252l.16-.07c.27-.136.554-.237.846-.298.214-.029.43-.029.643 0h.289a.796.796 0 0 1 .382.09.86.86 0 0 1 .303.266c.16.188.26.425.289.678 0 .24.075.47.107.7l.064.402h.064c.2.088.42.117.634.085a1.18 1.18 0 0 0 .587-.27h.075a.26.26 0 0 1 .139-.068.368.368 0 0 0 .249-.145.422.422 0 0 0 .083-.291v-.092a2.327 2.327 0 0 0 0-.47c-.15-.678-.247-1.355-.386-1.998L5.93 30.33c-.17-.884-.353-1.756-.513-2.64-.065-.241-.065-.482-.065-.735v-.241a3.924 3.924 0 0 1 1.07-.482v.7c.057.936.164 1.867.322 2.79.14.918.332 1.848.514 2.744.075.333.139.677.214 1.022.075.344.203.585.664.654h.224c.08.017.159.04.236.069a.348.348 0 0 0 .448-.051.394.394 0 0 0 .087-.144c.068-.154.13-.31.182-.471a11.05 11.05 0 0 0 .321-4.833 22.407 22.407 0 0 0-.696-3.26 2.975 2.975 0 0 1-.107-.334 7.227 7.227 0 0 0-.267-.815 58.895 58.895 0 0 0-.707-1.733l-.3-.735-.064-.368c1.606.173 3.212.207 4.646.207h2.441c.203.011.407.011.61 0H18.112c.536 0 1.07 0 1.649.08h.385a8.22 8.22 0 0 0 1.595 0h.097a31.138 31.138 0 0 0-1.296 12.4v.091h.257c.097.055.202.09.31.103h.514c.664.07 1.36.138 2.034.161.975 0 1.96 0 2.923.07h1.958c.01.044.01.092 0 .137a8.324 8.324 0 0 0-.545 1.917 7.963 7.963 0 0 0-.193 2.055l.032 1.148v.54c0 .321 0 .643.054.964.05.534.15 1.06.3 1.573l.16.689c.064.321.15.631.225.953l.053.206-3.564-.333v-.172l.064-.735a7.355 7.355 0 0 0-.31-2.675 3.027 3.027 0 0 0-.172-.436l-.128-.287c-.16-.356-.332-.712-.503-1.068a1.436 1.436 0 0 0-.322-.401l-.385-.38-.128-.102a.898.898 0 0 0-.225-.184 5.375 5.375 0 0 0-1.488-.586 4.244 4.244 0 0 0-3.104.632 5.237 5.237 0 0 0-2.077 2.41 7.442 7.442 0 0 0-.6 3.227v.149c-.006.3.02.6.075.895l.065.299c.047.28.115.557.203.827.024.066.042.136.053.206-.393.021-.779.127-1.134.31-.503.253-1.07.551-1.07 1.39.286.309.665.5 1.07.539 1.497.302 3.015.475 4.539.517h.61c.246-.009.49-.047.728-.115h.107l.31-.127.204-.091a4.905 4.905 0 0 0 2.269-1.539c.225-.275.417-.574.632-.884l.235-.356H28.731c.247 0 .279 0 .3.207a.452.452 0 0 0 .086.195v.057c.022.044.04.09.053.138h-.182l-.674.115-.878.16-.674.127c-.354.059-.676.25-.91.54a.763.763 0 0 0-.028.873.6.6 0 0 0 .21.183c.22.115.454.196.696.24l.653.07c.214 0 .45 0 .663.069.816.12 1.64.175 2.462.16h1.07c.451-.011.902.012 1.35.07.529.07 1.062.1 1.595.091h.984c.175.017.35.017.525 0l.503-.115 1.317-.298a6.253 6.253 0 0 0 2.815-1.458l.61-.494c.44-.344.878-.689 1.306-1.044.1-.079.197-.163.29-.253a3.61 3.61 0 0 1 .32-.287l.536-.367c.139-.092.278-.173.407-.276l.556-.39c.204-.161.407-.31.621-.448l.75-.517 1.07-.712c.567-.401 1.134-.803 1.67-1.25.305-.257.578-.554.813-.885a1.27 1.27 0 0 0 .347-.614 1.338 1.338 0 0 0-.026-.718zm-6.787 3.353l.61-.471.128.39a.893.893 0 0 0 .175.347c.082.1.184.179.299.23a.765.765 0 0 0 .715-.049l.267-.126-.492.368-.782.585c-.224.172-.45.356-.685.517a.88.88 0 0 0 .054-.38 4.875 4.875 0 0 0-.29-1.411zm-2.248 3.249a1.39 1.39 0 0 1-.268-.758c0-.115 0-.218-.064-.333-.064-.115 0-.103 0-.16a2.595 2.595 0 0 0 0-.253v-.104l.524-.298.172-.092a.73.73 0 0 1 0 .15c.028.31.124.608.278.872.037.076.092.14.16.187a.44.44 0 0 0 .225.077h.386l-.107.069-.782.528c-.154.101-.315.19-.481.264v-.08l-.043-.07zM9.923 20.596H9.55h.139l.845-.31a72.61 72.61 0 0 1 2.505-.919c1.007-.355 2.045-.7 3.051-1.033l.942-.31a.766.766 0 0 1 .279 0h11.25a37.053 37.053 0 0 0-4.41 1.883c-.364.195-.728.425-1.07.631l-.183.115c-.117.07-.182.092-.278 0a1.368 1.368 0 0 0-.385-.069h-.503c-.46 0-.942-.069-1.413-.069H11.967l-2.044.08zm11.947 8.14c.11-1.578.313-3.146.61-4.696.118-.597.246-1.148.375-1.756l.139-.632.289-.16.803-.402c.374-.173.77-.345 1.22-.517l2.398-.907 2.14-.827c.226-.08.44-.183.675-.287h.107c0 .173-.075.322-.107.483a24.434 24.434 0 0 0-.546 3.581c0 .219 0 .437-.053.655a25.594 25.594 0 0 0-.129 1.584v.804a24.549 24.549 0 0 0 0 2.663l.064.78c0 .449.054.885.097 1.321.028.202.067.4.117.597l.065.253v.092h.085c1.158.155 2.324.228 3.49.218a1.363 1.363 0 0 1-.257.115c-.178.07-.353.15-.524.24a27.83 27.83 0 0 1-1.285.69l-.878.436-.257.126c0-.241 0-.47-.053-.712-.054-.24 0-.31-.225-.356a.332.332 0 0 0-.22.037.367.367 0 0 0-.155.17l-.15.264a4.979 4.979 0 0 0-.278.482c-.075.172-.171.23-.396.218H21.763v-.24-.747a33.231 33.231 0 0 1 .107-3.57zm23.026 11.916h.064v.735c0 .195 0 .15-.204.299v-.15-.218a2.422 2.422 0 0 0-.15-.562.367.367 0 0 0-.053-.115c.114.014.228.017.343.011zm2.45-1.044v-.104c0-.195-.085-.367-.117-.55-.032-.184 0-.253-.053-.38a2.696 2.696 0 0 0 0-.287.376.376 0 0 0-.042-.134.35.35 0 0 0-.087-.107.303.303 0 0 0-.267 0l-.161.092-.3.218c-.32.207-.631.425-.942.655-.255.144-.456.38-.567.665-.433.001-.863-.073-1.274-.218a3.223 3.223 0 0 1-1.392-.769l-.128-.126a9.027 9.027 0 0 1-1.563-2.664 8.526 8.526 0 0 1-.289-1.308 18.926 18.926 0 0 1-.107-4.145l.107.379.45 1.527c.084.274.199.536.342.78.086.138.171.276.246.414a7.363 7.363 0 0 0 1.007 1.458l.182.195c.15.219.354.39.588.494.267.267.57.487.9.654.23.133.452.283.663.448l.15.138c.118.103.236.206.364.298.177.135.372.24.578.31.364.115.728.207 1.07.31l.472.126a4.89 4.89 0 0 1 .278 1.608l-.107.023zm-7.985-9.437c0 .16 0 .31-.064.459a16.376 16.376 0 0 0-.16 3.134c.009.837.146 1.667.406 2.457.263.786.646 1.52 1.135 2.17.064.08.107.16.16.24.562.888 1.414 1.515 2.388 1.757l.514.115c-.354.287-.686.597-1.071.919a.595.595 0 0 0-.248.36.635.635 0 0 0 .055.443v1.137a.232.232 0 0 1-.023.136.21.21 0 0 1-.095.093l-.213.115a2.274 2.274 0 0 0-.065-.39c0-.184-.096-.38-.15-.563v-.069a.381.381 0 0 0-.062-.147.35.35 0 0 0-.115-.105.324.324 0 0 0-.294-.012l-.877.276-.632.184a.664.664 0 0 0-.393.28.751.751 0 0 0-.12.489c.011.156.04.31.085.459v.138a2.129 2.129 0 0 0 0 .252.924.924 0 0 1 0 .184 2.357 2.357 0 0 1-.45-.16h-.128a5.087 5.087 0 0 1-.932-.483l-.503-.31a3.985 3.985 0 0 1-1.017-.746 4.933 4.933 0 0 0-.631-.563 9.132 9.132 0 0 1-.503-.425l-.032-.149a7.5 7.5 0 0 1-.846-.93l-.14-.183c-.352-.508-.738-.987-1.155-1.435A8.196 8.196 0 0 1 31.718 37l-.15-.332c-.16-.39-.342-.793-.492-1.148a3.634 3.634 0 0 1-.16-.586 1.15 1.15 0 0 1 0-.184 8.59 8.59 0 0 1 1.872-1.262 43.22 43.22 0 0 1 2.313-1.149l.546-.264 1.124-.54.91-.436 1.21-.608.47-.23v-.091zm-10.619 8.966c0-.436.096-.873.15-1.309l.064-.505c.116-.79.325-1.562.621-2.296.054-.126.096-.264.14-.39.042-.127.106-.276.15-.414a.989.989 0 0 0 0 .184 6.76 6.76 0 0 0 .524 2.503c.29.832.648 1.635 1.07 2.4.19.297.397.58.621.849l.321.424c.064.08.118.173.182.264.103.17.221.328.353.471.137.162.262.335.375.517.159.253.345.484.557.689.417.355.803.757 1.188 1.148l.728.712c.245.225.515.417.803.574l.139.08.653.379.321.183c.34.178.7.306 1.07.38.354.08.718.137 1.07.194h.183l-.707.471-.192.103-.236.127a5.115 5.115 0 0 1-1.745.643l-.524.126-.535.126c-.401.07-.81.07-1.21 0l-1.541-.24a3.66 3.66 0 0 1-1.36-.563 21.06 21.06 0 0 0-.846-.505 4.653 4.653 0 0 1-1.787-2.228 6.75 6.75 0 0 1-.44-1.86 4.114 4.114 0 0 0-.074-.39 16.164 16.164 0 0 1-.16-1.561c-.004-.43.021-.86.074-1.286zm17.128 2.996a.65.65 0 0 0 .107-.574c0-.149-.075-.298-.107-.447-.032-.15 0-.23-.086-.356l-.16-.586v-.138c.233-.3.495-.573.78-.815v.38c0 .367.054.734.087 1.147.005.093.041.18.102.246a.343.343 0 0 0 .23.11.862.862 0 0 0 .738-.126l.439-.287.525-.345c.098-.085.185-.186.256-.298l.032-.207.075-.103-.085-.092a1.754 1.754 0 0 1-.386-1.01 3.664 3.664 0 0 0-.107-.563h.364c.07.54.214 1.067.428 1.562l.075.195-.203.16c-.193.161-.385.322-.578.46l-.889.643-1.07.757-.717.517.15-.23zm-28.817.919a5.425 5.425 0 0 1 .92-3.077c.355-.506.812-.92 1.336-1.213a3.743 3.743 0 0 1 1.694-.475h.128c.473.02.935.157 1.349.402h.075c.086.045.165.103.235.172.333.404.61.856.825 1.344.31.808.466 1.674.46 2.548a4.773 4.773 0 0 1-.471 2.296 4.208 4.208 0 0 1-1.052 1.398c-.44.38-.95.655-1.496.807a2.735 2.735 0 0 1-1.862 0 2.82 2.82 0 0 1-1.18-.737 3.104 3.104 0 0 1-.726-1.238 5.97 5.97 0 0 1-.268-2.227h.033z" _fill="#282828"></path><path pid="1" d="M11.411 34.82v-.838-.264h.118l.535.08c1.305.099 2.614.099 3.918 0 .375 0 .76-.114 1.07-.172a.677.677 0 0 0 .35-.177.756.756 0 0 0 .207-.35c-.182-.357-.267-.403-.61-.38h-5.566a36.626 36.626 0 0 0-.9-8.794H14.483c.46 0 .921 0 1.381-.057l2.141-.16 1.253-.104h.225v.298l-.097.78c0 .162 0 .322-.075.483-.075.16-.043.551-.043.896a45.601 45.601 0 0 0-.31 5.602c0 .574 0 1.148.096 1.802 0 .161 0 .356.182.425.182.07.322 0 .493-.114h.064v-1.597-.895-2.331c0-.424 0-.86.054-1.285 0-.16 0-.322.064-.494s.053-.298.064-.447c.01-.15 0-.54.054-.816 0-.47.064-.953.128-1.412v-.436a2.257 2.257 0 0 1 .171-.895.304.304 0 0 0 0-.276.41.41 0 0 0-.105-.14.374.374 0 0 0-.152-.078.995.995 0 0 0-.257 0h-1.616c-1.402 0-2.89.057-4.657.16h-.578c-1.046.09-2.097.118-3.147.08-.085 0-.289 0-.374.208a.454.454 0 0 0-.008.28c.027.092.083.171.157.225.075.057.086.092.086.103.064.199.114.402.15.608.064.414.128.827.182 1.24l.086.574.096.643c.075.494.15 1 .214 1.493.138 1.234.195 2.477.171 3.72v2.066c0 .47 0 1.263-.085 1.894l-.065 1.378a2.358 2.358 0 0 0 0 .47c.022.208.106.403.24.556a.894.894 0 0 0 .5.294c.309.072.624.11.941.115a2.983 2.983 0 0 0 1.606-.333c.13-.07.244-.17.333-.293.089-.123.15-.266.18-.419a.908.908 0 0 0-.024-.395.864.864 0 0 0-.19-.34 1.656 1.656 0 0 0-.792-.562 1.702 1.702 0 0 0-.963 0h-.203a.406.406 0 0 0-.165.12.448.448 0 0 0-.092.19c-.065.321.085.448.182.494.136.058.275.108.417.149h.246l.31.08.172.08a3.006 3.006 0 0 1-1.691.127c-.065 0-.129 0-.14-.172-.01-.172 0-.494 0-.747.043-.55.086-1.25.118-1.94zM3.265 16.912a9.698 9.698 0 0 0 0 1.929H3.21c0 .23.065.47.086.7.075.585.14 1.148.236 1.756.069.353.155.702.256 1.045l.107.39a.814.814 0 0 0 .108.219.504.504 0 0 0 .156.181c.066.046.14.075.218.083h.129A.45.45 0 0 0 4.74 23a.5.5 0 0 0 .045-.326c.01-.114.01-.23 0-.344a1.869 1.869 0 0 1 0-.241c0-.287-.054-.586-.075-.873a48.207 48.207 0 0 1-.182-2.525 7.374 7.374 0 0 1 .14-2.297c.108-.45.301-.872.567-1.24a1.56 1.56 0 0 1 .837-.637c.339-.104.7-.082 1.025.063.577.24 1.086.635 1.477 1.149.15.18.246.404.278.642.032.239 0 .482-.096.7a.978.978 0 0 1-.289.345 1.612 1.612 0 0 1-.856.47.74.74 0 0 1-.35-.034.783.783 0 0 1-.303-.195l-.353-.367-.182-.184a.522.522 0 0 0-.578-.115.627.627 0 0 0-.187.316.663.663 0 0 0 .015.373c.105.3.264.576.467.81.204.235.45.424.722.556.346.133.724.133 1.07 0 .488-.15.929-.439 1.274-.838.326-.364.523-.84.557-1.343.02-.45-.06-.9-.235-1.309a2.778 2.778 0 0 0-.772-1.044 4.68 4.68 0 0 0-.813-.632 2.828 2.828 0 0 0-2.259-.425c-.395.126-.76.341-1.07.632a4.748 4.748 0 0 0-1.07 1.745 3.64 3.64 0 0 0-.28 1.079zM1.156 2.17c.246.39.514.792.75 1.148v.08c.418.643.776 1.327 1.07 2.044.137.41.25.827.342 1.251l.075.322a4.502 4.502 0 0 1-.182 2.227c0 .184-.096.367-.15.551l-.16.643a3.595 3.595 0 0 0 .107 1.94c.105.397.287.765.535 1.08a.396.396 0 0 0 .123.112c.048.027.101.044.156.048a.463.463 0 0 0 .246-.103h.064v-.092a.849.849 0 0 0 0-.15c0-.126 0-.275-.075-.413a4.435 4.435 0 0 1-.225-1.848c.04-.298.098-.593.172-.884 0-.115.064-.23.085-.344V9.54c.206-.681.279-1.4.214-2.113a7.539 7.539 0 0 0-.374-1.561A14.264 14.264 0 0 0 2.28 2.664L1.574 1.63a3.189 3.189 0 0 0-.364-.413.307.307 0 0 0-.375 0 .483.483 0 0 0-.086.299.31.31 0 0 0 .075.183c.107.127.246.31.332.471zM23.154 32.122l-.085.31H23.283a.84.84 0 0 0 .192 0h.075c.213-.03.421-.088.621-.172l1.52-.608.514-.242.439-.218c.45-.238.924-.42 1.413-.54a.44.44 0 0 0 .167.16.404.404 0 0 0 .218.047c.14 0 .247-.137.322-.355.068-.214.097-.44.085-.666.01-.146.01-.291 0-.437-.01-.16-.01-.321 0-.482 0-.746 0-1.504.086-2.238.075-1.045.139-1.987.225-2.893.064-.643.15-1.286.256-2.01.054-.378.118-.769.183-1.148l.075-.413a.379.379 0 0 0 0-.298.224.224 0 0 0-.073-.08.205.205 0 0 0-.099-.035.365.365 0 0 0-.188.046.396.396 0 0 0-.144.137.54.54 0 0 1-.13.166.501.501 0 0 1-.18.099.98.98 0 0 0-.321.172h-.086l-.439.287-.803.505c-.6.36-1.199.704-1.798 1.033l-1.124.643a.934.934 0 0 0-.193.16l-.085.093c-.086.08-.129.126-.214.126-.086 0-.257.206-.279.275-.04.12-.068.243-.085.368v.057a16.674 16.674 0 0 0-.354 2.756v.975c0 .322 0 .563-.053.838v1.906c0 .322 0 .666.053 1.08-.16.206-.139.482.075.596zm4.603-2.64l-3.853 2.158c.015-.195.015-.39 0-.585v-.195c0-1.39.064-2.779.107-4.18l.096-1.767v-.62l.578-.368 1.66-1.044 1.584-.976.396-.241a36.344 36.344 0 0 0-.568 7.84v-.022z" _fill="#282828"></path></svg>