<svg data-v-051b5016="" data-v-315ae041="" version="1.1" viewBox="0 0 200 102" fill="#797e82">
<path pid="0" d="M14.086 15.115c-.358-.23-.442-.587-.527-1.007v-.021c-.4-1.364-.884-2.413-1.516-3.294-1.39-1.952-3.01-3.924-5.39-5.162-.737-.399-1.747-.42-2.442-.084-.905.44-1.39 1.217-1.474 2.35-.084 1.05.295 1.973.674 2.749.526 1.049 1.263 1.93 1.979 2.728.716.797 1.558 1.405 2.358 1.993.21.147.421.315.632.462.105.083.231.104.337.146l.042.021c.316.084.61.21.926.336.21.084.442.168.653.252.884.294 1.79.44 2.78.44h.23c.632-.02.906-.44 1.053-.755.211-.461.106-.881-.315-1.154zM5.222 7.603s.042 0 .168.042c.358.126.716.252.99.525.231.23.484.44.737.63.168.146.357.272.505.44l.168.147c.38.336.78.692 1.095 1.091.4.462.737.986 1.074 1.49l.063.084c.295.461.569.923.863 1.427-.336-.21-.652-.378-.968-.546-.421-.23-.821-.44-1.18-.692-1.094-.798-2.315-1.763-3.157-3.022-.316-.462-.443-.923-.4-1.385.02-.189.042-.23.042-.23z" _fill="currentColor"></path><path pid="1" d="M21.308 4.393c.126-.608.231-1.469-.043-2.224-.337-.965-.968-1.679-1.747-1.972-.716-.273-1.474-.19-2.232.251-.737.42-1.305.882-1.748 1.406a10.736 10.736 0 0 0-2.063 3.756c-.358 1.112-.653 2.35-.947 3.882-.21 1.09-.148 2.12.21 3.084.148.399.358.798.863.923-.4.651-.779 1.134-1.179 1.553-.316.315-.4.693-.231 1.091.168.42.442.609.863.609h.063c.316-.021.674-.063.969-.336.147-.147.316-.294.463-.44.463-.42.926-.84 1.347-1.322 1.18-1.364 2.211-2.896 3.2-4.7.948-1.763 1.664-3.484 2.17-5.31l.063-.188h-.021v-.063zm-2.674-.818c-.358 1.343-.906 2.58-1.453 3.714-.653 1.385-1.453 2.832-2.527 4.553-.105.168-.231.336-.358.524v.021c-.147-.335-.168-.65-.147-1.07.105-1.594.526-3.105.947-4.385.337-1.07.78-2.287 1.558-3.273.295-.378.653-.714.99-1.05l.084-.083c.084-.084.232-.19.421-.252a.73.73 0 0 1 .274-.063c.063 0 .126.02.168.042.127.084.148.252.169.378 0 .272-.042.608-.127.944zM16.254 30.265l-.105-.19c-.21-.356-.421-.734-.674-1.09-.21-.273-.4-.567-.61-.84-.653-.923-1.348-1.888-2.106-2.77-.926-1.07-2.042-2.077-3.432-3.042-.884-.608-2.063-1.385-3.39-1.91-1.01-.398-2-.755-2.779-.587-1.158.231-1.81.672-2.168 1.511-.316.713-.38 1.49-.19 2.455.358 1.93 1.642 3.273 2.927 4.47.126.125.273.21.42.272.148.084.317.168.38.273.147.21.337.336.505.44.126.084.232.147.316.252.19.231.442.294.695.19 0 .062 0 .104.02.146.043.147.17.189.253.23.022 0 .043.022.064.022.231.126.463.273.673.398.38.231.78.483 1.2.672.295.126.59.273.885.42.295.146.61.314.947.44 1.306.546 2.632.672 3.811.672h.548c.947-.021 1.558-.462 1.873-1.364.064-.231.169-.65-.063-1.07zm-2.232-.084l-.442-.168c-.842-.336-1.705-.672-2.547-.986-.148-.063-.295-.084-.421-.105-.148-.021-.295-.042-.4-.105-.106-.042-.19-.147-.295-.252-.105-.105-.21-.23-.358-.315-.274-.147-.548-.272-.821-.398-.232-.105-.463-.21-.674-.336-.526-.294-.99-.546-1.41-.86a48.468 48.468 0 0 1-2.696-2.12c-.61-.524-.926-1.154-.968-1.909-.021-.378.042-.608.168-.713.063-.063.19-.084.337-.084.084 0 .19.02.316.042a7.137 7.137 0 0 1 1.958.63c1.621.755 3.158 1.888 4.864 3.566.905.902 1.705 1.93 2.463 2.917.274.377.59.797.927 1.196z" _fill="currentColor"></path><path pid="2" d="M23.855 15.996c-.716-1.552-1.832-2.014-3.348-1.343-.505.231-.926.609-1.284.966-1.368 1.364-2.21 3.084-2.78 4.448-1.368 3.252-1.768 6.589-1.2 9.904.064.336 0 .587-.168.818-.442.609-.463 1.154-.063 1.72l.042.064.084.02c.148.043.295.043.421.043.653 0 1.264-.336 1.664-.903.547-.797 1.074-1.594 1.642-2.35a30.193 30.193 0 0 0 2.885-4.658c.758-1.532 1.558-3.168 2.042-4.952.316-1.238.653-2.497.063-3.777zm-2.274 1.28l-.02.126c-.106.483-.232.986-.422 1.448-.168.44-.358.902-.547 1.343-.21.462-.421.965-.59 1.448-.337.923-.821 1.804-1.263 2.665-.148.272-.295.545-.421.818-.337.63-.695 1.28-1.053 1.888-.105.19-.232.378-.337.567v-.168a7.03 7.03 0 0 1 .021-1.154c.127-1.259.337-2.749.863-4.197.611-1.7 1.369-3.462 2.716-4.951.211-.231.443-.42.695-.588a.34.34 0 0 1 .19-.063c.02 0 .042 0 .063.021.063.021.126.126.147.252 0 .189 0 .398-.042.545zM21.75 47.303c-.506-1.07-1.095-1.91-1.811-2.56a28.945 28.945 0 0 0-1.495-1.238l-.147-.105c-.485-.357-.969-.735-1.516-1.028a7.266 7.266 0 0 1-.674-.42c-.295-.189-.59-.399-.926-.546l-.169-.084c-.737-.314-1.495-.65-2.253-.965-1.221-.482-2.863-1.028-4.632-.986-1.158.021-2.021.357-2.674.986-.358.357-.526.735-.526 1.175.02 1.175.505 2.162 1.432 2.917.758.63 1.431 1.133 2.084 1.553.842.545 1.705 1.028 2.59 1.531.147.084.316.105.442.126.126.021.252.042.337.105.505.378 1.074.546 1.621.693.19.063.4.105.59.188.4.147.842.19 1.263.21.168.021.316.021.484.042a14.44 14.44 0 0 0 1.916.126c.842 0 1.684-.063 2.485-.21.147-.042.273-.063.378-.084.232-.042.422-.084.611-.167.253-.105.463-.294.569-.546a.777.777 0 0 0 .02-.713zM12 42.183c.274.084.548.189.821.294h.021c2 .734 3.79 1.993 5.37 3.105.357.252.673.504.968.797-.379-.02-.716-.126-1.053-.23-.042-.022-.084-.022-.126-.043-.127-.041-.253-.104-.4-.104h-.042c-.78.063-1.558-.168-2.295-.399l-.253-.084a25.912 25.912 0 0 1-2.463-.923c-.758-.357-1.516-.777-2.253-1.175-.169-.084-.337-.19-.506-.273-.442-.252-.926-.525-1.537-.902a22.356 22.356 0 0 1-.736-.504c-.043-.02-.085-.063-.127-.084.127-.168.316-.189.527-.21h.042c.568-.042 1.158-.063 1.705.042.59.126 1.18.315 1.748.504.168.042.379.126.59.189z" _fill="currentColor"></path><path pid="3" d="M27.076 29.908c-.505-.525-1.052-.818-1.663-.923-1.453-.231-2.674.189-3.705 1.343-.695.776-1.222 1.7-1.664 2.937-.82 2.33-.99 4.91-.505 7.89.21 1.322.463 2.811 1.032 4.196.168.42.4.818.863 1.05-.316.545-.316 1.132 0 1.783l.042.105.105.02c.274.043.506.064.716.064.505 0 .8-.19 1.263-.735.506-.587.948-1.217 1.453-1.972.253-.378.442-.776.632-1.175l.105-.21c.232-.483.463-.965.61-1.343.19-.42.4-.923.59-1.427.042-.105.063-.189.105-.294.148-.377.295-.755.337-1.154a3.3 3.3 0 0 1 .232-.776c.063-.189.147-.377.19-.566.442-1.7.779-3.106.8-4.637.042-1.721-.464-3.085-1.538-4.176zm-1.115 3.441c-.085 1.763-.548 3.483-.927 4.763-.61 1.972-1.284 3.756-2.105 5.456-.19.42-.4.818-.59 1.217l-.084.168c-.042-.19-.105-.378-.168-.567-.169-.609-.358-1.259-.464-1.889-.252-1.531-.4-2.77-.463-3.902a11.515 11.515 0 0 1 1.053-5.498 5.358 5.358 0 0 1 1.305-1.762c.295-.252.59-.378.885-.378h.126c.337.042.653.252.905.608.38.504.548 1.092.527 1.784zM32.34 61.928c-.21-.105-.442-.231-.695-.336l-.105-.042-.126-.19a4.084 4.084 0 0 0-.38-.524 12.777 12.777 0 0 0-2.547-2.308c-.19-.147-.379-.273-.59-.42-.736-.524-1.494-1.07-2.315-1.531a17.514 17.514 0 0 0-4.548-1.72c-1.853-.42-3.6-.61-5.327-.588-1.137.02-2.169.398-3.095 1.133-.885.713-1.263 1.657-1.116 2.749.19 1.405.8 2.56 1.79 3.462 1.22 1.07 2.716 1.573 4.021 1.951.927.273 1.853.462 2.948.693 1.768.356 3.369.545 4.821.545 1.706 0 3.243-.252 4.738-.734.59-.19 1.2-.441 1.81-.714.506-.23.78-.65.8-1.217v-.126l-.084-.084zm-2.632 0c-1.073.21-1.958.293-2.8.293H26.445c-.884 0-1.79 0-2.674-.126l-.505-.084a52.291 52.291 0 0 1-3.074-.524 40.027 40.027 0 0 1-2.274-.588c-.4-.105-.78-.21-1.18-.314-.084-.021-.189-.021-.273-.042a.651.651 0 0 1-.232-.042 24.4 24.4 0 0 1-1.874-1.26c-.42-.314-.59-.818-.716-1.321-.147-.546.022-.965.527-1.322.653-.462 1.39-.546 2.063-.546h.274c2.063.063 4.169.525 6.253 1.343 1.348.525 2.548 1.196 3.58 1.994.631.482 1.284.965 1.916 1.426.4.294.8.588 1.22.903.064.063.148.125.232.21z" _fill="currentColor"></path><path pid="4" d="M36.762 45.162c0-.566-.232-1.049-.484-1.51l-.19-.378c-.442-.944-1.074-1.742-1.916-2.33-1.2-.86-2.484-.839-3.642.043-.78.608-1.432 1.406-2 2.497-.632 1.196-.906 2.497-1.053 3.483a17.923 17.923 0 0 0 .063 5.812c.4 2.224 1.137 4.092 2.253 5.665l.126.19c.379.566.779 1.153 1.453 1.51.21.126.442.21.673.315.064.02.106.042.169.084 0 .042-.021.084-.021.147-.042.21-.084.42-.169.566-.337.63-.21 1.259-.063 1.846l.042.126.127.021c.316.084.568.126.758.126.505 0 .695-.23.947-.608.063-.084.105-.168.19-.273.126-.168.19-.336.252-.504.106-.272.21-.545.337-.818.295-.734.59-1.469.863-2.224.864-2.476 1.39-4.553 1.706-6.526.168-1.049.316-2.16.316-3.273-.021-1.259-.021-2.686-.737-3.987zm-2.064 4.617c-.21 1.93-.652 3.84-1.095 5.623-.231.902-.484 1.825-.715 2.728l-.21.734c0 .021-.022.021-.022.042-.021-.021-.042-.042-.063-.042a2.845 2.845 0 0 1-.358-.357c-.105-.168-.232-.314-.337-.482-.421-.588-.863-1.196-1.2-1.847-.863-1.636-1.348-3.483-1.453-5.434-.126-2.392.105-4.302.78-6.022.4-1.07.884-1.763 1.515-2.287.295-.252.548-.357.8-.357.253 0 .506.126.8.398.421.4.758.903.969 1.532.61 1.826.821 3.714.59 5.77zM44.342 72.692c-.506-.65-.8-.735-1.538-.504-.063.02-.147.063-.21.084-.042.02-.063.02-.105.042-.169.063-.337.147-.506.21-.379.147-.758.314-1.137.42-.42.104-.82.293-1.22.44-.548.23-1.053.44-1.6.525-.085.02-.17.02-.275.02a3 3 0 0 0-.842.168c-.653.231-1.305.231-2.021.252-.21 0-.421 0-.632.021-.379.021-.758 0-1.116-.042-.442-.02-.884-.063-1.326-.02a13.957 13.957 0 0 1-3.243-.127 9.2 9.2 0 0 1-1.705-.42c-.253-.083-.421-.21-.442-.335-.021-.126.084-.315.295-.483.315-.251.715-.461 1.052-.63.885-.44 1.853-.545 2.927-.629 1.79-.147 3.537-.188 5.243-.147 2.084.042 3.768.294 5.326.819.253.084.548.147.8.02.253-.146.4-.44.527-.901l.042-.147-.126-.084c-.084-.063-.148-.126-.232-.19-.19-.146-.4-.335-.653-.44a13.26 13.26 0 0 0-1.958-.713 18.493 18.493 0 0 0-2.337-.483c-.695-.105-1.39-.105-2.063-.126-.148 0-.274.063-.421.147-.021-.02-.042-.063-.063-.084-.148-.126-.358-.105-.527-.084-.063 0-.105.021-.147.021-.569-.02-1.137 0-1.706.021l-.379.021c-.358 0-.736.021-1.116.063-.252.042-.505.084-.736.126-.253.042-.506.105-.78.126-1.263.147-2.715.44-3.937 1.406-1.01.797-1.916 1.867-1.095 3.693.211.482.506 1.133 1.137 1.364.885.314 1.832.65 2.8.797 1.517.23 3.096.336 4.78.336.885 0 1.81-.021 2.78-.084 1.452-.105 2.736-.378 3.873-.882 1.453-.629 2.78-1.49 3.875-2.245.442-.293.694-.671.779-1.154l.02-.084-.063-.105z" _fill="currentColor"></path><path pid="5" d="M46.236 62.977l-.02-.105c-.274-2.267-.948-4.218-2.022-6.001-.61-.987-1.326-1.994-2.463-2.54-1.411-.67-2.358-.524-3.327.483-.379.378-.61.86-.737 1.217-.674 1.763-.863 3.735-.59 5.855.148 1.174.527 2.37.822 3.315.631 2.056 1.831 3.924 3.579 5.581.484.462 1.18 1.007 2.127.944h.02c.043.063.064.147.106.21l.147.294.232.042c.105.02.168.02.253.042.147.02.294.042.4.042.484 0 .736-.231.99-.776.126-.294.23-.567.294-.819.295-1.154.442-2.37.484-3.714.042-1.364-.147-2.748-.295-4.07zM43.1 67.614c0 .503.021 1.028.042 1.531 0 .126 0 .252.021.357-1.22-1.3-2.505-2.874-3.137-4.889-.063-.21-.126-.398-.19-.608-.168-.483-.336-1.007-.42-1.511-.4-1.972-.316-3.882.231-5.644.127-.441.295-.693.463-.714h.043c.168 0 .4.168.652.462.4.44.758 1.028 1.032 1.678.274.63.484 1.364.674 2.225.21 1.007.463 2.16.547 3.315.063.84.063 1.678.042 2.518v1.28zM54.68 79.091c-.38-.314-.758-.293-1.243.021 0-.44-.19-.63-.695-.776-.084-.021-.147-.042-.231-.063a3.353 3.353 0 0 0-.821-.189l-.59-.02c-1.053-.043-2.148-.085-3.221-.043-2.085.105-4.043.84-5.706 1.532a8.37 8.37 0 0 0-3.137 2.245c-.506.567-1.074 1.364-.864 2.434.19 1.05.8 1.805 1.769 2.182.547.231 1.18.336 1.937.336h.295c1.874-.063 3.6-.273 5.264-.672 1.305-.314 2.379-.797 3.284-1.447a29.607 29.607 0 0 0 2.716-2.287c.59-.546 1.221-1.197 1.516-2.099.169-.545.169-.818-.274-1.154zm-3.264 1.364l-2.653 2.014-.021.021c-.021.021-.063.042-.063.042l-.274.084c-.674.231-1.39.483-2.084.693a3.28 3.28 0 0 1-.485.105l-.315.063c-.106.02-.232.063-.337.084a3.357 3.357 0 0 1-.442.104c-.064.021-.127.021-.19.042a2.475 2.475 0 0 1-.632.105c-.337-.02-.631.063-.926.126l-.253.063a3.844 3.844 0 0 1-2-.168c-.105-.042-.19-.084-.19-.126-.02-.042.022-.125.064-.21.19-.293.442-.587.716-.839.842-.776 1.895-1.238 2.884-1.636 1.895-.756 3.874-1.154 5.874-1.154h.085c.61 0 1.22.02 1.831.02h.169l-.758.567z" _fill="currentColor">
</path>
<path pid="6" d="M57.69 75.692l-.042-.294c-.042-.314-.084-.65-.147-.965-.105-.567-.232-1.133-.337-1.7-.21-1.09-.442-2.203-.632-3.315a22.92 22.92 0 0 0-1.22-4.49c-.506-1.301-1.117-2.245-1.917-2.959-.4-.356-1.01-.818-1.832-.86-1.158-.063-2.042.504-2.653 1.637-.631 1.217-1.031 2.664-1.22 4.49-.359 3.378.652 6.337 3.094 9.085.906 1.008 1.98 1.93 3.39 2.896.548.378 1.095.65 1.621.86.316.126.569.19.78.19.463 0 .715-.316.989-1.008l.042-.105-.295-.461c.548-1.091.485-2.162.38-3.001zm-3.01 1.217a10.69 10.69 0 0 1-.548-.462c-.526-.44-1.032-.86-1.495-1.3-1.263-1.155-2.169-2.518-2.674-4.092a9.032 9.032 0 0 1-.4-4.155c.126-1.028.4-2.014.674-2.958.105-.336.358-.672.59-.944.084-.105.168-.168.294-.168.084 0 .19.042.337.126.547.314.842.818 1.116 1.49.526 1.342.779 2.77.968 3.986l.316 2.203c.085.65.19 1.322.274 1.973.063.398.126.818.21 1.217.085.44.169.902.232 1.363.063.462.105.945.127 1.427l-.022.294zM70.997 84.442c-.421-.168-.905.042-1.221.545-.063.105-.148.231-.21.336-.17.273-.317.546-.506.776-.169.21-.337.441-.526.65-.506.63-1.011 1.28-1.6 1.868-.274.273-.548.567-.822.84-.484.503-.968 1.007-1.495 1.468-1.284 1.133-2.842 1.805-4.063 2.267l-.105.042c-.822.314-1.622.608-2.485.755-.99.168-1.81.21-2.632-.147-.484-.21-.737-.546-.758-1.05a3.498 3.498 0 0 1 .99-2.643c.884-.923 2.021-1.532 3.01-1.993 2.17-1.007 4.485-1.616 7.117-1.847.884-.084 1.769-.21 2.442-.335a.947.947 0 0 0 .8-.924c.022-.398-.315-.755-.8-.839-.189-.042-.379-.021-.547-.021h-.358c-1.474-.126-2.926.084-4.316.294a17.38 17.38 0 0 0-3.769.965c-1.41.546-3.221 1.343-4.737 2.665-1.874 1.636-2.527 3.65-1.958 5.938.337 1.322 1.305 2.161 2.863 2.497a7.55 7.55 0 0 0 1.558.147c.99 0 2.106-.168 3.453-.546h.021c.105-.042.232-.063.358-.105.358-.105.821-.252 1.263-.44a16.274 16.274 0 0 0 4.738-2.917c1.305-1.154 2.505-2.539 3.79-4.322.59-.819.99-1.7 1.158-2.644.126-.462-.21-1.091-.653-1.28z" _fill="currentColor"></path><path pid="7" d="M71.965 76.322c-.189-1.154-.61-2.33-1.284-3.547a17.272 17.272 0 0 0-1.558-2.329c-.947-1.238-2.021-2.056-3.264-2.517-1.073-.378-1.957-.315-2.715.188a4.934 4.934 0 0 0-1.811 2.266c-.906 2.288-.653 4.638-.316 6.421l.021.105a.742.742 0 0 1 .042.21c.421 1.762 1.18 3.231 2.316 4.47.863.943 1.895 1.657 2.906 2.35.4.272.8.566 1.2.86.295.21.61.398.926.545.527.273 1.01.546 1.369.986.063.084.147.105.21.126.148.042.295.063.442.063.485 0 .927-.252 1.138-.671.189-.357.315-.693.378-1.007.337-1.68.358-3.4.358-5.078v-.147c-.02-1.091-.19-2.224-.358-3.294zm-2.8 7.176a.865.865 0 0 1-.231-.147l-.485-.357c-.758-.567-1.516-1.133-2.274-1.742-1.158-.923-1.958-1.909-2.42-2.98-.906-2.013-1.138-4.196-.675-6.44.148-.735.4-1.26.8-1.68.21-.21.316-.314.464-.314.105 0 .231.042.42.126.632.252 1.053.776 1.432 1.28.611.797 1.243 1.783 1.495 2.98.021.104.042.23.127.314.294.378.358.818.42 1.28.043.252.085.504.148.755.232.798.295 1.616.358 2.434.021.21.042.399.042.609.063.713.148 1.427.21 2.14l.085.902c.021.231.042.462.084.714v.126zM84.809 86.96a.457.457 0 0 1-.105-.084.837.837 0 0 0-1.095.063c-.295.273-.61.587-.821.965-.127.23-.274.462-.4.713-.485.86-.969 1.742-1.58 2.54-1.579 2.077-3.22 3.713-5.032 5.014-1.179.86-2.484 1.28-3.832 1.28-.526 0-.82-.063-.947-.21-.126-.147-.168-.42-.105-.881.063-.671.673-1.867 1.2-2.434.21-.21.42-.44.61-.672.4-.44.822-.902 1.264-1.321a10.28 10.28 0 0 1 3.263-2.078c.59-.23 1.2-.461 1.79-.692l1.137-.44c.526-.21.8-.567.695-.924-.085-.273-.421-.546-1.095-.378-.8.19-1.642.399-2.485.65-3.453 1.05-6.127 3.253-7.937 6.547-.59 1.05-.737 2.036-.506 3 .295 1.155.906 1.805 1.937 2.036a6.26 6.26 0 0 0 1.39.147c.547 0 1.074-.063 1.6-.105.148-.02.295-.02.463-.042h.042c1.474-.44 2.653-.986 3.664-1.741a27.101 27.101 0 0 0 5.243-5.162c.926-1.196 1.6-2.497 2-3.882.063-.21.084-.42.126-.608.021-.105.021-.19.042-.294.106-.567-.252-.818-.526-1.007z" _fill="currentColor">
</path>
<path pid="8" d="M84.304 85.575l-.232-.86c-.59-2.225-1.2-4.512-2-6.715-.61-1.678-1.474-3.105-2.674-4.343-.695-.714-1.516-1.196-2.464-1.406-.947-.21-1.768.042-2.337.755a3.89 3.89 0 0 0-.694 1.301c-.443 1.385-.38 2.77-.253 3.945.21 2.098.968 4.029 2.316 5.875.947 1.322 2.232 2.371 3.474 3.294.842.63 1.769 1.238 2.969 1.112l.252.504.232-.021h.21c.464.021.843-.105 1.116-.378.274-.272.422-.671.4-1.112-.063-.692-.147-1.343-.315-1.951zm-2.232 1.364l-.19-.063c-.252-.105-.484-.19-.695-.315-2.652-1.679-4.337-3.504-5.305-5.77-.78-1.868-.99-3.756-.61-5.644.062-.336.21-.672.4-1.008.168-.272.315-.398.547-.398.105 0 .252.02.4.084.758.272 1.305.88 1.726 1.405.737.924 1.284 2.015 1.748 3.442.4 1.258.737 2.56 1.031 3.693.274 1.133.527 2.287.78 3.42l.063.314c.042.21.063.42.084.65 0 .064 0 .127.02.19z" _fill="currentColor">
</path>
<path pid="9" d="M13.433 8.694c.105 1.07.19 1.994.274 2.896.105 1.05.231 2.077.337 3.105.105.945.19 1.91.294 2.854.106.944.19 1.868.295 2.79.105.945.21 1.89.358 2.834.147.902.316 1.804.484 2.706.253 1.322.485 2.644.821 3.945.443 1.784.927 3.546 1.432 5.309a44.175 44.175 0 0 0 1.095 3.336c.379 1.049.821 2.098 1.263 3.126.358.84.737 1.679 1.137 2.497.463.923.948 1.847 1.432 2.77.421.797.842 1.615 1.326 2.413.527.881 1.116 1.762 1.685 2.623.442.671.99 1.3 1.326 2.014.19.399.527.65.737 1.028.21.357.506.672.78 1.007.294.357.589.735.884 1.091.82.945 1.62 1.91 2.463 2.854.716.797 1.41 1.616 2.169 2.371.758.776 1.579 1.51 2.379 2.245.8.735 1.642 1.448 2.463 2.162.506.44 1.032.902 1.558 1.321.569.462 1.137.903 1.706 1.343.652.483 1.326.903 1.979 1.364.526.378 1.032.735 1.558 1.133 1.368 1.028 2.8 1.93 4.253 2.812.969.587 1.916 1.196 2.885 1.762.905.546 1.831 1.05 2.779 1.553.59.315 1.242.546 1.832.881.758.42 1.558.777 2.337 1.112 1.158.483 2.253 1.113 3.453 1.47.126.041.252.083.358.146.336.231.715.336 1.115.44.611.169 1.2.441 1.79.672 1.6.588 3.2 1.154 4.864 1.595 1.558.42 3.095.965 4.653 1.406.926.272 1.874.461 2.8.692.274.063.527.168.78.273.062.02.105.084.168.084 1.495.042 2.863.587 4.316.797.295.042.59.252.863.399.19.126.295.315.21.545-.084.231-.21.441-.462.483-.127.021-.253.042-.38.021-.884-.042-1.747-.042-2.61-.168-1.41-.189-2.822-.462-4.232-.713a124.226 124.226 0 0 1-4.864-.966c-.863-.188-1.705-.44-2.526-.692-.632-.189-1.243-.504-1.874-.608-.8-.126-1.474-.546-2.232-.693-1.41-.294-2.695-.944-4.022-1.49-.842-.335-1.726-.629-2.547-1.07-.885-.461-1.748-.965-2.653-1.343-1.285-.524-2.464-1.196-3.685-1.825-.316-.147-.631-.294-.884-.609-.19-.251-.59-.314-.905-.482-1.011-.567-2.064-1.07-2.97-1.847-.168-.147-.505-.147-.694-.293-1.053-.882-2.337-1.427-3.306-2.434-.147-.147-.442-.168-.61-.294a267.647 267.647 0 0 1-2.906-2.224c-.758-.588-1.537-1.133-2.274-1.742a37.93 37.93 0 0 1-1.979-1.741c-.526-.483-1.032-1.029-1.558-1.511-.8-.734-1.621-1.427-2.4-2.161-.274-.252-.463-.546-.716-.819-.8-.881-1.621-1.762-2.4-2.665a62.49 62.49 0 0 1-2.569-3.168 96.295 96.295 0 0 1-2.653-3.672c-.758-1.112-1.453-2.245-2.148-3.399-.505-.84-.947-1.72-1.41-2.58-.38-.735-.8-1.449-1.137-2.204-.653-1.448-1.2-2.938-1.874-4.385-.695-1.49-1.053-3.085-1.642-4.617-.19-.482-.274-.986-.4-1.49-.253-1.007-.527-2.014-.78-3.02-.105-.4-.168-.798-.231-1.176-.253-1.49-.547-2.98-.758-4.47-.21-1.384-.337-2.79-.484-4.196a92.864 92.864 0 0 1-.232-2.413c-.084-1.007-.126-2.035-.168-3.042a143.097 143.097 0 0 1-.085-3c-.02-.903-.02-1.868-.02-2.812 0-.588.02-1.196.042-1.784 0-.084-.021-.168 0-.252.042-.21-.021-.545.315-.524.106 0 .21.272.232.314zM199.2 10.394c-.169-1.007-.716-1.741-1.6-2.12a4.666 4.666 0 0 0-1.537-.356c-2.064-.063-3.832.735-5.285 2.33-1.6 1.762-2.632 3.944-3.327 7.07-.084.357-.042.714.021 1.05v.083c.021.231.211.357.337.441.021.021.042.021.063.042-.21.105-.442.189-.652.273-.274.105-1.095.44-.948 1.469l.021.167.148.105c.021 0 .021.021.042.042l.021.021c.063.042.126.084.21.126.169.084.337.126.506.147.126.021.231.021.337.021.379 0 .715-.084 1.052-.168 1.516-.378 2.99-1.028 4.548-1.993 1.39-.86 2.485-1.742 3.39-2.707 1.095-1.175 1.853-2.329 2.316-3.567.358-.84.463-1.658.337-2.476zm-10.443 8.057c.042-.146.042-.293.063-.42v-.041a2.35 2.35 0 0 1 .084-.44c.063-.232.147-.463.211-.693.231-.819.505-1.72.863-2.56.589-1.448 1.326-2.539 2.253-3.357 1.074-.924 2.168-1.385 3.369-1.385.231 0 .484.02.736.063h.043c.631.105.926.44.947 1.049.021.23-.042.524-.147.86-.211.693-.59 1.343-1.179 2.014-1.053 1.217-2.169 2.162-3.432 2.875-.379.21-.779.44-1.158.671-.674.4-1.264.735-1.874 1.07-.274.148-.527.273-.821.42 0-.042.021-.084.042-.126z" _fill="currentColor"></path>
<path pid="10" d="M189.536 11.485c-.169-.965-.463-2.203-1.2-3.315-.864-1.301-2.064-2.35-3.538-3.085-.737-.377-1.473-.503-2.147-.377-1.179.21-1.937.986-2.316 2.329-.59 2.077-.106 4.05.484 6.064.19.63.463 1.259.695 1.804.105.231.21.462.295.693.336.818.863 1.615 1.6 2.434.631.692 1.347 1.28 2.105 1.867.506.399 1.053.714 1.579 1.05l.211.125c.147.084.295.147.442.168.042 0 .084.021.126.021.316 0 .527-.168.695-.336.232-.21.4-.587.042-1.154-.231-.335-.526-.63-.8-.902-1.495-1.406-3.053-2.958-3.937-5.057-.674-1.573-1.053-2.832-1.263-4.07-.127-.777-.253-1.574.021-2.33.231-.587.4-.692.947-.566l.063.021c.127.021.295.063.421.126 1.601.881 2.611 2.077 3.117 3.63.484 1.49.547 3.147.189 5.057-.063.335-.126.734-.189 1.133-.064.377.105.692.463.84.463.209.758.041.926-.127l.084-.084a1.54 1.54 0 0 0 .316-.398c.106-.21.211-.441.295-.65l.042-.106c.021-.063.042-.105.063-.168l.021-.063c.337-1.741.379-3.189.148-4.574zM195.178 24.285c-.694-.546-1.537-.777-2.631-.714a11.167 11.167 0 0 0-3.559.776 12.119 12.119 0 0 0-3.937 2.476c-1.053.987-1.853 2.183-2.569 3.21l-.021.022c-.21.315-.337.713-.442 1.049-.084.273.063.671.316.818a.78.78 0 0 0 .442.126c-.021 0-.042.021-.084.021-.548.126-.758.378-.8.965-.042.525.147.819.674 1.008.105.041.231.084.357.104.043 0 .106.021.148.021.358.021.695.042 1.053.042 1.747 0 3.495-.356 5.2-1.07 1.664-.692 3.011-1.49 4.148-2.434.695-.587 1.411-1.238 1.958-2.056.358-.525.779-1.217.758-2.077.021-1.008-.295-1.742-1.011-2.287zm-11.453 7.176c.105-.168.189-.336.294-.504l.042-.063c.085-.168.169-.315.274-.482 1.537-2.518 3.685-4.071 6.38-4.617.589-.126 1.2-.21 1.747-.21.253 0 .506.021.716.063.169.042.737.21.716.504-.021.21-.105.44-.232.63-.484.734-1.179 1.363-2.105 1.95-1.558.987-2.927 1.659-4.295 2.141-.148.063-.295.126-.4.168a2.732 2.732 0 0 1-.463.189c-.737.168-1.453.336-2.338.524-.252.063-.505.105-.758.168.169-.105.295-.294.422-.461z" _fill="currentColor"></path>
<path pid="11" d="M182.588 32.384c.021-.21.021-.42.063-.588.379-1.468.568-2.853.568-4.217 0-3.105-.989-5.791-2.99-7.974-1.347-1.468-2.968-2.035-4.842-1.678-1.369.273-2.337.986-2.864 2.14-.568 1.238-.652 2.623-.252 4.218a.685.685 0 0 0 .231.377c-.021.147-.042.315.021.483.064.147.106.273.169.42l.063.167c.253.63.547 1.364.884 2.036.8 1.552 1.895 2.853 3.264 3.84 1.642 1.196 3.074 1.972 4.506 2.454l.063.022c.126.041.252.083.379.104.042 0 .105.021.147.021.316 0 .505-.188.821-.503l.19-.189-.421-.881v-.252zm-5.685-12.695v.21c.863.147 1.558.588 2.232 1.385.821.986 1.41 2.14 1.789 3.546.485 1.742.379 3.504.19 5.162-.042.44-.106.881-.169 1.322l-.021.21-.063-.042a12.458 12.458 0 0 1-.863-.588c-.905-.671-1.811-1.51-2.737-2.539-.084-.084-.169-.189-.274-.273l-.063-.063c-.274-.293-.569-.587-.695-.902a9.335 9.335 0 0 0-.526-1.133l-.042-.063c-.211-.377-.443-.818-.59-1.259-.042-.147-.105-.293-.147-.44-.232-.63-.443-1.238-.506-1.868-.042-.503.021-.944.19-1.343.316-.713 1.032-1.133 1.874-1.133.126 0 .252 0 .4.021l.021-.21zM191.936 37c-.758-.357-1.6-.525-2.716-.525-1.895 0-3.664.504-4.99.945-1.327.44-2.695 1.07-4.211 1.951-1.242.713-2.421 1.7-3.727 3.084-.063.064-.126.147-.21.21-.442.441-.99 1.008-1.095 1.826-.169 0-.295.02-.442.042-.653.126-.737.482-.821.944-.085.525.168.881.652 1.007.084.021.148.042.232.063.21.063.463.126.716.168.105.021.189.021.294.042a31.45 31.45 0 0 0 1.938.063h.61c2.527-.063 5.095-.483 7.811-1.28 1.264-.378 2.738-.818 4.106-1.51 1.263-.651 2.19-1.344 2.927-2.225.295-.357.61-.797.716-1.385.273-1.427-.442-2.79-1.79-3.42zm-.484 2.497c0 .042-.021.21-.106.315-.21.273-.484.524-.779.734-.884.63-1.958 1.154-3.326 1.658-2 .713-3.832 1.196-5.58 1.49-1.2.188-2.442.356-3.558.503l-.926.126a16.38 16.38 0 0 1 7.369-4.994c1.305-.44 2.8-.86 4.379-.86.274 0 .569.02.863.042.085 0 .148.02.232.02.253.043.526.106.863.21.253.105.442.336.569.756z" _fill="currentColor"></path>
<path pid="12" d="M177.05 38.091c-.021-.797-.042-1.741-.189-2.665a12.592 12.592 0 0 0-.99-3.357c-.674-1.448-1.684-2.56-3.011-3.294-.526-.294-1.074-.504-1.579-.567-1.705-.251-3.074.42-4.063 1.994-.864 1.405-1.179 3.063-.948 5.203.126 1.238.569 2.392.948 3.4.652 1.678 1.516 3.23 2.189 4.406.19.315.4.608.611.881l.021.021c.126.168.253.336.379.525.547.797 1.326 1.217 1.958 1.49.021.02.063.02.084.041l-.337 1.197.211.167c.337.273.589.42.842.441.042 0 .105.021.147.021.401 0 .716-.252.99-.546a8.268 8.268 0 0 0 2.232-4.07c.379-1.637.526-3.357.505-5.288zm-3.074 1.763c-.168 1.07-.358 2.16-.547 3.273l-.169.965c0 .042-.021.084-.042.147-.358-.147-.631-.42-.884-.692-1.095-1.196-1.832-2.686-2.548-4.113l-.105-.21c-.758-1.49-1.2-2.685-1.453-3.86-.337-1.511-.273-2.75.19-3.945.379-.986 1.2-1.616 2.126-1.616h.042c.085 0 .19 0 .274.021.674.105 1.158.566 1.537.986 1.074 1.175 1.663 2.665 1.79 4.574a21.657 21.657 0 0 1-.211 4.47zM183.156 53.24a8.307 8.307 0 0 0-3.305-1.867 12.356 12.356 0 0 0-5.138-.398c-2.211.272-4.169 1.09-5.811 2.433a40.55 40.55 0 0 0-2.421 2.183c-.316.293-.464.734-.611 1.07-.126.335.063.692.19.86l.021.021h-.127a4.337 4.337 0 0 1-.505-.105c-.463-.147-.821-.21-1.158-.042-.316.168-.463.525-.59.986-.021.063-.021.105-.021.168l-.021.19.063.125c.358.588.948.84 1.432.986.021 0 .063.021.063.021 1.432.42 2.969.693 4.675.797.694.042 1.368.063 2.042.063.653 0 1.284-.02 1.895-.041 2.316-.084 4.337-.42 6.232-1.07a9.803 9.803 0 0 0 2.948-1.616c.968-.777 1.2-1.679 1.2-2.308.042-.903-.358-1.826-1.053-2.455zm-15.749 4.24l.084-.064.19-.126c.21-.126.631-.377.61-.965.021-.02.043-.063.085-.105.168-.147.337-.294.526-.44l.105-.084c.506-.441 1.095-.924 1.685-1.322 2.905-1.889 6.148-2.162 9.622-.86.631.23 1.179.65 1.6 1.174.421.525.379.966-.126 1.406-.569.504-1.327.777-1.98.986-1.347.441-2.737.693-4.253.777l-.421.02c-1.137.064-2.337.148-3.495.064-1.474-.105-2.99-.231-4.464-.357.064 0 .148-.063.232-.105z" _fill="currentColor"></path>
<path pid="13" d="M168.27 46.086c-.337-1.385-.821-2.413-1.558-3.19-1.474-1.595-3.558-1.888-5.327-.755-1.305.84-2.168 2.098-2.652 3.84-.422 1.531-.464 3.063-.106 4.574v.02l.063.316c.106.461.211.923.379 1.384.316.798.695 1.553 1.095 2.288.506.902 1.011 1.531 1.621 2.056.106.084.19.168.295.252l.063.063c.253.23.506.461.8.671.274.189.548.378.822.546.042.02.084.063.147.083l-.084.86.231.127c.253.147.485.21.695.23h.063c.295 0 .569-.104.822-.335.126-.126.294-.19.589-.19.274-.02.59-.125.842-.293.337-.21.379-.482.358-.63-.021-.251-.168-.46-.421-.608-.063-.042-.147-.063-.21-.084.4-.986.736-2.119 1.01-3.525.274-1.385.569-3.042.653-4.763.042-.881.042-1.91-.19-2.937zm-3.263 8.015c-.063.273-.148.566-.211.86l-.126.63-.063.293c-.021.084-.021.147-.042.231-.106-.084-.232-.168-.337-.252-1.895-1.468-3.074-3.44-3.601-6.042-.294-1.427-.189-2.77.295-4.008.232-.588.527-1.07.885-1.448l.042-.042.042-.042c.568-.524 1.158-.797 1.684-.797h.084c.064 0 .127.02.19.02.61.127 1.158.63 1.558 1.47.463.965.526 2.035.526 2.832 0 .777-.063 1.469-.189 2.098a32.343 32.343 0 0 0-.316 1.7l-.021.105c-.063.399-.147.818-.211 1.238-.063.357-.147.713-.231 1.049l.042.105zM176.334 66.334c-.189-.693-.484-1.175-.926-1.553-.905-.797-2-1.154-2.758-1.364-2.022-.566-4.043-.482-5.769-.357-2.99.231-5.79 1.029-8.338 2.35-.147.064-.274.147-.421.21-.674.336-1.369.693-1.958 1.238-.421.399-.632.819-.653 1.322l-.021.231.021.021c-.189.126-.316.357-.4.63-.126.524.063 1.007.547 1.384.569.42 1.222.65 1.832.86l.169.064c.695.23 1.41.42 2.21.545.653.105 1.348.189 2.127.21.526.021 1.053.042 1.579.042 2.316 0 4.485-.252 6.611-.734 1.432-.336 2.59-.735 3.58-1.238a6.486 6.486 0 0 0 2.063-1.658c.569-.672.716-1.427.505-2.203zm-19.223 2.182l.063-.042c.106-.084.211-.147.295-.21 1.769-1.007 3.474-1.72 5.201-2.203 2.926-.818 5.811-1.05 8.569-.671.526.063 1.074.21 1.663.42.274.104.59.293.885.545.168.147.252.272.252.377 0 .105-.084.252-.252.378-.758.65-1.685.986-2.59 1.26-1.874.545-3.958.88-6.401.985-2.147.105-3.895.063-5.495-.126-.126-.02-.253-.02-.4-.042-.716-.063-1.453-.147-2.063-.503.063-.042.168-.105.273-.168z" _fill="currentColor"></path>
<path pid="14" d="M159.743 58.318c-.084-1.175-.295-2.224-.695-3.189-.484-1.175-1.179-2.098-2.147-2.812-.253-.188-.506-.314-.758-.44-.106-.063-.211-.105-.316-.168l-.063-.042h-.063c-1.179-.252-2.274.042-3.369.902-1.411 1.133-1.916 2.749-2.169 4.029-.337 1.616-.252 3.19-.126 4.385.168 1.658.61 3.253 1.053 4.805l.105.378c.084.294.21.587.337.86.042.105.105.231.147.336.379.902 1.116 1.406 1.853 1.888.126.084.253.168.358.252.168.126.337.189.526.231.063 0 .106.021.169.021.294 0 .589-.147.842-.42l.084-.084c.421-.44.842-.923 1.158-1.468a28.06 28.06 0 0 0 2.442-5.56c.379-1.218.716-2.519.632-3.904zm-3.411 2.35c-.126.378-.273.735-.421 1.113v.02c-.168.378-.337.777-.463 1.197-.147.461-.337.944-.505 1.384v.021c-.127.336-.295.735-.443 1.154-.105.336-.21.609-.357.819-.022.02-.064.042-.106.063-.61-.965-.947-1.93-1.2-2.77-.4-1.259-.653-2.413-.779-3.546-.21-1.846-.063-3.315.463-4.616.295-.714.716-1.238 1.243-1.574.315-.189.61-.294.884-.294.063 0 .105 0 .168.021.316.042.632.273.906.63.694.902.926 1.993 1.052 2.832.169 1.343-.147 2.602-.442 3.547zM164.859 79.742c-.484-1.238-1.452-1.973-2.421-2.581-1.368-.84-2.969-1.49-4.906-1.993-1.137-.294-2.274-.462-3.368-.651l-.295-.042c-1.537-.252-2.948-.336-4.316-.252-.969.063-1.937.231-2.885.42l-.063.02c-.779.148-1.179.61-1.116 1.323l.021.147.084.105c.379.398.821.293 1.095.23h.021c.021 0 .042 0 .063-.02 1.348-.315 2.759-.42 4.296-.357 1.705.084 3.326.377 4.695.671 1.768.357 3.39.902 4.821 1.616 1.074.524 1.769 1.133 2.211 1.888.316.546.253.819-.295 1.133-.863.525-1.874.63-2.758.672-.695.042-1.453.02-2.442-.084-.19-.021-.379-.042-.569-.042h-.042c-.61-.042-1.242-.105-1.832-.252-.379-.105-.758-.168-1.158-.252h-.042c-.652-.126-1.347-.252-1.979-.503-.358-.147-.737-.273-1.095-.399l-.147-.042a31.357 31.357 0 0 1-1.495-.546 14.33 14.33 0 0 1-3.179-1.825c-.084-.063-.19-.147-.295-.21-.463-.335-.863-.63-.948-1.175-.063-.42-.4-.671-.884-.671-.379 0-.674.252-.779.671-.231.965-.021 1.763.653 2.35.695.609 1.368 1.196 2.105 1.72 1.516 1.092 3.264 1.952 5.538 2.687 1.01.335 2.147.587 3.453.797.273.042.547.084.8.126 1.053.147 2.021.23 2.948.23.842 0 1.642-.062 2.421-.188 1.01-.168 2.168-.462 3.158-1.26 1.2-1.027 1.474-2.014.926-3.461z" _fill="currentColor"></path>
<path pid="15" d="M150.163 63.354c-.4-1.951-1.368-3.336-2.905-4.217-.758-.44-1.537-.42-2.274.042-.379.23-.737.545-1.032.881-1.305 1.469-2.084 3.336-2.379 5.75-.19 1.573-.127 3.189.21 4.804a21.84 21.84 0 0 0 1.243 4.05c.4.944.968 1.51 1.789 1.762.063.021.106.021.169.042a.787.787 0 0 0 .231.021c.295 0 .59-.084.821-.23.295-.19.485-.462.527-.756.021-.147.063-.23.231-.398l.064-.084a7.02 7.02 0 0 0 .484-.609c1.158-1.7 1.937-3.357 2.4-5.036v-.02c.042-.273.105-.546.147-.798.106-.567.232-1.196.337-1.847.169-1.237.148-2.329-.063-3.357zm-2.19 1.343c-.126.923-.273 1.972-.589 2.959-.611 1.93-1.2 3.483-1.853 4.847-.147.293-.253.608-.379.944-.589-1.448-1.221-3.085-1.474-4.784-.4-2.56-.063-4.721 1.074-6.652.211-.377.526-.734.99-1.196.168-.146.273-.23.4-.23.126 0 .231.063.4.21.421.377.716.734.905 1.07.484.923.653 1.867.526 2.832zM150.205 89.73c-.61-1.406-1.579-2.602-3.074-3.757-1.705-1.321-3.621-2.37-5.685-3.147a23.91 23.91 0 0 0-7.074-1.469c-.589-.02-1.179.084-1.748.19l-.168.041c-.547.105-.926.462-.968.965-.022.252.042.567.273.756.211.168.569.189.779.126.106-.021.19-.063.295-.105.105.839.379 1.657.884 2.518l.274.482c.547.945 1.095 1.91 1.684 2.854.906 1.448 2.001 3.084 3.58 4.364a9.627 9.627 0 0 0 3.39 1.805c.294.084.631.168.947.21.442.084.926.105 1.411.105.358 0 .716-.022 1.074-.063 1.473-.168 2.61-.672 3.516-1.574.484-.483.968-1.07 1.01-1.889a5.548 5.548 0 0 0-.4-2.413zm-2.484 2.979c-.906.566-1.958.587-2.843.545a6.922 6.922 0 0 1-2.737-.67c-.526-.253-.989-.63-1.495-1.03-1.937-1.615-3.368-3.671-4.8-5.832a17.355 17.355 0 0 1-1.2-2.098c-.084-.147-.127-.315-.19-.525.063 0 .148.02.211.02.484.043.947.106 1.41.169 1.938.294 3.769.818 5.433 1.51 2.463 1.029 4.337 2.309 5.79 3.882.547.588.947 1.301 1.2 2.12.253.839 0 1.426-.779 1.909z" _fill="currentColor"></path>
<path pid="16" d="M140.436 67.488c-.084-.881-.295-2.014-.969-3-.779-1.134-1.789-1.449-3.116-.987-1.031.357-1.811 1.05-2.421 1.679-1.663 1.7-2.716 3.756-3.179 6.294a18.235 18.235 0 0 0-.021 6.673l.042.21c.231 1.343.484 2.707.989 4.028.127.336.421.588.632.777a.55.55 0 0 0 .274.126h.126c.189 0 .379-.063.484-.168.127-.105.253-.21.379-.336l.084-.063c.485-.42.99-.86 1.432-1.343 1.158-1.322 1.958-2.895 2.716-4.385l.021-.042c.758-1.469 1.537-3.063 2.064-4.763.463-1.553.631-3.127.463-4.7zm-3.137-2.476h.126c.232.042.421.21.611.587.463.882.526 1.826.484 3-.042 1.28-.4 2.582-1.074 3.967a127.506 127.506 0 0 1-2.295 4.51c-.505.966-1.095 1.952-1.558 2.75l-.421.734v-.021c-.126-.525-.274-1.07-.379-1.574-.463-2.035-.632-3.882-.526-5.644.168-2.749.968-4.93 2.463-6.63.568-.651 1.221-1.322 2.084-1.595.19-.063.358-.084.485-.084zM135.635 94.828c-.716-1.3-1.726-2.518-3.221-3.819-1.874-1.657-3.916-2.937-6.064-3.776-1.684-.672-3.495-.945-5.327-.84h-.021c-.21.021-.484.021-.716.147-.168.084-.358.23-.484.42-.084-.231-.168-.462-.232-.693-.126-.524-.526-.818-.968-.755-.316.042-.526.315-.695.504-.147.188-.147.461-.126.65.021.126.042.23.063.357v.02c.042.357.105.735.232 1.07.568 1.532 1.221 2.812 1.979 3.903.105.168.231.336.337.504l.021.042c.379.546.758 1.133 1.2 1.679 1.01 1.3 2.211 2.497 3.642 3.65 1.179.966 2.611 2.057 4.295 2.854 1.285.609 2.401.924 3.538.986H133.298a3.39 3.39 0 0 0 1.6-.377c1.39-.714 1.643-2.056 1.685-3 .105-1.427-.484-2.707-.948-3.526zm-14.822-6.777l2.421.168c.168.042.316.063.484.105h.042c.358.084.674.147 1.011.251a14.65 14.65 0 0 1 4.232 2.057c1.684 1.154 3.769 2.811 5.074 5.224.59 1.07.779 2.015.611 2.959-.105.63-.379.923-.927.944-.526.021-.989-.02-1.326-.147-1.39-.503-2.758-1.28-4.043-2.287-.463-.357-.926-.776-1.326-1.133-.253-.21-.526-.482-.821-.713a14.477 14.477 0 0 1-2.148-2.245 24.278 24.278 0 0 0-1.052-1.26c-.801-.88-1.537-1.909-2.359-3.336-.126-.21-.252-.42-.358-.63.043 0 .085.022.127.022l.147.02a.36.36 0 0 1 .211 0z" _fill="currentColor"></path>
<path pid="17" d="M128.435 71.894c-.485-1.322-1.116-2.224-2.022-2.874-1.41-1.029-2.842-1.133-4.337-.357-1.39.713-2.527 1.762-3.474 3.231-.969 1.49-1.453 3.148-1.895 4.763l-.105.378c0 .042-.021.063-.021.126-.148 1.469-.295 3.021-.106 4.595.211 1.637.527 2.959 1.053 4.134l.274.65a.853.853 0 0 0 .61.525c.085.02.148.02.232.02.084 0 .168-.02.253-.041.505-.126.926-.273 1.284-.462 2.042-1.028 3.516-2.12 4.653-3.441 1.411-1.637 2.59-3.42 3.201-4.89 1.031-2.643 1.136-4.322.4-6.357zm-1.516 2.413c0 1.658-.695 3.127-1.369 4.365-.589 1.09-1.369 2.077-2.148 3.042l-.042.042c-.442.567-1.052 1.05-1.642 1.51-.568.441-1.179.861-1.79 1.28l-.189.127c-.126.084-.253.168-.379.272-.358-1.636-.505-2.958-.505-4.26 0-1.342.168-2.685.505-4.028.232-.923.547-1.993 1.032-3.021.526-1.091 1.242-2.015 2.126-2.707.59-.462 1.137-.692 1.685-.692.084 0 .147 0 .231.02.063 0 .126.021.19.042.505.126.989.483 1.431 1.092.569.797.864 1.762.864 2.916z" _fill="currentColor"></path>
<path pid="18" d="M189.578 12.555c0-.356-.316-.755-.695-.839-.147-.042-.526-.042-.758.588-.084.21-.147.44-.189.629-.064.23-.106.462-.148.713a18.76 18.76 0 0 1-.231 1.05c-.19.734-.4 1.49-.611 2.224v.02c-.063.19-.105.378-.168.567-.19.672-.379 1.364-.611 2.035a49.36 49.36 0 0 1-.611 1.637 8.49 8.49 0 0 0-.294.777c-.106.293-.211.566-.337.86-.232.587-.442 1.196-.695 1.804-.19.483-.421.986-.632 1.448l-.316.692c-.063.126-.105.252-.168.378l-.253.567c-.126.294-.252.587-.4.86-.421.923-.842 1.867-1.284 2.77-.274.587-.59 1.196-.884 1.783-.106.19-.19.378-.295.567-.084.168-.169.314-.232.482a57.722 57.722 0 0 1-.842 1.637c-.189.357-.421.713-.632 1.07-.126.23-.273.44-.4.672-.252.42-.505.839-.736 1.258-.337.567-.674 1.155-1.011 1.721-.463.776-.99 1.616-1.6 2.623-.232.378-.485.734-.716 1.112l-.169.252c-.105.168-.231.335-.336.482-.211.315-.443.63-.632.966-.253.42-.569.923-.948 1.364-.21.23-.379.503-.547.755-.084.105-.147.23-.232.336-.168.23-.315.461-.484.671-.379.546-.779 1.112-1.179 1.679-.189.251-.4.503-.589.755l-.443.566c-.273.357-.547.735-.821 1.092-.484.65-.989 1.322-1.495 1.951a44.708 44.708 0 0 1-1.579 1.846l-.484.546c-.19.21-.379.44-.569.65-.589.693-1.2 1.406-1.831 2.078-1.011 1.09-2.085 2.161-3.137 3.21l-.022.021c-.8.798-1.642 1.658-2.526 2.455-.674.609-1.348 1.238-2.021 1.826-.337.314-.695.608-1.032.923-.126.105-.232.23-.358.335-.189.19-.4.378-.611.546-.21.168-.463.336-.694.504-.379.251-.758.524-1.095.86-.548.504-1.137.944-1.727 1.364-.252.189-.505.356-.758.566-.779.609-1.621 1.175-2.442 1.72l-.442.295c-.695.482-1.432.944-2.127 1.385l-.337.21c-.168.104-.315.188-.484.293a7.88 7.88 0 0 0-.884.567c-.442.356-.948.63-1.432.902-.189.105-.4.23-.611.336-.589.356-1.158.671-1.705.965-.653.356-1.326.734-2.021 1.07-.906.44-1.79.84-2.695 1.259l-.19.084c-.631.294-1.263.566-1.916.818-.842.315-1.684.63-2.526.902-.232.084-.464.147-.695.231-1.011.336-2.085.672-3.137.923-1.622.378-3.306.567-4.948.735a7.84 7.84 0 0 0-.695.084c-.716.084.379.126-.19.503-.4.273-.315 0-.126.525l.084.21.19-.126c.547-.399-.716.21-.063.21h.484c.126 0 .253 0 .379.02.147.022.316.043.484.022l.548-.042a82.384 82.384 0 0 0 3.2-.252c1.095-.126 1.979-.273 2.779-.462 1.516-.377 3.285-.839 5.011-1.531.4-.168.8-.315 1.221-.483.906-.357 1.853-.734 2.801-1.112.821-.336 1.6-.735 2.379-1.112.316-.147.611-.315.926-.462 1.095-.524 2.169-1.154 3.201-1.741.294-.168.589-.336.905-.504.337-.189.653-.399.969-.588.21-.125.421-.272.652-.398l.148-.084c.358-.23.737-.44 1.095-.713.421-.315.884-.609 1.326-.882l1.074-.692a86.257 86.257 0 0 0 3.284-2.392 77.444 77.444 0 0 0 3.032-2.392c.863-.735 1.727-1.49 2.548-2.224.231-.21.484-.441.716-.65l.358-.316c.589-.524 1.2-1.07 1.789-1.615.421-.399.821-.819 1.2-1.217.316-.315.632-.65.948-.966 1.79-1.762 3.453-3.65 4.99-5.434.021-.02.042-.063.084-.084.148-.168.358-.378.337-.692.274-.042.442-.21.569-.378.252-.357.547-.734.842-1.091l.758-.944c.442-.546.905-1.112 1.347-1.7l.295-.399c.968-1.259 1.958-2.58 2.884-3.902 1.18-1.72 2.317-3.483 3.243-4.973.695-1.112 1.326-2.224 2.084-3.546.632-1.133 1.243-2.287 1.769-3.274.4-.776.8-1.531 1.158-2.308.274-.566.526-1.154.779-1.72.105-.252.232-.504.337-.777l.295-.65c.231-.525.484-1.05.716-1.595.084-.189.168-.398.252-.608.042-.084.063-.19.105-.273l.106-.273c.084-.189.147-.398.231-.587l.19-.441c.063-.168.147-.315.21-.483.021-.084.064-.146.106-.23.105-.231.231-.462.21-.714 0-.168.063-.273.148-.42.063-.083.105-.167.147-.272.084-.252.189-.525.295-.756.126-.293.252-.608.358-.923l.105-.294a77.715 77.715 0 0 0 1.032-3.126 103.38 103.38 0 0 0 1.263-4.553c.189-.798.337-1.637.484-2.434.063-.315.105-.63.169-.965.063-.357.105-.567.105-.798z" _fill="currentColor">
</path>
</svg>