<svg data-v-051b5016="" data-v-1d20a21b="" version="1.1" viewBox="0 0 51 50" fill="#797e82"><path pid="0" d="M47.8 26.213a.829.829 0 0 0-.787-.272c-.115.024-.23.04-.348.047a6.498 6.498 0 0 1-1.6-.187 4.28 4.28 0 0 1-2.56-1.688 17.293 17.293 0 0 1-1.318-2.12 6.938 6.938 0 0 0-3.329-3.038 3.804 3.804 0 0 0-1.829-.385h-.128l-.338-.413.064-.075c.119-.122.22-.243.32-.365l.22-.272c.283-.366.585-.741.859-1.126.384-.544.832-1.181 1.235-1.875.349-.546.655-1.12.914-1.717a7.124 7.124 0 0 0 .585-2.532 5.422 5.422 0 0 0-.265-1.875 6.33 6.33 0 0 0-2.954-3.33 6.584 6.584 0 0 0-3.009-.937h-.365a9.883 9.883 0 0 0-2.04 0c-.64.084-1.335.197-2.195.365-.541.098-1.076.233-1.6.404-.43.15-.86.328-1.271.506-.412.178-.55.235-.824.338l-1.042.394c-.42.16-.86.319-1.28.497l-.293.112a8.823 8.823 0 0 1-1.893.629 8.596 8.596 0 0 0-.741.178c-.238.065-.466.131-.713.178-.842.13-1.667.357-2.46.675-.68.262-1.33.599-1.94 1.004-.488.328-.903.76-1.216 1.266a1.746 1.746 0 0 0-.338 1.106.36.36 0 0 1-.137.329c-.332.33-.58.739-.723 1.19a3.4 3.4 0 0 0-.146 1.745c0 .206 0 .29-.156.384a3.093 3.093 0 0 0-1.317 1.585 3.06 3.06 0 0 0-.265 1.735c.06.44.322.823.704 1.032.388.236.812.404 1.253.497l.357.065c-.263.396-.29.909-.073 1.332v.056c-.092.141-.201.282-.302.413-.055.084-.119.16-.174.234a16.562 16.562 0 0 0-1.545 2.542c-.302.61-.586 1.266-.915 2.007a24.83 24.83 0 0 0-1.417 4.539 17.138 17.138 0 0 0-.247 5.533c.2 1.8.866 3.513 1.93 4.961h-.22l-.265.056c-.293 0-.604.094-.915.17A11.177 11.177 0 0 0 5.09 43.9a2.543 2.543 0 0 0-.915.985 1.4 1.4 0 0 0-.126 1.047c.097.353.326.651.639.829a4.1 4.1 0 0 0 1.006.45c.819.245 1.663.396 2.515.45.978.084 2.048.16 3.264.206.97 0 1.967.056 2.945.075h6.192c.914 0 1.93.047 2.89.057h1.125a29.551 29.551 0 0 0 3.457-.17l.603-.065c.778-.084 1.582-.169 2.369-.328a38.573 38.573 0 0 0 3.923-.938 19.402 19.402 0 0 0 3.823-1.557 11.717 11.717 0 0 0 3.512-2.879 10.014 10.014 0 0 0 2.104-5.683c.016-.353.016-.707 0-1.06v-.506a5.867 5.867 0 0 0-.083-.835 4.689 4.689 0 0 1-.082-.74.337.337 0 0 0 0-.113c-.055-.216-.119-.44-.183-.675a30.768 30.768 0 0 0-.42-1.5 15.435 15.435 0 0 0-1.245-2.814 28.294 28.294 0 0 0-1.93-3.001c.473.566 1.003 1.079 1.583 1.528a6.034 6.034 0 0 0 4.719 1.454 1.395 1.395 0 0 0 1.18-1.107.803.803 0 0 0-.156-.797zM16.448 18.58l-.055-.14-.686.244-.293.093h-.055c-.591.22-1.205.37-1.829.45a2.697 2.697 0 0 1-1.829-.572c-.091-.065-.201-.197-.174-.562a2.639 2.639 0 0 1 .787-1.876l.338-.31h.046a10.96 10.96 0 0 0 3.658 2.514l.092.16zm0-7.802l-1.692.356a.989.989 0 0 1 .183-.319c.343-.43.774-.78 1.262-1.022.487-.27.987-.515 1.5-.731a3.432 3.432 0 0 0-1.29 1.716h.037zm22.635 20.575c.17.327.403.614.686.845.353.317.75.58 1.18.778a.255.255 0 0 1 .127.272.278.278 0 0 1-.237.253 1.215 1.215 0 0 1-.814-.103 2.582 2.582 0 0 1-1.473-1.623 10.122 10.122 0 0 1-.54-3.113v-.507-.712-.638-1.023a7.903 7.903 0 0 0-.274-2.25 7.391 7.391 0 0 0-1.17-2.382l-.33-.403-.164-.206c-.11-.122-.092-.244 0-.507a.603.603 0 0 1 .055-.103l.073.056c.134.098.257.211.366.338l.265.319c.256.319.53.647.768 1.003.401.664.689 1.394.85 2.157.018.076.04.151.065.225v.085c.064.234.146.515.2.778.095.658.113 1.325.056 1.988v.3c0 .713-.073 1.529-.083 2.326a3.62 3.62 0 0 0 .394 1.847zM28.41 10.936l.229.45.054.122c-.31.36-.668.675-1.06.938l-.631.403h-.055l-.787.507a9.335 9.335 0 0 1-2.56 1.125h-.156l-.677-1.022c2.128-.4 4.08-1.476 5.579-3.076v.047a.872.872 0 0 0 .064.506zm-9.95 7.831a11.173 11.173 0 0 1 1.975-.825c.22-.063.443-.113.668-.15l.622-.141c.448-.12.908-.183 1.371-.188h1.125c.603.013 1.2.114 1.774.3.522.15 1.043.32 1.555.488l-.585.047-1.83.15-1.05.094c-.595.056-1.272.122-1.93.16-.421 0-.86.046-1.281.056l-1.235.056a9.883 9.883 0 0 0-1.088.131l-.402.056-.43.057c.22-.038.485-.16.74-.291zm-1.637 1.407a48.82 48.82 0 0 1 2.121-.244c.714-.066 1.39-.094 2.03-.094h.247c1.034 0 2.131 0 3.43-.14l1.518-.123h.083c.695-.056 1.417-.121 2.121-.159.704-.037 1.326-.037 2.003-.037.197.01.393.039.585.084l.659.16.631.14a2.593 2.593 0 0 0 1.93-.469l.402-.281.082-.066a.53.53 0 0 1 .138.29l-.147.113c-.158.131-.334.238-.521.32-.485.168-.988.318-1.482.468h-.082l-.503.15a4.559 4.559 0 0 0-1.244.094c-.2 0-.43.075-.649.094l-.97.094h-.173l-1.83.159c-.328 0-.658 0-.987.047h-.832c-.403 0-.814 0-1.217.047l-1.253.047c-.777.056-1.563.094-2.332.131h-1.134c-.393 0-.805 0-1.207.056l-.823.056c-.32 0-.65.047-.979.057a8.54 8.54 0 0 1-2.121-.178c-.128 0-.201-.047-.247-.113l.055-.122c.064-.122.119-.253.183-.394.064-.14 0-.047.155-.065h.046l1.746-.235.568.113zm18.044-5.937c-.293.441-.698.791-1.171 1.013a.585.585 0 0 0-.302.207.774.774 0 0 1-.457.28h-.119a9.548 9.548 0 0 1-2.24.498c-.586.066-1.18.112-1.775.16l-.768.056-.44.046a4.671 4.671 0 0 1-1.563-.215l-.32-.085-.284-.065-.914-.103h-.265a1.374 1.374 0 0 1 0-.816.11.11 0 0 1 .064-.047 12.455 12.455 0 0 0 3.658-1.876 8.34 8.34 0 0 0 1.033-.834c.182-.186.345-.39.485-.61l.082-.131a.413.413 0 0 0 0-.329v-.243h.366a7.585 7.585 0 0 1 1.985.243h.082c.861.156 1.67.534 2.35 1.098.235.217.447.459.632.722a.822.822 0 0 1-.11 1.031h-.01zm.064 2.195c-.26.326-.569.608-.915.835-.472.3-1.018.455-1.573.45a6.078 6.078 0 0 1-1.536-.216h-.275a3.538 3.538 0 0 1-.695-.216c.622 0 1.235-.122 1.83-.206l.63-.085a4.826 4.826 0 0 0 2.287-1.134l.914-.722.055-.047c0 .14.1.281.137.394.037.112 0 .047 0 .084a4.648 4.648 0 0 1-.402.478c-.192.085-.32.244-.448.385h-.01zm-3.32-6.049a9.623 9.623 0 0 0-1.756-.122h-.595a1.516 1.516 0 0 1-.128-.394v-.14c-.1-.347-.192-.648-.301-.938a2.296 2.296 0 0 0-1.326-1.332 6.996 6.996 0 0 0-2.415-.581c.826-.26 1.636-.573 2.424-.938.247-.105.504-.18.768-.225l.384-.075h.064l.485-.122.997-.207a3.69 3.69 0 0 1 .484-.084c.283-.028.562-.088.832-.178.218-.06.444-.083.668-.066.412 0 .85.047 1.308.094a5.692 5.692 0 0 1 1.911.59c.761.39 1.456.904 2.058 1.52.217.225.396.485.53.769l.055.094c.29.467.457 1.003.485 1.557a6.82 6.82 0 0 1-.137 1.51 6.79 6.79 0 0 1-1.253 2.672l-.1.14a2.463 2.463 0 0 1-.44.535v-.065c-.064-.207-.118-.413-.182-.61a4.52 4.52 0 0 0-.915-1.603 1.9 1.9 0 0 0-.53-.413 29.973 29.973 0 0 1-1.546-.835 5.924 5.924 0 0 0-1.83-.553zM24.13 7.57c.76-.032 1.52.066 2.25.29.342.116.675.257.997.422h.11c.114.061.219.14.31.235.276.276.352.7.192 1.06a2.66 2.66 0 0 1-.704.881c-.819.653-1.72 1.19-2.68 1.594-.688.323-1.404.577-2.14.76a.656.656 0 0 0-.183.047c-.064 0-.1 0-.22-.085l-.118-.103a4.371 4.371 0 0 0-.549-.46 6.196 6.196 0 0 0-.759-.393l-.786-.357a9.057 9.057 0 0 0-2.616-.628c.097-.272.246-.52.44-.731a7.182 7.182 0 0 1 2.743-1.82c.354-.12.718-.208 1.088-.262.183 0 .366-.057.549-.103h.155a2.69 2.69 0 0 0 .503-.132 3.182 3.182 0 0 1 1.299-.206l.119-.01zm-7.426 4.013h.173a7.642 7.642 0 0 1 3.76 1.032c.303.188.572.43.795.713.1.137.21.266.33.384.1.113.2.225.292.347.376.427.651.938.805 1.491.036.16.01.329-.074.47a.22.22 0 0 1-.183.13 8.86 8.86 0 0 0-2.844.704c-.243.102-.51.129-.768.075-.83-.11-1.646-.314-2.433-.61-.9-.325-1.73-.829-2.441-1.481-.261-.24-.472-.53-.622-.854-.201-.437-.117-.956.21-1.303.218-.248.487-.443.787-.572a5.437 5.437 0 0 1 2.213-.526zm1.408 6.096c-.23.154-.483.268-.75.338a.896.896 0 0 1-.475-.113h-.064a9.513 9.513 0 0 1-2.46-1.416c-.248-.187-.485-.403-.705-.6l-.338-.356a.951.951 0 0 1-.284-.76 4.764 4.764 0 0 0 1.482 1.435 9.276 9.276 0 0 0 3.375 1.435l.22.037zm-4.207 4.558l1.116.188c.94.084 1.886.084 2.826 0h.53l1.628-.066 1.948-.085h.1l2.241-.084h.851c.915-.056 1.966-.113 2.981-.197a24.454 24.454 0 0 0 3.476-.525c.384-.094.786-.16 1.143-.225l.823-.16c.272-.058.541-.133.805-.225a.53.53 0 0 1 .567.094c.353.3.64.674.841 1.097.403.614.694 1.297.86 2.017.1.694.137 1.378.183 2.213v.835c.031.94.123 1.876.274 2.804a8.078 8.078 0 0 0 1.098 3.01c.306.486.754.86 1.28 1.069.193.08.392.145.594.197l.202.056c.039.006.079.006.118 0h.055a.699.699 0 0 0 .586.085c.283 0 .805-.132.869-.713a1.31 1.31 0 0 0-.513-1.37l-.96-.646a2.176 2.176 0 0 1-.914-1.567 7.306 7.306 0 0 1 0-1.162c0-.46 0-.938.054-1.379v-1.313c.046.06.089.123.128.188.311.431.632.881.915 1.34.284.46.604.985.787 1.323.386.686.728 1.397 1.024 2.129.313.755.54 1.545.677 2.354.112.67.176 1.346.192 2.025a9.398 9.398 0 0 1-.22 2.223 8.946 8.946 0 0 1-.914 2.513 9.063 9.063 0 0 1-2.415 2.701 13.117 13.117 0 0 1-3.493 1.95c-.915.32-1.766.592-2.543.817-.201.05-.406.084-.613.103l-.411.047a2.956 2.956 0 0 0-.339.094l-.228.065-.302.066c-.274.066-.567.14-.85.178h-.257c-.914.113-1.829.235-2.67.3-1.52.137-3.049.162-4.573.075a25.711 25.711 0 0 1-3.283-.412c-.165 0-.33-.057-.494-.085l-.63-.112c-.184-.047-.367-.113-.568-.178l-.457-.141a15.154 15.154 0 0 1-2.26-.788 12.564 12.564 0 0 1-1.261-.628 9.746 9.746 0 0 1-2.232-1.726 10.177 10.177 0 0 1-2.661-4.22 10.94 10.94 0 0 1-.448-2.87 17.378 17.378 0 0 1 .494-4.717 35.133 35.133 0 0 1 1.17-3.695 21.035 21.035 0 0 1 2.625-4.914l.448.047zm23.943-1.604a1.174 1.174 0 0 1-.448-.337 4.1 4.1 0 0 0-.869-.872c.295.085.582.195.86.328.431.21.85.448 1.253.712a6.236 6.236 0 0 1 1.783 2.064l.201.337a25.04 25.04 0 0 0 1.107 1.735 5.194 5.194 0 0 0 3.95 2.28c.495.047.993.006 1.473-.123a.419.419 0 0 1-.32.375 3.803 3.803 0 0 1-1.198.094 4.504 4.504 0 0 1-2.369-.89 14.463 14.463 0 0 1-1.49-1.333 9.48 9.48 0 0 1-.659-.703l-.439-.478c-.425-.466-.81-.968-1.152-1.5-.156-.226-.32-.46-.494-.685a3.09 3.09 0 0 0-1.189-1.004zm1.473 2.945v.047c.237.3.484.619.704.938.03.03.054.065.073.103-.238-.31-.485-.6-.732-.882a1.983 1.983 0 0 1-.393-.6c.137.131.238.272.348.394z" _fill="#282828"></path><path pid="1" d="M17.272 38.724c.227.085.463.142.704.168h.1c.577 0 1.18.094 1.775.094.594 0 1.445 0 2.094-.056h1.82l.1.253a2.2 2.2 0 0 1 .101.263c.088.23.188.456.302.675.174.319.375.394.512.394a.686.686 0 0 0 .567-.403v-.16a.935.935 0 0 0-.238-.319c-.1-.084-.155-.14-.164-.234a4.193 4.193 0 0 0-.137-.535l1.829-.131.091.253c.073.235.146.45.229.666.071.218.17.426.292.619a.55.55 0 0 0 .357.263.562.562 0 0 0 .174 0 .422.422 0 0 0 .247-.066.61.61 0 0 0 .192-.722c-.082-.3-.156-.6-.238-.938l-.027-.206h.21l2.926-.347a10.572 10.572 0 0 0 2.927-.797 2.69 2.69 0 0 0 1.436-1.257c.136-.245.175-.533.11-.807a1.882 1.882 0 0 0-.577-.937 4.525 4.525 0 0 0-1.765-.863 8.152 8.152 0 0 0-1.829-.357l-.832-.065h-.1c-.412 0-.842-.075-1.263-.094-.42-.019-.987 0-1.472 0h-.75v-.103c0-.206-.064-.413-.1-.62v-.112c0-.122 0-.262-.065-.394-.064-.13-.1-.553-.146-.825l-.165-.938a.56.56 0 0 1 0-.178 7.567 7.567 0 0 1 2.552.094c.939.132 1.807.58 2.47 1.275.077.11.197.178.329.188a.632.632 0 0 0 .43-.319l.063-.084v-.094a2.205 2.205 0 0 0-.914-.938l-.604-.338-.283-.15a6.079 6.079 0 0 0-1.985-.665c-.784-.147-1.582-.2-2.378-.16l-.054-.337c0-.132 0-.263-.074-.394-.045-.3-.1-.61-.164-.938a.496.496 0 0 0-.54-.422.532.532 0 0 0-.521.394c-.043.14-.068.285-.073.431v.328c-.06.31-.06.628 0 .938v.113c0 .01 0 0-.1 0l-.486.094-.914.178h-.046a1.578 1.578 0 0 0 0-.207c0-.206 0-.3.1-.375l.12-.084-.046-.122c-.137-.357-.375-.553-.631-.535-.256.02-.457.141-.521.638a4.102 4.102 0 0 0-.046.431v.582h-.12c-1.219.394-2.377.965-3.438 1.697-.384.282-.75.61-1.079.938l-.11.103c-.27.238-.44.574-.475.938-.048.46.174.906.567 1.135h.091c.56.255 1.181.33 1.784.216H19.548c.098.014.197.014.294 0l1.015-.057h1.893l.63 3.001h-1.042l-1.326.122h-.137l-1.152.188h-.165c-.304.027-.61.027-.915 0h-.31a1.245 1.245 0 0 1-.915-.188.359.359 0 0 0-.402-.056.48.48 0 0 0-.256.422.723.723 0 0 0 .512.835zm1.783-5.42a2.688 2.688 0 0 1-.585-.085h-.165a9.54 9.54 0 0 1 3.933-2.41l.292 2.428h-.393c-1.006 0-2.04.066-3.064.085l-.018-.019zm4.326-2.936a8.504 8.504 0 0 1 1.49-.357c.02.084.036.168.046.254v.13c.073.395.147.77.183 1.154.023.215.06.428.11.638.064.284.104.572.119.863l-1.61.084-.338-2.766zm2.231 3.901l.64 2.87h-.393c-.464.064-.931.095-1.399.093l-.549-2.85c.558-.072 1.12-.11 1.683-.113h.018zm1.51-.056h2.286c1.29.005 2.573.21 3.804.61.341.103.654.286.915.534.042.04.076.087.1.14 0 0 0 .047-.128.141-.457.357-.99.598-1.554.704-.741.168-1.555.328-2.488.478-.357.056-.723.084-1.08.112h-1.371l-.485-2.72z" _fill="#282828"></path></svg>