<svg data-v-051b5016="" data-v-1d20a21b="" version="1.1" viewBox="0 0 50 50" fill="#797e82"><path pid="0" d="M41.851 21.438v-.46a.75.75 0 0 0-.62-.79s-.05 0-.1-.11a3.38 3.38 0 0 0-2.3-1.47 8.61 8.61 0 0 1-1.42-.36 18.865 18.865 0 0 0-4.16-1 9.33 9.33 0 0 1-3.07-.88 7.25 7.25 0 0 0-3.22-.79c-.166.01-.333.01-.5 0h-.06a6.291 6.291 0 0 1 .7-2.89 3.58 3.58 0 0 0 2.45-.25c.23-.1.46-.22.67-.33a6.43 6.43 0 0 0 3.22-3.37c.11-.28.21-.57.3-.85s.26-.74.42-1.11a6.18 6.18 0 0 0 .44-2.68v-1.47-.81a.999.999 0 0 0 0-.33c0-.09-.11-.3-.3-.32a1.531 1.531 0 0 1-.24-.07 1 1 0 0 0-.62-.08h-.16a19.58 19.58 0 0 0-2.92.89 10.17 10.17 0 0 0-2.84 1.75 4.91 4.91 0 0 0-.91 1 7.29 7.29 0 0 0-1.38 5.05 3.6 3.6 0 0 0 .84 2.21.356.356 0 0 1 0 .1c-.14.34-.3.67-.44 1l-1.45-2.56a1.65 1.65 0 0 0 .21-1.05 6.74 6.74 0 0 0-.8-2.83 10.11 10.11 0 0 0-1.84-2.26l-.07-.07a8.85 8.85 0 0 0-3.89-2.15 7.45 7.45 0 0 0-4.73.4.81.81 0 0 0-.21.1l-.09.06a.87.87 0 0 0-.52.85c-.02.88.13 1.756.44 2.58a10.71 10.71 0 0 0 1.8 3.14c.32.36.68.7 1 1l.35.34a6.66 6.66 0 0 0 2.65 1.53 6.77 6.77 0 0 0 3.67.07c.342-.09.677-.207 1-.35l.32-.12a6.45 6.45 0 0 1 1.5 4h-.07c-.133.056-.257.13-.37.22-.425.3-.91.504-1.42.6-.527.122-1.044.279-1.55.47-.12 0-.24.1-.36.15a2.929 2.929 0 0 1-1.65.36.251.251 0 0 0-.13 0l-.87.22c-.66.17-1.34.34-2 .55a4.2 4.2 0 0 1-2.53 0 3.871 3.871 0 0 0-1.47-.16 3.82 3.82 0 0 0-2.45 1 2 2 0 0 0-.63 1.24 24.001 24.001 0 0 0-.12 3.81 5.55 5.55 0 0 0 .4 1.94 2.71 2.71 0 0 0 1.93 1.82c.35.09.69.15 1.06.23l.36.07v.28c.05.33.09.63.12.92.07.58.12 1.17.18 1.75v.22l.18 1.8c.05.45.11.94.2 1.56.09.62.16 1 .24 1.45v.13c0 .18.06.35.1.55.04.2.12.64.17 1 .039.263.092.523.16.78.064.247.114.497.15.75.08.58.2 1.17.32 1.75.06.33.13.67.19 1 .06.33.06.45.09.72v.13h-.25c-.31 0-.61.06-.91.11a7.73 7.73 0 0 0-4 1.72 4.54 4.54 0 0 0-.87.88 1.23 1.23 0 0 0-.08 1.09 1.06 1.06 0 0 0 .73.67c.371.12.748.22 1.13.3l.83.2c1.235.337 2.502.549 3.78.63H18.821c1.39-.09 2.74-.17 4.1-.21h4.25c.77 0 1.55-.07 2.3-.11h1.62a19.287 19.287 0 0 0 3.9-.45c.23-.06.48-.12.79-.18a2.62 2.62 0 0 0 1.9-1.48l.06-.11-.06-.11a1.18 1.18 0 0 1-.09-.9v-.12c.11-.92.22-1.85.33-2.75.13-1.07.26-2.18.4-3.27v-.34c.14-1.08.28-2.19.47-3.27.32-1.8.46-3.6.59-5.29v-1.36-.46l.19-.07c.24-.07.474-.156.7-.26a1.9 1.9 0 0 0 1.21-1.58c0-.24.05-.48.08-.74.07-.76.15-1.54.19-2.32a17.75 17.75 0 0 0 .1-1.79zm-13.17-11.31l.27-.34.08-.11-.06-.11c-.12-.22-.28-.47-.53-.5a.73.73 0 0 0-.53.32l-.84 1.07-.18.23v-.09a8.9 8.9 0 0 1 .5-4.25c.3-.763.8-1.43 1.45-1.93a14.08 14.08 0 0 1 3.3-2 4.21 4.21 0 0 1 1.3-.3 9.47 9.47 0 0 1 0 2.06 14.426 14.426 0 0 1-1 3.4c-.16.446-.357.878-.59 1.29a4.86 4.86 0 0 1-1.68 1.58c-.42.26-.9.53-1.46.81-.309.168-.65.27-1 .3.287-.5.61-.979.97-1.43zm7.57 16.61h-.25a.621.621 0 0 0-.46.16.57.57 0 0 0-.13.48.63.63 0 0 0 0 .19v.17l.1.05a6.83 6.83 0 0 0 3 .53l-.07.67c-.08.7-.15 1.38-.22 2.05V31.718c0 .36-.06.76-.11 1.14-.13.94-.27 1.9-.41 2.83l-.16 1c0 .29-.09.58-.13.87-.09.59-.19 1.2-.26 1.8-.17 1.36-.32 2.73-.48 4.06l-.22 1.88h-.25c-.27.06-.544.09-.82.09a29.124 29.124 0 0 0-3.25.14l-1.17.08h-5.04l-2.64-.09-2-.08c-.65 0-1.3 0-1.93-.08-.63-.08-1-.08-1.53-.14l-.57-.06v-.22a7.836 7.836 0 0 1-.17-.78c-.08-.46-.15-.93-.23-1.4-.08-.47-.18-1.2-.29-1.8-.07-.4-.16-.8-.25-1.19-.09-.39-.17-.77-.24-1.18-.29-1.59-.53-3-.75-4.45-.19-1.22-.33-2.24-.43-3.29a10.8 10.8 0 0 0-.56-2.68h.09l.61-.05.88-.11h.1l1-.12a.49.49 0 0 0 .48-.55c0-.44-.45-.47-.59-.47h-1c-.991.004-1.98-.096-2.95-.3a1.74 1.74 0 0 1-1.48-1.53c-.09-.75-.15-1.5-.21-2.25l-.07-.74v-.64h.05a15.83 15.83 0 0 0 4.37.69c.65 0 1.32 0 2 .06h1.69c.57 0 1.14.06 1.7.09l1.54.08c2.15.09 4.09.16 5.93.22 1 0 1.92.05 2.83 0a50.85 50.85 0 0 0 5.85-.38l.69-.07c.41 0 .82-.07 1.23-.14.41-.07.85-.18 1.23-.27h.07l.41-.1-.15 4.68-.45.09c-.45.09-.91.18-1.36.29-.86.199-1.749.23-2.62.09h.05zm-22.74-7.52a6 6 0 0 0 2.28.24h.28c.13-.012.257-.04.38-.08l.89-.25 1.91-.51c.213-.02.427-.02.64 0h.08a3 3 0 0 0 1.51-.34c.169-.08.347-.136.53-.17h.12l.93-.24h.06l1.27-.33c.202-.06.39-.155.56-.28a1.91 1.91 0 0 1 1-.36 6.31 6.31 0 0 1 3.68.74 8.5 8.5 0 0 0 3.06 1c1.388.17 2.751.506 4.06 1a8.546 8.546 0 0 0 1.68.39c.318.058.625.166.91.32h-.33l-2.14.14-3.73.23-1.32.06h-1.54l-.6.03h-.2a1.896 1.896 0 0 0-.25 0h-2.46l-2-.07h-.17l-2.58-.08h-4.49c-.78 0-1.49 0-2.2-.07a19.91 19.91 0 0 1-4.53-.78 2.34 2.34 0 0 1 .89-.45l.33-.06c.28-.05.63-.11 1-.14a1.26 1.26 0 0 1 .49.06zm8.17-11.06l-.07.11.07-.11c-.2-.12-.4-.24-.59-.37a4.998 4.998 0 0 0-.6-.33l-.19-.1a1.25 1.25 0 0 0-.41-.15.59.59 0 0 0-.51.24.61.61 0 0 0 .08.52.58.58 0 0 0 .25.22l.06-.11v.13l.39.23.74.44c.31.196.601.42.87.67.26.26.5.54.73.81l.21.25-.44.06c-.66.117-1.332.15-2 .1a5.41 5.41 0 0 1-2.16-.7 8 8 0 0 1-1.41-1l-.25-.26a4.801 4.801 0 0 1-.64-.7l-.13-.18a11.091 11.091 0 0 1-2.22-4c-.05-.15-.1-.29-.16-.44a.418.418 0 0 1 0-.1h.11l.67-.1.6-.05.66-.07a5.65 5.65 0 0 1 3.25.64l.43.23.38.2a6 6 0 0 1 1.77 1.5l.14.15c.25.27.54.59.78.9a4.91 4.91 0 0 1 .84 2.28 6.5 6.5 0 0 0-1.25-.91z" _fill="#282828"></path><path pid="1" d="M31.241 27.368H27.521l-2.09-.05h-4.45a.481.481 0 0 0-.52.46c0 .17.06.4.43.47l.42.1c.358.09.722.15 1.09.18.5 0 1 .06 1.52.07.52.01 1.33 0 2 0h.29a33.079 33.079 0 0 0 4.66-.28h.11c.147-.013.292-.047.43-.1a.58.58 0 0 0 .32-.47.431.431 0 0 0-.14-.32.48.48 0 0 0-.35-.06z" _fill="#282828"></path></svg>