<svg data-v-051b5016="" data-v-1d20a21b="" version="1.1" viewBox="0 0 50 50" fill="#797e82"><path pid="0" d="M49.927 29.515a.714.714 0 0 0-.224-.196.67.67 0 0 0-.28-.083 13.995 13.995 0 0 0-1.571-.201l-1.352-.079H44.33a.202.202 0 0 1 0-.078v-.39a15.541 15.541 0 0 1-.105-2.314v-.748-1.565c.084-1.296.23-2.682.45-4.235.095-.682.21-1.363.315-2.045l.094-.514c.053-.257.105-.525.136-.782a.725.725 0 0 0-.075-.553.663.663 0 0 0-.188-.204.617.617 0 0 0-.25-.104 4.41 4.41 0 0 0-.912-.223c-.597 0-1.205-.078-1.792-.112H40.57a5.105 5.105 0 0 0-.713 0h-2.221c-.294 0-.598 0-.902-.056-.304-.056-.597 0-.901 0h-.262l-3.427-.122h-.723l.608-.291.293-.391c.287-.115.558-.269.807-.458a3.613 3.613 0 0 0 1.32-1.99l.136-.547c.158-.603.325-1.218.462-1.832l.052-.235c.18-.59.235-1.217.157-1.833V7.2H35.025a1.289 1.289 0 0 0-.283 0h-.115c-.577.146-1.164.29-1.74.47-.171.062-.328.16-.461.29l-.325.313c-.147.145-.294.29-.44.413a4.035 4.035 0 0 1-.524.336l-.147.09v-.08a1.104 1.104 0 0 1-.052-.38 2.887 2.887 0 0 1 .88-1.876l1.362-1.118.702-.592c.053-.04.1-.089.137-.145l.084-.1v-.057a.887.887 0 0 0-.256-.483.793.793 0 0 0-.478-.22l-1.362-.448-.535-.167-.346-.123a4.575 4.575 0 0 0-.786-.224 5.052 5.052 0 0 0-2.441.112c-.16.054-.326.092-.493.112a7.645 7.645 0 0 0-2.42.681 2.178 2.178 0 0 0-1.027.69 2.403 2.403 0 0 0-.525 1.165c-.052.324-.105.648-.146.984-.042.335-.095.592-.137.894a4.23 4.23 0 0 1-.104.558v.134h-.378c-.325 0-.639.067-.953.123h-.231c-.83.117-1.65.303-2.452.56a8.673 8.673 0 0 0-3.658 2.446c-.37.365-.662.81-.857 1.306a3.986 3.986 0 0 0-.274 1.566v.458h-.315a8.712 8.712 0 0 0-2.096.29l-.419.135c-.24.084-.485.151-.733.2-1.151.252-2.288.568-3.406.95l-.44.135a20.54 20.54 0 0 0-1.52.503l-1.237.48-.356.112a13.71 13.71 0 0 0-2.578 1.006c-.24.122-.471.268-.702.402a.911.911 0 0 0-.377.455.985.985 0 0 0-.032.606c.075.44.18.873.315 1.297.094.313.199.614.304.916.104.302.272.804.387 1.207a290.963 290.963 0 0 1 1.677 6.09c.283 1.117.524 2.235.702 3.24.147.838.23 1.71.325 2.56v.524c.115 1.04.23 2.157.346 3.42v.737c.01.435.053.868.126 1.296.127.737.18 1.486.157 2.235-.01.153-.01.306 0 .458v.257H4.592c.1.042.207.069.314.078h.168c.179.042.366.01.524-.089a.495.495 0 0 1 .45.011h3.48l.126 1.017H9.58c-.77.036-1.53.183-2.263.436l-.2.056c-.45.134-1.047.313-1.205 1.117-.084.48 0 .771.503.894a.538.538 0 0 0 .189 0h.084c.78.041 1.563.004 2.337-.111h.45l.65-.068c.696-.094 1.395-.15 2.096-.167h.189a2.972 2.972 0 0 0 1.048-.212 3.435 3.435 0 0 0 1.507-1.085c.402-.5.67-1.106.777-1.754 0-.19 0-.368.084-.57a1.205 1.205 0 0 1 0-.19h7.252c.104.023.21.023.314 0h.346c.122.017.245.017.367 0l1.53-.089h.45l.105 1.374h-.052l-.828.079a4.71 4.71 0 0 0-2.012.536c-.19.103-.345.265-.446.465a1.18 1.18 0 0 0-.12.652c0 .447.325.649.629.783a5.744 5.744 0 0 0 2.19.435h2.578c.189-.01.377-.01.566 0h.555c.267.011.535-.011.797-.067.443-.125.85-.366 1.183-.702.333-.336.582-.755.724-1.22.177-.463.224-.972.136-1.463a.492.492 0 0 0-.058-.21.458.458 0 0 0-.14-.16.438.438 0 0 0-.378 0h-.073v.224a4.689 4.689 0 0 1-.765 1.61 1.49 1.49 0 0 1-.426.436 1.36 1.36 0 0 1-1.143.183 1.415 1.415 0 0 1-.527-.284 2.464 2.464 0 0 1-.85-1.047 2.652 2.652 0 0 1-.198-1.367 5.002 5.002 0 0 1 1.048-2.704c.259-.35.634-.582 1.048-.648.418-.046.836.087 1.163.368.262.196.478.453.632.75.155.3.243.631.259.971 0 .537.146.727.639.85.448.108.904.179 1.362.212h1.467l2.662-.078 2.966-.1c.263-.006.519-.096.734-.258l.555-.413.86-.649 1.739-1.34 2.222-1.699.366-.257.41-.302c.403-.278.758-.63 1.047-1.039a1.03 1.03 0 0 0 .157-.38l.063-.648c0-.235 0-.47.084-.693.147-1.028.293-2.09.461-3.128.136-.816.294-1.632.45-2.414v-.09a.933.933 0 0 0 0-.726zM34.302 8.642v.625a9.82 9.82 0 0 1-.577 2.515 2.675 2.675 0 0 1-1.404 1.463l-.136.079 1.184-4.626.933-.056zm13.623 25.957a3.367 3.367 0 0 0 0-.323.855.855 0 0 0-.187-.457.769.769 0 0 0-.4-.259.64.64 0 0 0-.42.01.688.688 0 0 0-.334.27 2.103 2.103 0 0 0-.399 1.363v.29c0 .168.084.392.147.615.023.072.06.139.109.195.049.056.108.1.174.13a.787.787 0 0 0 .335.089.711.711 0 0 0 .374-.12.775.775 0 0 0 .266-.305c.132-.23.224-.484.272-.749 0 .38-.063.76-.073 1.118a.61.61 0 0 1-.078.292.563.563 0 0 1-.205.21l-.629.47c-.472.332-.917.706-1.33 1.117a1.56 1.56 0 0 1-.368.246 2.315 2.315 0 0 0-.345.224l-1.489 1.218-1.047.849-.462.346-.083.056a1.06 1.06 0 0 1-.063-.28 24.903 24.903 0 0 1 0-3.061v-.57-1.229a11.103 11.103 0 0 1 1.918-1.475l.408-.268 2.2-1.464 1.751-1.118c.132-.087.258-.184.377-.29.062-.058.129-.11.2-.157l.083-.067c0 .235-.115.47-.178.704-.201.73-.341 1.479-.42 2.235l-.104.145zm-7.63 7.309h-1.089l-2.096.111-2.808.201-1.562.112h-.063c0-.067 0-.145-.052-.212l-.063-.145a5.189 5.189 0 0 0-.262-.67c-.073-.146-.168-.28-.252-.414a2.108 2.108 0 0 1-.167-.257 2.54 2.54 0 0 0-.838-.855c-.339-.21-.72-.331-1.111-.352h-.189a2.665 2.665 0 0 0-1.203.298 2.846 2.846 0 0 0-.966.82 7.673 7.673 0 0 0-.902 1.519l-.178.358H24.66c-2.997 0-6.088.078-9.127.346a1.248 1.248 0 0 1-.084-.168 4.44 4.44 0 0 0-1.048-1.43 2.696 2.696 0 0 0-1.046-.633 2.571 2.571 0 0 0-1.2-.093 2.638 2.638 0 0 0-1.12.464c-.337.242-.619.56-.826.932a9.07 9.07 0 0 0-.388.794c0 .111-.094.212-.146.324l-3.847.112a61.221 61.221 0 0 0-4.516-22.472h.367l1.1.09 1.624.123c1.122.1 2.253.19 3.375.268h9.138c1.048 0 2.023 0 3.05.09h1.236v9.922a.41.41 0 0 1 0 .111.458.458 0 0 0 .07.305.408.408 0 0 0 .245.176c.098.018.199-.002.284-.058a.434.434 0 0 0 .177-.244.88.88 0 0 0 .073-.257c.148-.943.25-1.894.304-2.85.052-1.117 0-2.234 0-3.351 0-.48 0-.961-.053-1.442-.052-.48 0-.85-.083-1.263 0-.212 0-.424-.053-.637a2.707 2.707 0 0 1 0-.29h.22l3.207.056H32.813c.018.439-.017.878-.104 1.307a32.056 32.056 0 0 0-.388 5.263v3.04c0 .95.105 1.799.178 2.681v.358c0 .201.063.391.094.581.032.19 0 .157 0 .235v.067h.063c.457.2.943.314 1.436.335.367 0 .744.112 1.11.179l.63.123 2.557.413 2.158.347a25.388 25.388 0 0 0-.251 5.61v.021zM23.938 8.965c-.199-.213-.157-.402-.094-.67a8.35 8.35 0 0 0 .105-.492c.031-.168.084-.47.146-.704.137-.436.294-.905.535-1.498a.583.583 0 0 1 .172-.265.528.528 0 0 1 .279-.126l.398-.067c.253-.042.508-.068.765-.078h.199c.702.067 1.415.19 2.096.313l.796.134h.2c-.48.207-.908.533-1.248.95-.269.31-.47.678-.592 1.08a3.076 3.076 0 0 0-.11 1.244c.023.37.16.721.39 1 .228.279.537.47.878.542a3.39 3.39 0 0 0 1.708.083 3.509 3.509 0 0 0 1.551-.765v.18c-.083.364-.167.737-.251 1.117-.105.413-.22.815-.335 1.218l-.147.514c-.02.08-.044.158-.074.234-.21.47-.377.581-.838.514h-.189a17.067 17.067 0 0 1-1.834-.324 15.563 15.563 0 0 1-1.98-.704 13.031 13.031 0 0 1-1.446-.715 1.057 1.057 0 0 0-1.394.168 1.994 1.994 0 0 1-.346.246l-.189.122-.524.358c-.303.224-.618.436-.932.648l-.357.246a17.508 17.508 0 0 1-3.007 1.766c-.45.212-.934.33-1.425.346a1.595 1.595 0 0 1-.705-.146 1.694 1.694 0 0 1-.584-.446 1.135 1.135 0 0 1-.246-.452 1.189 1.189 0 0 1-.027-.52 2.935 2.935 0 0 1 .818-1.632 8.272 8.272 0 0 1 2.599-1.788 13.356 13.356 0 0 1 3.636-1.028c.356 0 .713-.123 1.048-.2.108-.016.213-.046.314-.09l.241-.079.22-.067-.22-.167zm5.995.491a.984.984 0 0 1-.87-.178.975.975 0 0 1-.326-.38 1.05 1.05 0 0 1-.104-.503c.017-.44.15-.867.383-1.23a2.24 2.24 0 0 1 .938-.826 1.75 1.75 0 0 1 .356-.157l.251-.089.336-.112a3.39 3.39 0 0 0-.938 1.594 3.566 3.566 0 0 0 .016 1.881h-.042zm.974-4.626a7.327 7.327 0 0 0-2.2-.659h-.388l-.556-.09c.378-.055.776-.122 1.174-.167a2.14 2.14 0 0 1 .692.09c.513.122 1.048.268 1.54.402l.42.111.356.101-.765.268a.487.487 0 0 1-.23-.056h-.043zm-3.06 9.454c.232.05.466.083.702.1h.514c.005.03.005.06 0 .09h-1.059a25.18 25.18 0 0 0-3.28.123l1.237-1.006.503.167c.46.235.943.392 1.425.526h-.042zm-3.029-.972c-.1.1-.209.19-.324.268-.482.324-.975.626-1.457.938l-1.656 1.118a6.11 6.11 0 0 1-2.672.916c-.27.03-.543.011-.807-.056a11.927 11.927 0 0 0 2.966-1.34c.87-.504 1.718-1.118 2.546-1.632l.252-.168c.115-.08.224-.169.325-.268l.094-.09.733.314zm-9.263 5.028c0 .067 0 .134.073.212.115.403.356.436.67.447a.527.527 0 0 0 .369-.15.596.596 0 0 0 .177-.375c.052-.335.083-.67.125-.994v-.101a.713.713 0 0 0 0-.212h.147l.587.167c.46.17.952.224 1.436.157a6.02 6.02 0 0 0 2.504-.872c.338-.222.688-.424 1.048-.603.12-.052.248-.082.377-.09h.619c.723 0 1.467-.078 2.19-.078h3.458c0 .268.074.559.105.827.034.596.136 1.185.304 1.754v.079h.073c.598.111.776 0 .933-.582.08-.367.08-.75 0-1.117a2.815 2.815 0 0 1 0-.29c0-.18 0-.358-.052-.56v-.122h.933l3.395.145c.629 0 1.247.078 1.876.134l1.666.112 2.337.112h1.048l-1.447.48c-.922.313-1.886.626-2.829.961a22.068 22.068 0 0 0-3.993 1.71 1.113 1.113 0 0 1-.754.156 3.77 3.77 0 0 0-.503 0h-.902l-1.11.168H17.419c-.849 0-1.73-.056-2.588 0-.86.056-1.876.056-2.799.056H6.52l-1.939-.067-1.603-.302h-.723c.285-.106.575-.196.87-.268 1.236-.313 2.473-.726 3.668-1.117h.115c.43-.146.88-.269 1.32-.392.44-.122.64-.167.954-.268l1.216-.38 1.351-.424h.063c.977-.346 2-.516 3.029-.503h.23c.19 0 .252.123.263.357v.168c0 .38 0 .771.073 1.118.037.185.086.368.147.547zm27.383 10.47l-.545.213-1.53.625-.755.313c-.849.347-1.729.704-2.588 1.118a19.18 19.18 0 0 0-2.002 1.117c-.272.179-.534.391-.786.592l-.356.29-.304.236c0-.347 0-.693-.073-1.04a29.489 29.489 0 0 1-.126-3.352 1.9 1.9 0 0 0-.053-.436v-.223-.09-.547c.041-.371.062-.744.063-1.118 0-1.52.116-3.061.22-4.548l.063-.86a.35.35 0 0 1 .066-.223.313.313 0 0 1 .186-.123l1.163-.425.985-.358 1.656-.58c1.048-.392 2.222-.783 3.322-1.207.64-.235 1.279-.537 1.897-.827l.618-.28a35.326 35.326 0 0 0-1.11 11.733h-.011zm-4.653 5.532a8.486 8.486 0 0 0-1.048-.135 3.551 3.551 0 0 1-.576-.078c-.126 0-.252-.056-.378-.067l-.545-.056h-.377a24.692 24.692 0 0 1 4.621-2.391l1.352-.626.87-.324 1.153-.47c.213-.09.444-.12.67-.088l1.227.078h.838l1.436.111h.419l-.293.202c-.357.257-.724.502-1.048.748-.85.57-1.698 1.118-2.557 1.699L43 33.594l-1.352.871c-.267.141-.573.173-.86.09a3.602 3.602 0 0 1-.471-.112 3.055 3.055 0 0 0-.776-.134 6.127 6.127 0 0 1-1.257.034zM11.037 44.03v-.224c.043-.381.128-.756.251-1.117.113-.32.317-.594.585-.783a1.45 1.45 0 0 1 .904-.268h.146c.185.024.367.065.545.123.254.045.486.18.66.382.172.203.276.462.294.736 0 .223.052.458.073.681v.268c.03.37-.03.741-.175 1.078a2.11 2.11 0 0 1-.653.844 2.247 2.247 0 0 1-1.425.47c-.64 0-.912-.414-1.132-1.028a2.303 2.303 0 0 1-.084-1.207l.01.045z" _fill="#282828"></path><path pid="1" d="M29.932 32.108H25.279v-1.364a28.887 28.887 0 0 0-.189-5.587h4.999l-.073.693c0 .313-.074.637-.116.95a.524.524 0 0 0 .084.369.244.244 0 0 0 .088.076.229.229 0 0 0 .111.024.606.606 0 0 0 .398-.212.629.629 0 0 0 .116-.335v-.29c.073-.492.146-.995.21-1.498a.608.608 0 0 0-.078-.46.552.552 0 0 0-.162-.165.514.514 0 0 0-.211-.08 3.172 3.172 0 0 0-.64-.1l-2.357-.067h-2.935a.523.523 0 0 0-.311.02.559.559 0 0 0-.253.194.625.625 0 0 0-.055.635c.126.527.189 1.067.19 1.61v3.195a24.428 24.428 0 0 1-.158 2.66 15.467 15.467 0 0 0-.22 3.218c.016.216.072.426.166.618.094.192.223.362.38.5.23.2.52.306.817.301h.22a3.684 3.684 0 0 0 1.634-.648c.116-.09.451-.335.325-.704v-.078c-.084-.257-.178-.581-.555-.67a2.255 2.255 0 0 0-1.247 0 .473.473 0 0 0-.325.178c-.063.123 0 .257 0 .47v.078h.377c.118.006.234.028.346.067-.169.078-.35.124-.534.134h-.053c-.293 0-.314 0-.356-.313a6.364 6.364 0 0 1 .073-1.397c0-.134 0-.28.053-.413.052-.134 0-.302 0-.458v-.146h.262l1.404.079c1.121.055 2.232.111 3.343.19a.705.705 0 0 0 .516-.106.788.788 0 0 0 .322-.442v-.112c-.23-.614-.272-.614-.953-.614zM10.607 30.309c.555.273 1.16.415 1.771.413h.304c.233-.02.464-.058.692-.112a3.762 3.762 0 0 0 2.284-1.586 3.76 3.76 0 0 0 .566-1.654 3.944 3.944 0 0 0-.272-1.967 3.828 3.828 0 0 0-1.698-1.788 5.167 5.167 0 0 0-1.52-.536 2.345 2.345 0 0 0-1.687.223 4.11 4.11 0 0 0-1.732 1.736 4.492 4.492 0 0 0-.5 2.477c.028.597.21 1.173.527 1.666.316.493.754.883 1.265 1.128zm-.64-3.532c-.035-.49.068-.981.296-1.41.228-.427.57-.773.983-.992.269-.15.567-.231.87-.235a1.88 1.88 0 0 1 1.048.37 4.384 4.384 0 0 1 1.614 1.91 1.495 1.495 0 0 1 0 1.352 2.809 2.809 0 0 1-.791.943c-.326.248-.7.414-1.095.487-.488.134-1 .134-1.488 0a1.527 1.527 0 0 1-.729-.39 1.68 1.68 0 0 1-.445-.727 3.365 3.365 0 0 1-.262-1.308zM16.287 34.734H14.003a39.541 39.541 0 0 0-2.924.268c-.694.1-1.38.254-2.054.458-.524.156-.556.413-.42.95v.09H8.837a1.975 1.975 0 0 0 .713.077h.576c.478.028.958.028 1.436 0 1.048-.134 2.096-.29 3.144-.447l1.163-.178c.166-.026.33-.063.492-.112a.54.54 0 0 0 .3-.19.602.602 0 0 0 .13-.346c0-.325-.188-.526-.503-.57zM8.616 33.873H8.847l.377.056h2.337a19.39 19.39 0 0 0 3.752-.302.799.799 0 0 0 .417-.17.878.878 0 0 0 .274-.377c-.115-.536-.534-.536-.849-.536h-3.553a8.87 8.87 0 0 0-2.577.29c-.252.078-.42.156-.503.324-.084.168 0 .38 0 .693l.094.022zM21.998 35.46a.454.454 0 0 0-.18-.238.409.409 0 0 0-.28-.064.377.377 0 0 0-.268.125.428.428 0 0 0-.11.289c0 .178-.052.357-.073.536l-.126 2.358v1.095a5.3 5.3 0 0 0 0 .704c.01.083.04.163.087.23a.446.446 0 0 0 .186.15h.083a.476.476 0 0 0 .378-.157c.109-.171.184-.365.22-.57.073-.458.125-.927.157-1.374v-.47a12.23 12.23 0 0 0 0-2.234 1.74 1.74 0 0 0-.073-.38zM39.657 19.559l-.241.19-.262.235c-.058.061-.111.129-.158.2l-.083.124-.545.637c-.378.435-.765.893-1.122 1.363-.628.85-1.226 1.743-1.813 2.603l-.251.358a5.77 5.77 0 0 0-.388.715l-.084.179a.51.51 0 0 0 0 .648l.074.09.094-.068h.073a.55.55 0 0 0 .178-.145c.052-.078.098-.16.137-.246.038-.07.08-.136.125-.2.325-.481.66-.962 1.048-1.431a187.46 187.46 0 0 1 1.709-2.358l1.047-1.352.462-.726a.54.54 0 0 0 .063-.682l-.063-.134zM34.794 24.498l.105-.123c.566-.681 1.048-1.386 1.593-2.067l.094-.145.283-.37a7.882 7.882 0 0 0 1.048-1.686l.063-.157h-.147a.503.503 0 0 0-.347.004.542.542 0 0 0-.271.23l-.2.247c-.47.58-.953 1.117-1.403 1.765-.451.648-.64.905-.933 1.363a.613.613 0 0 0-.158.414c0 .154.057.303.158.413l.115.112zM34.888 22.274a.266.266 0 0 0 .124-.011.28.28 0 0 0 .107-.067c.346-.447.64-.85.901-1.218a.306.306 0 0 0 0-.268.083.083 0 0 0 0-.056v-.156H35.811a.353.353 0 0 0-.262.1c-.252.313-.514.66-.776 1.04a.812.812 0 0 0-.105.256c.004.06.004.12 0 .18l-.073.211h.21l.083-.01zM17.314 12.966a1.325 1.325 0 0 0-.618.263c-.183.14-.33.326-.43.542a.753.753 0 0 0 0 .715c.064.1.153.182.256.235a.615.615 0 0 0 .331.067 1.68 1.68 0 0 0 .763-.362c.223-.185.4-.425.515-.7a.63.63 0 0 0 0-.335.674.674 0 0 0-.12-.238.625.625 0 0 0-.2-.165.588.588 0 0 0-.497-.022zM43.639 37.449a1.019 1.019 0 0 0-.258-.446.926.926 0 0 0-.434-.247.602.602 0 0 0-.429-.005.649.649 0 0 0-.336.285 2.29 2.29 0 0 0-.304.603 2.289 2.289 0 0 0 .053 1.642c.051.124.14.226.251.291a.809.809 0 0 0 .409.112.839.839 0 0 0 .402-.11c.124-.07.23-.17.31-.292.267-.393.407-.868.399-1.353v-.123a2.469 2.469 0 0 0-.063-.357zM44.446 37.035l1.195-.793a.698.698 0 0 0 .22-.246c0-.067.105-.28 0-.402a.543.543 0 0 0-.346-.123.845.845 0 0 0-.262.1l-1.226.816a.812.812 0 0 0-.252.257.448.448 0 0 0 0 .37c0 .088.116.122.178.156h.158l.335-.135zM45.703 36.723c-.45.268-.911.58-1.372.905a.442.442 0 0 0-.148.19.474.474 0 0 0-.03.245.293.293 0 0 0 .108.182.26.26 0 0 0 .195.053h.158c.057-.017.113-.04.167-.067l.23-.156c.336-.235.682-.47 1.049-.715a.545.545 0 0 0 .167-.235s.053-.1.095-.157l.125-.2h-.387a.442.442 0 0 0-.357-.045z" _fill="#282828"></path></svg>